<svg id="Layer_1" data-name="Layer 1" xmlns="http://www.w3.org/2000/svg" viewBox="0 0 130.51 119.69"><defs><style>.cls-1{fill:#443633;}.cls-2{fill:#b3d6b0;}.cls-3{fill:#66ab5f;}.cls-4{fill:#3c6b37;}.cls-5{fill:#f7af66;}</style></defs><g id="Layer_7" data-name="Layer 7"><path class="cls-1" d="M66.46,125.12s-29.8-17.4-36.4-41.4c0,0-1.3-8.8,0-12.9s2.7-7.8-.6-12.8-3.9-11.8-2.1-15.8c0,0-12.9,12-15.4,15.7-4.5,6.8-3.9,17.6-.5,25.7C15.56,93.62,24.76,116.52,66.46,125.12Z" transform="translate(-8.75 -9.12)"/></g><g id="Layer_6" data-name="Layer 6"><path class="cls-2" d="M60.56,28.22s-.9-6.2,5.9-11,7.1-8.1,7.1-8.1,3,5.3,8.1,6.8S92.26,23.52,90,26,76,47,76,47l-10-1.5Z" transform="translate(-8.75 -9.12)"/><path class="cls-2" d="M100.36,24.32s15.4-.8,17.9-2.3a47.76,47.76,0,0,0,0,11.4c.8,5.3,2.8,8.8,0,11.4s-16.2,10.6-16.2,10.6l-11-7.1Z" transform="translate(-8.75 -9.12)"/></g><g id="Layer_5" data-name="Layer 5"><path class="cls-3" d="M51.56,24.32s-2,5.6-4.5,7.6-4.5,10.9,0,14.4,20.2,11.6,20.2,11.6,3-15.4,3-19.2-2.5-9.6-13-11.1C57.26,27.52,52.06,26.52,51.56,24.32Z" transform="translate(-8.75 -9.12)"/><path class="cls-3" d="M76.36,43.22s-2.6-12.1,6.5-16.9,20.8-10.4,20.8-10.4,4.5,20.8,1.5,25.2-5.6,10.7-11.1,9.6S76.36,43.22,76.36,43.22Z" transform="translate(-8.75 -9.12)"/></g><g id="Layer_4" data-name="Layer 4"><path class="cls-4" d="M45.06,64.92s-17.5-8.1-10.4-24c0,0,33.1,2.3,33.6,22.3,0,0-7.3-13.2,4.3-20.7,0,0,10.1-4,10.9-7.3a10.57,10.57,0,0,0,7.7,5.6c5.5.8,13.3,8.1,11,14.7l-1.5,4.3s-.5-16.9,34.1-23c0,0,5.3,19.5-9.3,24.5l-15.3,4.9Z" transform="translate(-8.75 -9.12)"/></g><g id="Layer_2" data-name="Layer 2"><path class="cls-5" d="M112.56,128.22s-48.8,8.5-70.8-38.9l82.2-.7C124,88.72,116.26,102.22,112.56,128.22Z" transform="translate(-8.75 -9.12)"/><path class="cls-5" d="M38.26,63.22H133s7.6-1.1,6.1,6.1-3.8,15.9-3.8,15.9H40.56S32.66,75.42,38.26,63.22Z" transform="translate(-8.75 -9.12)"/></g></svg>