<?xml version="1.0" encoding="utf-8"?>
<!-- Generator: Adobe Illustrator 25.4.1, SVG Export Plug-In . SVG Version: 6.00 Build 0)  -->
<svg version="1.1" id="Layer_1" xmlns="http://www.w3.org/2000/svg" xmlns:xlink="http://www.w3.org/1999/xlink" x="0px" y="0px"
	 viewBox="0 0 436 138" style="enable-background:new 0 0 436 138;" xml:space="preserve">
<style type="text/css">
	.st0{fill:#443633;}
	.st1{fill:#B3D6B0;}
	.st2{fill:#66AB5F;}
	.st3{fill:#3C6B37;}
	.st4{fill:#F7AF66;}
	.st5{enable-background:new    ;}
	.st6{fill:#3C6B36;}
	.st7{fill:#3D6B38;}
</style>
<g id="Layer_7">
	<path class="st0" d="M70.2,119.9c0,0-29.8-17.4-36.4-41.4c0,0-1.3-8.8,0-12.9c1.3-4,2.7-7.8-0.6-12.8S29.3,41,31.1,37
		c0,0-12.9,12-15.4,15.7c-4.5,6.8-3.9,17.6-0.5,25.7C19.3,88.4,28.5,111.3,70.2,119.9z"/>
</g>
<g id="Layer_6">
	<path class="st1" d="M64.3,23c0,0-0.9-6.2,5.9-11s7.1-8.1,7.1-8.1s3,5.3,8.1,6.8s10.6,7.6,8.3,10.1c-2.3,2.5-14,21-14,21l-10-1.5
		L64.3,23z"/>
	<path class="st1" d="M104.1,19.1c0,0,15.4-0.8,17.9-2.3c0,0-0.8,6.1,0,11.4s2.8,8.8,0,11.4c-2.8,2.5-16.2,10.6-16.2,10.6l-11-7.1
		L104.1,19.1z"/>
</g>
<g id="Layer_5">
	<path class="st2" d="M55.3,19.1c0,0-2,5.6-4.5,7.6s-4.5,10.9,0,14.4S71,52.7,71,52.7s3-15.4,3-19.2c0-3.8-2.5-9.6-13-11.1
		C61,22.3,55.8,21.3,55.3,19.1z"/>
	<path class="st2" d="M80.1,38c0,0-2.6-12.1,6.5-16.9s20.8-10.4,20.8-10.4s4.5,20.8,1.5,25.2s-5.6,10.7-11.1,9.6
		C92.2,44.3,80.1,38,80.1,38z"/>
</g>
<g id="Layer_4">
	<path class="st3" d="M48.8,59.7c0,0-17.5-8.1-10.4-24c0,0,33.1,2.3,33.6,22.3c0,0-7.3-13.2,4.3-20.7c0,0,10.1-4,10.9-7.3
		c0,0,2.2,4.8,7.7,5.6s13.3,8.1,11,14.7s-1.5,4.3-1.5,4.3s-0.5-16.9,34.1-23c0,0,5.3,19.5-9.3,24.5L113.9,61L48.8,59.7z"/>
</g>
<g id="Layer_2_00000106832669875973559310000000741580174642652320_">
	<path class="st4" d="M116.3,123c0,0-48.8,8.5-70.8-38.9l82.2-0.7C127.7,83.5,120,97,116.3,123z"/>
	<path class="st4" d="M42,58h94.7c0,0,7.6-1.1,6.1,6.1S139,80,139,80H44.3C44.3,80,36.4,70.2,42,58z"/>
</g>
<g id="Layer_8">
	<g class="st5">
		<path class="st6" d="M150.6,115.4c0,0,0,0.1,0,0.1s0,0.1,0,0.1c0,0,0,0.1,0,0.1s0,0.1-0.1,0.1c0,0,0,0-0.1,0.1s-0.1,0-0.1,0h-1.8
			l-0.8,4c0,0.1,0,0.2-0.1,0.4c0,0.1,0,0.3,0,0.4c0,0.3,0.1,0.5,0.2,0.6c0.1,0.1,0.3,0.2,0.6,0.2c0.1,0,0.3,0,0.4,0s0.2-0.1,0.3-0.1
			s0.1-0.1,0.2-0.1c0.1,0,0.1,0,0.1,0s0.1,0,0.1,0c0,0,0,0.1,0,0.1c0,0,0,0.1,0,0.2s0,0.1,0,0.2c0,0.1,0,0.1-0.1,0.1
			c0,0,0,0.1-0.1,0.1c0,0-0.1,0.1-0.2,0.1s-0.2,0.1-0.3,0.1c-0.1,0-0.2,0-0.3,0.1s-0.2,0-0.3,0c-0.3,0-0.5,0-0.7-0.1
			c-0.2-0.1-0.3-0.1-0.5-0.3c-0.1-0.1-0.2-0.3-0.3-0.5c-0.1-0.2-0.1-0.4-0.1-0.6c0-0.1,0-0.1,0-0.2c0-0.1,0-0.1,0-0.2
			c0-0.1,0-0.2,0-0.2s0-0.2,0-0.2l0.8-4h-1c0,0-0.1,0-0.1,0c0,0,0-0.1,0-0.2c0-0.1,0-0.1,0-0.2s0-0.1,0.1-0.2c0-0.1,0.1-0.1,0.1-0.1
			c0,0,0.1,0,0.1,0h1l0.3-1.6c0,0,0-0.1,0-0.1s0,0,0.1-0.1c0,0,0.1,0,0.1,0c0.1,0,0.1,0,0.2,0c0.1,0,0.2,0,0.2,0c0.1,0,0.1,0,0.1,0
			c0,0,0,0,0.1,0.1c0,0,0,0.1,0,0.1l-0.3,1.6h1.8c0.1,0,0.1,0,0.1,0.1C150.6,115.3,150.6,115.4,150.6,115.4z"/>
		<path class="st6" d="M156.2,122C156.2,122,156.2,122,156.2,122c-0.1,0.1-0.1,0.1-0.1,0.1c0,0-0.1,0-0.1,0c-0.1,0-0.1,0-0.2,0
			c-0.1,0-0.2,0-0.2,0s-0.1,0-0.1,0c0,0,0,0-0.1-0.1c0,0,0-0.1,0-0.1l0.8-4.2c0-0.1,0-0.3,0.1-0.5s0-0.3,0-0.5c0-0.2,0-0.3-0.1-0.4
			s-0.1-0.2-0.2-0.3c-0.1-0.1-0.2-0.2-0.3-0.2s-0.3-0.1-0.4-0.1c-0.3,0-0.6,0.1-0.9,0.2c-0.3,0.2-0.6,0.4-0.8,0.7
			c-0.3,0.3-0.5,0.6-0.7,1c-0.2,0.4-0.3,0.8-0.4,1.3l-0.6,2.9c0,0,0,0.1,0,0.1c0,0,0,0-0.1,0.1c0,0-0.1,0-0.1,0s-0.1,0-0.2,0
			c-0.1,0-0.2,0-0.2,0s-0.1,0-0.1,0c0,0,0,0-0.1-0.1c0,0,0-0.1,0-0.1l2-9.9c0,0,0-0.1,0-0.1s0,0,0.1-0.1c0,0,0.1,0,0.1,0
			c0.1,0,0.1,0,0.2,0c0.1,0,0.2,0,0.2,0c0.1,0,0.1,0,0.1,0c0,0,0,0,0.1,0.1c0,0,0,0.1,0,0.1l-0.6,3.2c0,0.1-0.1,0.3-0.1,0.4
			c0,0.1-0.1,0.3-0.1,0.4s-0.1,0.3-0.1,0.4c0,0.1-0.1,0.2-0.1,0.3c0.1-0.2,0.2-0.4,0.4-0.6c0.2-0.2,0.4-0.4,0.6-0.5
			c0.2-0.2,0.5-0.3,0.8-0.4c0.3-0.1,0.6-0.2,0.9-0.2c0.3,0,0.6,0,0.8,0.1c0.2,0.1,0.4,0.2,0.5,0.4c0.1,0.2,0.2,0.3,0.3,0.5
			c0.1,0.2,0.1,0.4,0.1,0.7c0,0.2,0,0.3,0,0.5c0,0.2,0,0.3-0.1,0.5L156.2,122z"/>
		<path class="st6" d="M164.6,116.6c0,0.3-0.1,0.6-0.2,0.9c-0.2,0.3-0.4,0.5-0.7,0.7s-0.8,0.3-1.3,0.4c-0.5,0.1-1.1,0.2-1.9,0.2
			h-0.8c0,0.2-0.1,0.4-0.1,0.5s0,0.3,0,0.5c0,0.5,0.1,1,0.4,1.2c0.3,0.3,0.7,0.4,1.3,0.4c0.3,0,0.6,0,0.8-0.1c0.2,0,0.5-0.1,0.6-0.1
			c0.2-0.1,0.3-0.1,0.4-0.2c0.1,0,0.2-0.1,0.2-0.1s0.1,0,0.1,0c0,0,0,0.1,0,0.1c0,0,0,0.1,0,0.1c0,0,0,0.1,0,0.1
			c0,0.1,0,0.1-0.1,0.2c0,0.1-0.1,0.1-0.1,0.1c-0.1,0.1-0.2,0.1-0.3,0.2c-0.1,0.1-0.3,0.1-0.5,0.2s-0.4,0.1-0.6,0.1s-0.5,0-0.7,0
			c-0.4,0-0.8-0.1-1.1-0.2c-0.3-0.1-0.6-0.2-0.8-0.5c-0.2-0.2-0.4-0.5-0.5-0.8c-0.1-0.3-0.2-0.7-0.2-1.1c0-0.3,0-0.6,0.1-1
			c0.1-0.4,0.2-0.7,0.3-1.1c0.1-0.4,0.3-0.7,0.5-1c0.2-0.3,0.4-0.6,0.7-0.9c0.3-0.2,0.6-0.4,1-0.6c0.4-0.1,0.8-0.2,1.3-0.2
			c0.4,0,0.7,0,1,0.2c0.3,0.1,0.5,0.2,0.7,0.4c0.2,0.2,0.3,0.3,0.4,0.5S164.6,116.5,164.6,116.6z M163.7,116.7
			c0-0.3-0.1-0.5-0.3-0.7c-0.2-0.2-0.5-0.3-0.9-0.3c-0.4,0-0.7,0.1-0.9,0.2c-0.3,0.1-0.5,0.3-0.7,0.5s-0.4,0.4-0.5,0.7
			c-0.1,0.3-0.3,0.6-0.4,0.9h0.8c0.6,0,1.1,0,1.5-0.1c0.4-0.1,0.7-0.2,0.9-0.3c0.2-0.1,0.4-0.3,0.5-0.4
			C163.7,117.1,163.7,116.9,163.7,116.7z"/>
		<path class="st6" d="M174.1,122.6c-0.1,0.4-0.2,0.7-0.4,0.9c-0.2,0.3-0.4,0.5-0.6,0.7c-0.3,0.2-0.5,0.3-0.9,0.4
			c-0.3,0.1-0.7,0.1-1.1,0.1c-0.4,0-0.8,0-1.1-0.1s-0.6-0.2-0.8-0.3c-0.1,0-0.1-0.1-0.2-0.1c0,0,0-0.1,0-0.2c0,0,0-0.1,0-0.1
			c0,0,0-0.1,0-0.1c0,0,0-0.1,0-0.1c0,0,0-0.1,0.1-0.1c0,0,0-0.1,0.1-0.1c0,0,0.1,0,0.1,0c0.1,0,0.1,0,0.2,0.1s0.2,0.1,0.4,0.2
			c0.1,0.1,0.3,0.1,0.6,0.2c0.2,0.1,0.5,0.1,0.8,0.1c0.3,0,0.5,0,0.7-0.1s0.4-0.1,0.6-0.3c0.2-0.1,0.3-0.3,0.4-0.5s0.2-0.4,0.2-0.6
			c0.1-0.5,0.2-0.9,0.3-1.3c0.1-0.3,0.2-0.6,0.2-0.8c-0.1,0.2-0.2,0.4-0.4,0.6c-0.2,0.2-0.4,0.4-0.6,0.5c-0.2,0.2-0.5,0.3-0.8,0.4
			c-0.3,0.1-0.6,0.2-0.9,0.2c-0.4,0-0.7-0.1-0.9-0.2c-0.2-0.1-0.5-0.3-0.6-0.5c-0.2-0.2-0.3-0.5-0.3-0.7c-0.1-0.3-0.1-0.6-0.1-0.9
			c0-0.3,0-0.6,0.1-0.9c0.1-0.3,0.1-0.7,0.2-1.1c0.1-0.4,0.3-0.7,0.4-1.1c0.2-0.3,0.4-0.7,0.7-0.9c0.3-0.3,0.6-0.5,0.9-0.7
			c0.3-0.2,0.7-0.2,1.1-0.2c0.5,0,0.8,0.1,1.1,0.3c0.3,0.2,0.6,0.4,0.8,0.7l0.2-0.7c0-0.1,0.1-0.1,0.1-0.1c0.1,0,0.2,0,0.3,0
			c0.1,0,0.1,0,0.2,0c0,0,0.1,0,0.1,0c0,0,0,0,0.1,0.1c0,0,0,0.1,0,0.1L174.1,122.6z M174.3,116.9c-0.3-0.4-0.5-0.7-0.8-0.8
			c-0.3-0.2-0.6-0.3-1-0.3c-0.3,0-0.6,0.1-0.8,0.2s-0.4,0.3-0.6,0.5s-0.3,0.5-0.5,0.8c-0.1,0.3-0.2,0.6-0.3,0.9
			c-0.1,0.3-0.1,0.6-0.2,0.9s-0.1,0.5-0.1,0.8s0,0.4,0.1,0.6c0,0.2,0.1,0.4,0.2,0.5c0.1,0.1,0.2,0.3,0.4,0.3s0.3,0.1,0.5,0.1
			c0.3,0,0.6-0.1,0.9-0.2c0.3-0.2,0.6-0.4,0.8-0.7c0.3-0.3,0.5-0.6,0.7-1c0.2-0.4,0.3-0.8,0.4-1.3L174.3,116.9z"/>
		<path class="st6" d="M181.5,115.4C181.5,115.4,181.5,115.5,181.5,115.4c0,0.1,0,0.2,0,0.2c0,0,0,0.1,0,0.2s0,0.1-0.1,0.1
			c0,0,0,0.1-0.1,0.1s-0.1,0-0.1,0s-0.1,0-0.1,0c0,0-0.1,0-0.2-0.1c-0.1,0-0.1,0-0.2-0.1s-0.2,0-0.3,0c-0.2,0-0.4,0.1-0.6,0.2
			c-0.2,0.2-0.5,0.4-0.7,0.7s-0.4,0.6-0.6,1c-0.2,0.4-0.3,0.8-0.4,1.3l-0.6,2.9c0,0,0,0.1,0,0.1c0,0,0,0-0.1,0.1c0,0-0.1,0-0.1,0
			s-0.1,0-0.2,0c-0.1,0-0.2,0-0.2,0s-0.1,0-0.1,0c0,0,0,0-0.1-0.1c0,0,0-0.1,0-0.1l1.3-6.6c0,0,0-0.1,0-0.1s0,0,0.1-0.1
			c0,0,0.1,0,0.1,0c0.1,0,0.1,0,0.2,0s0.1,0,0.2,0c0,0,0.1,0,0.1,0c0,0,0,0,0.1,0.1c0,0,0,0.1,0,0.1l-0.3,1.3
			c0.1-0.2,0.2-0.4,0.4-0.6c0.2-0.2,0.3-0.4,0.5-0.5c0.2-0.1,0.4-0.3,0.6-0.3c0.2-0.1,0.4-0.1,0.6-0.1c0.1,0,0.2,0,0.3,0
			c0.1,0,0.2,0,0.3,0c0.1,0,0.1,0,0.2,0.1c0.1,0,0.1,0.1,0.1,0.1C181.5,115.3,181.5,115.3,181.5,115.4z"/>
		<path class="st6" d="M187.7,116.6c0,0.3-0.1,0.6-0.2,0.9c-0.2,0.3-0.4,0.5-0.7,0.7s-0.8,0.3-1.3,0.4c-0.5,0.1-1.1,0.2-1.9,0.2
			h-0.8c0,0.2-0.1,0.4-0.1,0.5s0,0.3,0,0.5c0,0.5,0.1,1,0.4,1.2c0.3,0.3,0.7,0.4,1.3,0.4c0.3,0,0.6,0,0.8-0.1c0.2,0,0.5-0.1,0.6-0.1
			c0.2-0.1,0.3-0.1,0.4-0.2c0.1,0,0.2-0.1,0.2-0.1s0.1,0,0.1,0c0,0,0,0.1,0,0.1c0,0,0,0.1,0,0.1c0,0,0,0.1,0,0.1
			c0,0.1,0,0.1-0.1,0.2c0,0.1-0.1,0.1-0.1,0.1c-0.1,0.1-0.2,0.1-0.3,0.2c-0.1,0.1-0.3,0.1-0.5,0.2s-0.4,0.1-0.6,0.1s-0.5,0-0.7,0
			c-0.4,0-0.8-0.1-1.1-0.2c-0.3-0.1-0.6-0.2-0.8-0.5c-0.2-0.2-0.4-0.5-0.5-0.8c-0.1-0.3-0.2-0.7-0.2-1.1c0-0.3,0-0.6,0.1-1
			c0.1-0.4,0.2-0.7,0.3-1.1c0.1-0.4,0.3-0.7,0.5-1c0.2-0.3,0.4-0.6,0.7-0.9c0.3-0.2,0.6-0.4,1-0.6c0.4-0.1,0.8-0.2,1.3-0.2
			c0.4,0,0.7,0,1,0.2c0.3,0.1,0.5,0.2,0.7,0.4c0.2,0.2,0.3,0.3,0.4,0.5S187.7,116.5,187.7,116.6z M186.8,116.7
			c0-0.3-0.1-0.5-0.3-0.7c-0.2-0.2-0.5-0.3-0.9-0.3c-0.4,0-0.7,0.1-0.9,0.2c-0.3,0.1-0.5,0.3-0.7,0.5s-0.4,0.4-0.5,0.7
			c-0.1,0.3-0.3,0.6-0.4,0.9h0.8c0.6,0,1.1,0,1.5-0.1c0.4-0.1,0.7-0.2,0.9-0.3c0.2-0.1,0.4-0.3,0.5-0.4
			C186.8,117.1,186.8,116.9,186.8,116.7z"/>
		<path class="st6" d="M194.8,116.6c0,0.3-0.1,0.6-0.2,0.9c-0.2,0.3-0.4,0.5-0.7,0.7s-0.8,0.3-1.3,0.4c-0.5,0.1-1.1,0.2-1.9,0.2
			h-0.8c0,0.2-0.1,0.4-0.1,0.5s0,0.3,0,0.5c0,0.5,0.1,1,0.4,1.2c0.3,0.3,0.7,0.4,1.3,0.4c0.3,0,0.6,0,0.8-0.1c0.2,0,0.5-0.1,0.6-0.1
			c0.2-0.1,0.3-0.1,0.4-0.2c0.1,0,0.2-0.1,0.2-0.1s0.1,0,0.1,0c0,0,0,0.1,0,0.1c0,0,0,0.1,0,0.1c0,0,0,0.1,0,0.1
			c0,0.1,0,0.1-0.1,0.2c0,0.1-0.1,0.1-0.1,0.1c-0.1,0.1-0.2,0.1-0.3,0.2c-0.1,0.1-0.3,0.1-0.5,0.2s-0.4,0.1-0.6,0.1s-0.5,0-0.7,0
			c-0.4,0-0.8-0.1-1.1-0.2c-0.3-0.1-0.6-0.2-0.8-0.5c-0.2-0.2-0.4-0.5-0.5-0.8c-0.1-0.3-0.2-0.7-0.2-1.1c0-0.3,0-0.6,0.1-1
			c0.1-0.4,0.2-0.7,0.3-1.1c0.1-0.4,0.3-0.7,0.5-1c0.2-0.3,0.4-0.6,0.7-0.9c0.3-0.2,0.6-0.4,1-0.6c0.4-0.1,0.8-0.2,1.3-0.2
			c0.4,0,0.7,0,1,0.2c0.3,0.1,0.5,0.2,0.7,0.4c0.2,0.2,0.3,0.3,0.4,0.5S194.8,116.5,194.8,116.6z M193.9,116.7
			c0-0.3-0.1-0.5-0.3-0.7c-0.2-0.2-0.5-0.3-0.9-0.3c-0.4,0-0.7,0.1-0.9,0.2c-0.3,0.1-0.5,0.3-0.7,0.5s-0.4,0.4-0.5,0.7
			c-0.1,0.3-0.3,0.6-0.4,0.9h0.8c0.6,0,1.1,0,1.5-0.1c0.4-0.1,0.7-0.2,0.9-0.3c0.2-0.1,0.4-0.3,0.5-0.4
			C193.8,117.1,193.9,116.9,193.9,116.7z"/>
		<path class="st6" d="M201.9,116.8c0,0.2,0,0.3,0,0.5c0,0.2,0,0.3-0.1,0.5L201,122c0,0,0,0.1,0,0.1c0,0,0,0-0.1,0.1
			c0,0-0.1,0-0.1,0c-0.1,0-0.1,0-0.2,0c-0.1,0-0.2,0-0.2,0s-0.1,0-0.1,0c0,0,0,0-0.1-0.1c0,0,0-0.1,0-0.1l0.8-4.2
			c0-0.2,0.1-0.3,0.1-0.5s0-0.3,0-0.4c0-0.3-0.1-0.6-0.2-0.8s-0.4-0.3-0.7-0.3c-0.3,0-0.6,0.1-0.9,0.2c-0.3,0.2-0.6,0.4-0.8,0.7
			c-0.3,0.3-0.5,0.6-0.7,1s-0.3,0.8-0.4,1.3l-0.6,2.9c0,0,0,0.1,0,0.1c0,0,0,0-0.1,0.1c0,0-0.1,0-0.1,0s-0.1,0-0.2,0
			c-0.1,0-0.2,0-0.2,0s-0.1,0-0.1,0c0,0,0,0-0.1-0.1c0,0,0-0.1,0-0.1l1.3-6.6c0,0,0-0.1,0-0.1c0,0,0,0,0.1-0.1c0,0,0.1,0,0.1,0
			c0.1,0,0.1,0,0.2,0s0.1,0,0.2,0c0,0,0.1,0,0.1,0c0,0,0,0,0.1,0.1c0,0,0,0.1,0,0.1l-0.3,1.4c0.1-0.2,0.2-0.3,0.3-0.5
			c0.2-0.2,0.4-0.4,0.6-0.5c0.2-0.2,0.5-0.3,0.8-0.4s0.6-0.2,0.9-0.2c0.3,0,0.6,0,0.8,0.1s0.4,0.2,0.5,0.4c0.1,0.2,0.2,0.3,0.3,0.6
			C201.9,116.4,201.9,116.6,201.9,116.8z"/>
		<path class="st6" d="M208.6,122C208.6,122,208.6,122,208.6,122c-0.1,0.1-0.1,0.1-0.1,0.1c0,0-0.1,0-0.1,0c-0.1,0-0.1,0-0.2,0
			c-0.1,0-0.2,0-0.2,0s-0.1,0-0.1,0c0,0,0,0-0.1-0.1c0,0,0-0.1,0-0.1l0.8-4.2c0-0.1,0-0.3,0.1-0.5s0-0.3,0-0.5c0-0.2,0-0.3-0.1-0.4
			s-0.1-0.2-0.2-0.3c-0.1-0.1-0.2-0.2-0.3-0.2s-0.3-0.1-0.4-0.1c-0.3,0-0.6,0.1-0.9,0.2c-0.3,0.2-0.6,0.4-0.8,0.7
			c-0.3,0.3-0.5,0.6-0.7,1c-0.2,0.4-0.3,0.8-0.4,1.3l-0.6,2.9c0,0,0,0.1,0,0.1c0,0,0,0-0.1,0.1c0,0-0.1,0-0.1,0s-0.1,0-0.2,0
			c-0.1,0-0.2,0-0.2,0s-0.1,0-0.1,0c0,0,0,0-0.1-0.1c0,0,0-0.1,0-0.1l2-9.9c0,0,0-0.1,0-0.1s0,0,0.1-0.1c0,0,0.1,0,0.1,0
			c0.1,0,0.1,0,0.2,0c0.1,0,0.2,0,0.2,0c0.1,0,0.1,0,0.1,0c0,0,0,0,0.1,0.1c0,0,0,0.1,0,0.1l-0.6,3.2c0,0.1-0.1,0.3-0.1,0.4
			c0,0.1-0.1,0.3-0.1,0.4s-0.1,0.3-0.1,0.4c0,0.1-0.1,0.2-0.1,0.3c0.1-0.2,0.2-0.4,0.4-0.6c0.2-0.2,0.4-0.4,0.6-0.5
			c0.2-0.2,0.5-0.3,0.8-0.4c0.3-0.1,0.6-0.2,0.9-0.2c0.3,0,0.6,0,0.8,0.1c0.2,0.1,0.4,0.2,0.5,0.4c0.1,0.2,0.2,0.3,0.3,0.5
			c0.1,0.2,0.1,0.4,0.1,0.7c0,0.2,0,0.3,0,0.5c0,0.2,0,0.3-0.1,0.5L208.6,122z"/>
		<path class="st6" d="M217.4,117.5c0,0.4,0,0.7-0.1,1.1s-0.2,0.7-0.3,1.1c-0.1,0.3-0.3,0.7-0.5,1c-0.2,0.3-0.5,0.6-0.7,0.8
			c-0.3,0.2-0.6,0.4-0.9,0.5s-0.7,0.2-1.2,0.2c-0.5,0-0.8-0.1-1.2-0.2s-0.6-0.3-0.8-0.5c-0.2-0.2-0.4-0.5-0.5-0.8
			c-0.1-0.3-0.1-0.6-0.1-1c0-0.4,0-0.7,0.1-1.1s0.2-0.7,0.3-1.1c0.1-0.3,0.3-0.7,0.5-1c0.2-0.3,0.5-0.6,0.7-0.8s0.6-0.4,0.9-0.5
			c0.4-0.1,0.7-0.2,1.2-0.2c0.5,0,0.8,0.1,1.2,0.2c0.3,0.1,0.6,0.3,0.8,0.5c0.2,0.2,0.4,0.5,0.5,0.8
			C217.4,116.8,217.4,117.1,217.4,117.5z M216.5,117.6c0-0.3,0-0.5-0.1-0.7s-0.2-0.4-0.3-0.5c-0.1-0.1-0.3-0.3-0.5-0.3
			c-0.2-0.1-0.5-0.1-0.8-0.1c-0.3,0-0.6,0.1-0.9,0.2c-0.3,0.1-0.5,0.3-0.7,0.4c-0.2,0.2-0.4,0.4-0.5,0.7c-0.2,0.3-0.3,0.5-0.4,0.8
			c-0.1,0.3-0.2,0.6-0.2,0.9c0,0.3-0.1,0.6-0.1,0.9c0,0.3,0,0.5,0.1,0.7c0.1,0.2,0.2,0.4,0.3,0.5c0.1,0.1,0.3,0.3,0.5,0.3
			c0.2,0.1,0.5,0.1,0.8,0.1c0.3,0,0.6-0.1,0.9-0.2c0.3-0.1,0.5-0.3,0.7-0.5c0.2-0.2,0.4-0.4,0.5-0.7c0.2-0.3,0.3-0.5,0.4-0.8
			c0.1-0.3,0.2-0.6,0.2-0.9S216.5,117.9,216.5,117.6z"/>
		<path class="st6" d="M223.8,122C223.7,122,223.7,122,223.8,122c-0.1,0.1-0.1,0.1-0.1,0.1c0,0-0.1,0-0.1,0s-0.1,0-0.2,0
			s-0.1,0-0.2,0s-0.1,0-0.1,0c0,0,0,0-0.1-0.1c0,0,0-0.1,0-0.1l0.3-1.3c-0.1,0.2-0.2,0.3-0.3,0.5c-0.2,0.2-0.4,0.4-0.6,0.5
			c-0.2,0.2-0.5,0.3-0.8,0.4c-0.3,0.1-0.6,0.2-0.8,0.2c-0.3,0-0.6,0-0.8-0.1c-0.2-0.1-0.4-0.2-0.5-0.4c-0.1-0.2-0.2-0.3-0.3-0.5
			c-0.1-0.2-0.1-0.4-0.1-0.7c0-0.2,0-0.3,0-0.5s0-0.3,0.1-0.5l0.8-4.2c0,0,0-0.1,0-0.1s0,0,0.1-0.1c0,0,0.1,0,0.1,0
			c0.1,0,0.1,0,0.2,0s0.2,0,0.2,0c0.1,0,0.1,0,0.1,0c0,0,0,0,0.1,0.1s0,0.1,0,0.1l-0.8,4.2c0,0.1-0.1,0.3-0.1,0.4c0,0.1,0,0.3,0,0.5
			c0,0.2,0,0.3,0,0.4c0,0.1,0.1,0.3,0.2,0.4c0.1,0.1,0.2,0.2,0.3,0.2c0.1,0.1,0.3,0.1,0.4,0.1c0.3,0,0.6-0.1,0.9-0.2
			c0.3-0.2,0.6-0.4,0.8-0.7c0.3-0.3,0.5-0.6,0.7-1c0.2-0.4,0.3-0.8,0.4-1.3l0.6-3c0,0,0-0.1,0-0.1s0,0,0.1-0.1c0,0,0.1,0,0.1,0
			c0.1,0,0.1,0,0.2,0c0.1,0,0.2,0,0.2,0c0.1,0,0.1,0,0.1,0c0,0,0,0,0.1,0.1c0,0,0,0.1,0,0.1L223.8,122z"/>
		<path class="st6" d="M231,115.7c0,0,0,0.1,0,0.2c0,0.1,0,0.1-0.1,0.2c0,0.1-0.1,0.1-0.1,0.1c0,0-0.1,0.1-0.1,0.1
			c-0.1,0-0.1,0-0.2-0.1c-0.1,0-0.2-0.1-0.3-0.2c-0.1-0.1-0.3-0.1-0.4-0.2c-0.2,0-0.4-0.1-0.6-0.1c-0.2,0-0.5,0-0.6,0.1
			c-0.2,0.1-0.3,0.2-0.5,0.3c-0.1,0.1-0.2,0.3-0.3,0.4c-0.1,0.2-0.1,0.3-0.1,0.5c0,0.2,0.1,0.4,0.2,0.5c0.1,0.1,0.3,0.3,0.5,0.4
			c0.2,0.1,0.4,0.2,0.6,0.3c0.2,0.1,0.4,0.2,0.6,0.4c0.2,0.1,0.4,0.3,0.5,0.5c0.1,0.2,0.2,0.4,0.2,0.8c0,0.3-0.1,0.6-0.2,0.9
			c-0.1,0.3-0.3,0.5-0.6,0.7c-0.2,0.2-0.5,0.4-0.9,0.5c-0.3,0.1-0.7,0.2-1.1,0.2c-0.2,0-0.4,0-0.6-0.1c-0.2,0-0.4-0.1-0.5-0.1
			c-0.2-0.1-0.3-0.1-0.4-0.2s-0.2-0.1-0.3-0.2c0,0-0.1-0.1-0.1-0.1c0,0,0-0.1,0-0.1c0,0,0-0.1,0-0.1c0,0,0-0.1,0-0.1
			c0,0,0-0.1,0-0.1s0-0.1,0.1-0.1c0,0,0-0.1,0.1-0.1c0,0,0,0,0.1,0c0.1,0,0.1,0,0.2,0.1s0.2,0.1,0.3,0.2c0.1,0.1,0.3,0.2,0.5,0.2
			c0.2,0.1,0.5,0.1,0.8,0.1s0.6,0,0.8-0.1c0.2-0.1,0.4-0.2,0.5-0.3c0.1-0.1,0.2-0.3,0.3-0.4s0.1-0.3,0.1-0.5c0-0.2-0.1-0.4-0.2-0.5
			s-0.3-0.3-0.5-0.4s-0.4-0.2-0.6-0.3c-0.2-0.1-0.4-0.2-0.6-0.4c-0.2-0.1-0.4-0.3-0.5-0.5c-0.1-0.2-0.2-0.5-0.2-0.8
			c0-0.3,0.1-0.6,0.2-0.9s0.3-0.5,0.5-0.7s0.5-0.3,0.8-0.4c0.3-0.1,0.6-0.2,1-0.2c0.2,0,0.3,0,0.5,0c0.2,0,0.3,0.1,0.5,0.1
			c0.1,0,0.3,0.1,0.4,0.2c0.1,0.1,0.2,0.1,0.2,0.2C231,115.6,231,115.7,231,115.7z"/>
		<path class="st6" d="M238,116.6c0,0.3-0.1,0.6-0.2,0.9c-0.2,0.3-0.4,0.5-0.7,0.7s-0.8,0.3-1.3,0.4c-0.5,0.1-1.1,0.2-1.9,0.2h-0.8
			c0,0.2-0.1,0.4-0.1,0.5s0,0.3,0,0.5c0,0.5,0.1,1,0.4,1.2c0.3,0.3,0.7,0.4,1.3,0.4c0.3,0,0.6,0,0.8-0.1c0.2,0,0.5-0.1,0.6-0.1
			c0.2-0.1,0.3-0.1,0.4-0.2c0.1,0,0.2-0.1,0.2-0.1s0.1,0,0.1,0c0,0,0,0.1,0,0.1c0,0,0,0.1,0,0.1c0,0,0,0.1,0,0.1
			c0,0.1,0,0.1-0.1,0.2c0,0.1-0.1,0.1-0.1,0.1c-0.1,0.1-0.2,0.1-0.3,0.2c-0.1,0.1-0.3,0.1-0.5,0.2s-0.4,0.1-0.6,0.1s-0.5,0-0.7,0
			c-0.4,0-0.8-0.1-1.1-0.2c-0.3-0.1-0.6-0.2-0.8-0.5c-0.2-0.2-0.4-0.5-0.5-0.8c-0.1-0.3-0.2-0.7-0.2-1.1c0-0.3,0-0.6,0.1-1
			c0.1-0.4,0.2-0.7,0.3-1.1c0.1-0.4,0.3-0.7,0.5-1c0.2-0.3,0.4-0.6,0.7-0.9c0.3-0.2,0.6-0.4,1-0.6c0.4-0.1,0.8-0.2,1.3-0.2
			c0.4,0,0.7,0,1,0.2c0.3,0.1,0.5,0.2,0.7,0.4c0.2,0.2,0.3,0.3,0.4,0.5C238,116.3,238,116.5,238,116.6z M237.1,116.7
			c0-0.3-0.1-0.5-0.3-0.7c-0.2-0.2-0.5-0.3-0.9-0.3c-0.4,0-0.7,0.1-0.9,0.2c-0.3,0.1-0.5,0.3-0.7,0.5s-0.4,0.4-0.5,0.7
			c-0.1,0.3-0.3,0.6-0.4,0.9h0.8c0.6,0,1.1,0,1.5-0.1c0.4-0.1,0.7-0.2,0.9-0.3c0.2-0.1,0.4-0.3,0.5-0.4
			C237.1,117.1,237.1,116.9,237.1,116.7z"/>
		<path class="st6" d="M247.8,112.3C247.8,112.3,247.8,112.4,247.8,112.3c0,0.1,0,0.1,0,0.2c0,0,0,0.1,0,0.1s0,0.1,0,0.1
			c0,0,0,0.1-0.1,0.1c0,0,0,0-0.1,0c0,0-0.1,0-0.1,0c-0.1,0-0.1,0-0.2-0.1c-0.1,0-0.2,0-0.3-0.1c-0.1,0-0.2,0-0.3,0
			c-0.2,0-0.4,0-0.6,0.1c-0.2,0.1-0.3,0.2-0.4,0.3c-0.1,0.2-0.2,0.3-0.3,0.6c-0.1,0.2-0.2,0.5-0.2,0.8l-0.1,0.7h1.6c0,0,0.1,0,0.1,0
			c0,0,0,0.1,0,0.2c0,0.1,0,0.1,0,0.2c0,0,0,0.1,0,0.1s0,0.1-0.1,0.1c0,0,0,0.1-0.1,0.1c0,0,0,0-0.1,0.1c0,0-0.1,0-0.1,0h-1.6
			l-1.3,6.5c-0.1,0.4-0.2,0.8-0.3,1.1c-0.1,0.3-0.3,0.5-0.5,0.7c-0.2,0.2-0.4,0.3-0.7,0.4c-0.3,0.1-0.5,0.1-0.8,0.1
			c-0.2,0-0.4,0-0.5,0c-0.1,0-0.2-0.1-0.2-0.1c0,0,0,0,0-0.1c0,0,0-0.1,0-0.1c0,0,0,0,0-0.1c0,0,0-0.1,0-0.1c0,0,0-0.1,0-0.1
			c0,0,0-0.1,0-0.1c0,0,0-0.1,0.1-0.1s0,0,0.1,0c0,0,0.1,0,0.1,0c0,0,0.1,0,0.1,0c0,0,0.1,0,0.1,0c0.1,0,0.1,0,0.2,0
			c0.2,0,0.4,0,0.6-0.1s0.3-0.2,0.4-0.3s0.2-0.3,0.3-0.6c0.1-0.2,0.2-0.5,0.2-0.8l1.3-6.3h-1c0,0-0.1,0-0.1,0c0,0,0-0.1,0-0.1
			c0,0,0-0.1,0-0.1c0,0,0-0.1,0-0.1c0,0,0-0.1,0-0.1c0,0,0-0.1,0.1-0.1c0,0,0,0,0.1-0.1c0,0,0.1,0,0.1,0h1l0.2-1
			c0.1-0.4,0.2-0.7,0.3-1c0.1-0.3,0.3-0.5,0.5-0.7c0.2-0.2,0.4-0.3,0.7-0.4c0.3-0.1,0.5-0.1,0.8-0.1c0.1,0,0.2,0,0.3,0
			c0.1,0,0.2,0,0.3,0.1c0.1,0,0.2,0,0.3,0.1s0.1,0.1,0.2,0.1c0,0,0,0.1,0.1,0.1C247.8,112.2,247.8,112.3,247.8,112.3z"/>
		<path class="st6" d="M253.1,117.5c0,0.4,0,0.7-0.1,1.1s-0.2,0.7-0.3,1.1c-0.1,0.3-0.3,0.7-0.5,1c-0.2,0.3-0.5,0.6-0.7,0.8
			c-0.3,0.2-0.6,0.4-0.9,0.5s-0.7,0.2-1.2,0.2c-0.5,0-0.8-0.1-1.2-0.2c-0.3-0.1-0.6-0.3-0.8-0.5c-0.2-0.2-0.4-0.5-0.5-0.8
			c-0.1-0.3-0.1-0.6-0.1-1c0-0.4,0-0.7,0.1-1.1s0.2-0.7,0.3-1.1c0.1-0.3,0.3-0.7,0.5-1c0.2-0.3,0.5-0.6,0.7-0.8
			c0.3-0.2,0.6-0.4,0.9-0.5c0.4-0.1,0.7-0.2,1.2-0.2c0.5,0,0.8,0.1,1.2,0.2c0.3,0.1,0.6,0.3,0.8,0.5c0.2,0.2,0.4,0.5,0.5,0.8
			C253,116.8,253.1,117.1,253.1,117.5z M252.2,117.6c0-0.3,0-0.5-0.1-0.7s-0.2-0.4-0.3-0.5c-0.1-0.1-0.3-0.3-0.5-0.3
			c-0.2-0.1-0.5-0.1-0.8-0.1c-0.3,0-0.6,0.1-0.9,0.2c-0.3,0.1-0.5,0.3-0.7,0.4c-0.2,0.2-0.4,0.4-0.5,0.7c-0.2,0.3-0.3,0.5-0.4,0.8
			c-0.1,0.3-0.2,0.6-0.2,0.9c0,0.3-0.1,0.6-0.1,0.9c0,0.3,0,0.5,0.1,0.7c0.1,0.2,0.2,0.4,0.3,0.5c0.1,0.1,0.3,0.3,0.5,0.3
			c0.2,0.1,0.5,0.1,0.8,0.1c0.3,0,0.6-0.1,0.9-0.2c0.3-0.1,0.5-0.3,0.7-0.5c0.2-0.2,0.4-0.4,0.5-0.7c0.2-0.3,0.3-0.5,0.4-0.8
			c0.1-0.3,0.2-0.6,0.2-0.9S252.2,117.9,252.2,117.6z"/>
		<path class="st6" d="M259.1,115.4C259.1,115.4,259.1,115.5,259.1,115.4c0,0.1,0,0.2,0,0.2c0,0,0,0.1,0,0.2s0,0.1-0.1,0.1
			c0,0,0,0.1-0.1,0.1s-0.1,0-0.1,0s-0.1,0-0.1,0c0,0-0.1,0-0.2-0.1c-0.1,0-0.1,0-0.2-0.1s-0.2,0-0.3,0c-0.2,0-0.4,0.1-0.6,0.2
			c-0.2,0.2-0.5,0.4-0.7,0.7c-0.2,0.3-0.4,0.6-0.6,1c-0.2,0.4-0.3,0.8-0.4,1.3l-0.6,2.9c0,0,0,0.1,0,0.1c0,0,0,0-0.1,0.1
			c0,0-0.1,0-0.1,0s-0.1,0-0.2,0c-0.1,0-0.2,0-0.2,0s-0.1,0-0.1,0c0,0,0,0-0.1-0.1c0,0,0-0.1,0-0.1l1.3-6.6c0,0,0-0.1,0-0.1
			s0,0,0.1-0.1c0,0,0.1,0,0.1,0c0.1,0,0.1,0,0.2,0s0.1,0,0.2,0c0,0,0.1,0,0.1,0c0,0,0,0,0.1,0.1c0,0,0,0.1,0,0.1l-0.3,1.3
			c0.1-0.2,0.2-0.4,0.4-0.6c0.2-0.2,0.3-0.4,0.5-0.5c0.2-0.1,0.4-0.3,0.6-0.3c0.2-0.1,0.4-0.1,0.6-0.1c0.1,0,0.2,0,0.3,0
			c0.1,0,0.2,0,0.3,0c0.1,0,0.1,0,0.2,0.1c0.1,0,0.1,0.1,0.1,0.1C259.1,115.3,259.1,115.3,259.1,115.4z"/>
		<path class="st6" d="M267.9,122c0,0.1-0.1,0.1-0.1,0.1s-0.2,0-0.3,0c-0.1,0-0.1,0-0.2,0c0,0-0.1,0-0.1,0s0,0-0.1-0.1s0-0.1,0-0.1
			l0.3-1.4c-0.1,0.2-0.2,0.3-0.3,0.5s-0.4,0.4-0.6,0.5c-0.2,0.2-0.5,0.3-0.8,0.4c-0.3,0.1-0.6,0.2-0.9,0.2c-0.4,0-0.7-0.1-1-0.2
			c-0.3-0.1-0.5-0.3-0.6-0.5c-0.1-0.2-0.2-0.5-0.3-0.7c-0.1-0.3-0.1-0.6-0.1-0.8c0-0.3,0-0.6,0.1-0.9c0-0.3,0.1-0.7,0.2-1
			c0.1-0.4,0.3-0.7,0.4-1.1c0.2-0.3,0.4-0.7,0.6-0.9c0.3-0.3,0.6-0.5,0.9-0.7c0.3-0.2,0.7-0.3,1.2-0.3c0.5,0,0.8,0.1,1.1,0.3
			c0.3,0.2,0.6,0.4,0.8,0.7l0.2-0.7c0-0.1,0.1-0.1,0.1-0.1c0.1,0,0.2,0,0.3,0c0.1,0,0.1,0,0.2,0c0,0,0.1,0,0.1,0c0,0,0,0,0.1,0.1
			c0,0,0,0.1,0,0.1L267.9,122z M268,116.9c-0.3-0.4-0.5-0.7-0.8-0.8c-0.3-0.2-0.6-0.3-1-0.3c-0.3,0-0.6,0.1-0.8,0.2
			c-0.2,0.1-0.4,0.3-0.6,0.5c-0.2,0.2-0.3,0.5-0.5,0.8c-0.1,0.3-0.2,0.6-0.3,0.9c-0.1,0.3-0.1,0.6-0.2,0.9s-0.1,0.5-0.1,0.8
			c0,0.2,0,0.4,0,0.6c0,0.2,0.1,0.4,0.2,0.5c0.1,0.2,0.2,0.3,0.4,0.4c0.2,0.1,0.3,0.1,0.6,0.1c0.3,0,0.6-0.1,0.9-0.2
			c0.3-0.2,0.6-0.4,0.8-0.7c0.3-0.3,0.5-0.6,0.7-1c0.2-0.4,0.3-0.8,0.4-1.3L268,116.9z"/>
		<path class="st6" d="M271.2,122C271.2,122,271.2,122,271.2,122c-0.1,0.1-0.1,0.1-0.1,0.1c0,0-0.1,0-0.1,0s-0.1,0-0.2,0
			c-0.1,0-0.2,0-0.2,0s-0.1,0-0.1,0c0,0,0,0-0.1-0.1c0,0,0-0.1,0-0.1l2-9.9c0,0,0-0.1,0-0.1c0,0,0,0,0.1-0.1c0,0,0.1,0,0.1,0
			c0.1,0,0.1,0,0.2,0c0.1,0,0.2,0,0.2,0c0.1,0,0.1,0,0.1,0c0,0,0,0,0.1,0.1c0,0,0,0.1,0,0.1L271.2,122z"/>
		<path class="st6" d="M274.5,122C274.5,122,274.5,122,274.5,122c-0.1,0.1-0.1,0.1-0.1,0.1c0,0-0.1,0-0.1,0s-0.1,0-0.2,0
			c-0.1,0-0.2,0-0.2,0s-0.1,0-0.1,0c0,0,0,0-0.1-0.1c0,0,0-0.1,0-0.1l2-9.9c0,0,0-0.1,0-0.1c0,0,0,0,0.1-0.1c0,0,0.1,0,0.1,0
			c0.1,0,0.1,0,0.2,0c0.1,0,0.2,0,0.2,0c0.1,0,0.1,0,0.1,0c0,0,0,0,0.1,0.1c0,0,0,0.1,0,0.1L274.5,122z"/>
		<path class="st6" d="M286.3,115.3c0,0,0,0.1,0,0.1c0,0,0,0.1,0,0.1c-0.2,0.4-0.3,0.9-0.5,1.4c-0.2,0.5-0.4,1-0.7,1.5
			c-0.3,0.5-0.6,1.1-0.9,1.7c-0.4,0.6-0.8,1.2-1.3,1.9l-2,2.6c0,0-0.1,0.1-0.1,0.1c0,0-0.1,0-0.1,0.1c0,0-0.1,0-0.2,0s-0.1,0-0.2,0
			c-0.1,0-0.2,0-0.2,0s-0.1,0-0.1-0.1c0,0-0.1-0.1,0-0.1c0,0,0-0.1,0.1-0.1l1.9-2.4l-1.1-6.5c0-0.1,0-0.1,0-0.1s0-0.1,0-0.1
			c0,0,0-0.1,0-0.1c0,0,0,0,0.1-0.1c0,0,0.1,0,0.1,0c0.1,0,0.1,0,0.2,0c0.1,0,0.2,0,0.2,0c0.1,0,0.1,0,0.1,0c0,0,0.1,0,0.1,0.1
			c0,0,0,0.1,0,0.1l1,5.8h0c0.3-0.5,0.6-0.9,0.9-1.4c0.3-0.5,0.5-1,0.7-1.4c0.2-0.5,0.4-1,0.6-1.5c0.2-0.5,0.4-1,0.5-1.5
			c0,0,0-0.1,0-0.1c0,0,0.1,0,0.1-0.1c0,0,0.1,0,0.2,0c0.1,0,0.1,0,0.2,0C286.1,115.2,286.2,115.2,286.3,115.3
			C286.3,115.2,286.3,115.2,286.3,115.3z"/>
		<path class="st6" d="M293.3,117.5c0,0.4,0,0.7-0.1,1.1s-0.2,0.7-0.3,1.1c-0.1,0.3-0.3,0.7-0.5,1c-0.2,0.3-0.5,0.6-0.7,0.8
			c-0.3,0.2-0.6,0.4-0.9,0.5s-0.7,0.2-1.2,0.2c-0.5,0-0.8-0.1-1.2-0.2c-0.3-0.1-0.6-0.3-0.8-0.5c-0.2-0.2-0.4-0.5-0.5-0.8
			c-0.1-0.3-0.1-0.6-0.1-1c0-0.4,0-0.7,0.1-1.1s0.2-0.7,0.3-1.1c0.1-0.3,0.3-0.7,0.5-1c0.2-0.3,0.5-0.6,0.7-0.8
			c0.3-0.2,0.6-0.4,0.9-0.5c0.4-0.1,0.7-0.2,1.2-0.2c0.5,0,0.8,0.1,1.2,0.2c0.3,0.1,0.6,0.3,0.8,0.5c0.2,0.2,0.4,0.5,0.5,0.8
			C293.2,116.8,293.3,117.1,293.3,117.5z M292.4,117.6c0-0.3,0-0.5-0.1-0.7s-0.2-0.4-0.3-0.5c-0.1-0.1-0.3-0.3-0.5-0.3
			c-0.2-0.1-0.5-0.1-0.8-0.1c-0.3,0-0.6,0.1-0.9,0.2c-0.3,0.1-0.5,0.3-0.7,0.4c-0.2,0.2-0.4,0.4-0.5,0.7c-0.2,0.3-0.3,0.5-0.4,0.8
			c-0.1,0.3-0.2,0.6-0.2,0.9c0,0.3-0.1,0.6-0.1,0.9c0,0.3,0,0.5,0.1,0.7c0.1,0.2,0.2,0.4,0.3,0.5c0.1,0.1,0.3,0.3,0.5,0.3
			c0.2,0.1,0.5,0.1,0.8,0.1c0.3,0,0.6-0.1,0.9-0.2c0.3-0.1,0.5-0.3,0.7-0.5c0.2-0.2,0.4-0.4,0.5-0.7c0.2-0.3,0.3-0.5,0.4-0.8
			c0.1-0.3,0.2-0.6,0.2-0.9S292.4,117.9,292.4,117.6z"/>
		<path class="st6" d="M299.6,122C299.6,122,299.6,122,299.6,122c0,0.1-0.1,0.1-0.1,0.1c0,0-0.1,0-0.1,0s-0.1,0-0.2,0s-0.1,0-0.2,0
			s-0.1,0-0.1,0c0,0,0,0-0.1-0.1c0,0,0-0.1,0-0.1l0.3-1.3c-0.1,0.2-0.2,0.3-0.3,0.5c-0.2,0.2-0.4,0.4-0.6,0.5
			c-0.2,0.2-0.5,0.3-0.8,0.4c-0.3,0.1-0.6,0.2-0.8,0.2c-0.3,0-0.6,0-0.8-0.1c-0.2-0.1-0.4-0.2-0.5-0.4c-0.1-0.2-0.2-0.3-0.3-0.5
			c-0.1-0.2-0.1-0.4-0.1-0.7c0-0.2,0-0.3,0-0.5s0-0.3,0.1-0.5l0.8-4.2c0,0,0-0.1,0-0.1s0,0,0.1-0.1c0,0,0.1,0,0.1,0
			c0.1,0,0.1,0,0.2,0s0.2,0,0.2,0c0.1,0,0.1,0,0.1,0c0,0,0,0,0.1,0.1s0,0.1,0,0.1l-0.8,4.2c0,0.1-0.1,0.3-0.1,0.4c0,0.1,0,0.3,0,0.5
			c0,0.2,0,0.3,0,0.4c0,0.1,0.1,0.3,0.2,0.4c0.1,0.1,0.2,0.2,0.3,0.2c0.1,0.1,0.3,0.1,0.4,0.1c0.3,0,0.6-0.1,0.9-0.2
			c0.3-0.2,0.6-0.4,0.8-0.7c0.3-0.3,0.5-0.6,0.7-1c0.2-0.4,0.3-0.8,0.4-1.3l0.6-3c0,0,0-0.1,0-0.1s0,0,0.1-0.1c0,0,0.1,0,0.1,0
			c0.1,0,0.1,0,0.2,0c0.1,0,0.2,0,0.2,0c0.1,0,0.1,0,0.1,0c0,0,0,0,0.1,0.1c0,0,0,0.1,0,0.1L299.6,122z"/>
		<path class="st6" d="M306.9,115.4C306.9,115.4,306.9,115.5,306.9,115.4c0,0.1,0,0.2,0,0.2c0,0,0,0.1,0,0.2s0,0.1-0.1,0.1
			c0,0,0,0.1-0.1,0.1s-0.1,0-0.1,0s-0.1,0-0.1,0c0,0-0.1,0-0.2-0.1c-0.1,0-0.1,0-0.2-0.1s-0.2,0-0.3,0c-0.2,0-0.4,0.1-0.6,0.2
			c-0.2,0.2-0.5,0.4-0.7,0.7c-0.2,0.3-0.4,0.6-0.6,1c-0.2,0.4-0.3,0.8-0.4,1.3l-0.6,2.9c0,0,0,0.1,0,0.1c0,0,0,0-0.1,0.1
			c0,0-0.1,0-0.1,0s-0.1,0-0.2,0c-0.1,0-0.2,0-0.2,0s-0.1,0-0.1,0c0,0,0,0-0.1-0.1c0,0,0-0.1,0-0.1l1.3-6.6c0,0,0-0.1,0-0.1
			s0,0,0.1-0.1c0,0,0.1,0,0.1,0c0.1,0,0.1,0,0.2,0s0.1,0,0.2,0c0,0,0.1,0,0.1,0c0,0,0,0,0.1,0.1c0,0,0,0.1,0,0.1l-0.3,1.3
			c0.1-0.2,0.2-0.4,0.4-0.6c0.2-0.2,0.3-0.4,0.5-0.5c0.2-0.1,0.4-0.3,0.6-0.3c0.2-0.1,0.4-0.1,0.6-0.1c0.1,0,0.2,0,0.3,0
			c0.1,0,0.2,0,0.3,0c0.1,0,0.1,0,0.2,0.1c0.1,0,0.1,0.1,0.1,0.1C306.9,115.3,306.9,115.3,306.9,115.4z"/>
		<path class="st6" d="M315.3,115.7c0,0,0,0.1,0,0.2c0,0.1,0,0.1-0.1,0.2c0,0.1-0.1,0.1-0.1,0.1c0,0-0.1,0.1-0.1,0.1
			c-0.1,0-0.1,0-0.2-0.1c-0.1,0-0.2-0.1-0.3-0.2c-0.1-0.1-0.3-0.1-0.4-0.2c-0.2,0-0.4-0.1-0.6-0.1c-0.2,0-0.5,0-0.6,0.1
			c-0.2,0.1-0.3,0.2-0.5,0.3c-0.1,0.1-0.2,0.3-0.3,0.4c-0.1,0.2-0.1,0.3-0.1,0.5c0,0.2,0.1,0.4,0.2,0.5c0.1,0.1,0.3,0.3,0.5,0.4
			c0.2,0.1,0.4,0.2,0.6,0.3c0.2,0.1,0.4,0.2,0.6,0.4c0.2,0.1,0.4,0.3,0.5,0.5c0.1,0.2,0.2,0.4,0.2,0.8c0,0.3-0.1,0.6-0.2,0.9
			c-0.1,0.3-0.3,0.5-0.6,0.7c-0.2,0.2-0.5,0.4-0.9,0.5c-0.3,0.1-0.7,0.2-1.1,0.2c-0.2,0-0.4,0-0.6-0.1c-0.2,0-0.4-0.1-0.5-0.1
			c-0.2-0.1-0.3-0.1-0.4-0.2s-0.2-0.1-0.3-0.2c0,0-0.1-0.1-0.1-0.1c0,0,0-0.1,0-0.1c0,0,0-0.1,0-0.1c0,0,0-0.1,0-0.1
			c0,0,0-0.1,0-0.1s0-0.1,0.1-0.1c0,0,0-0.1,0.1-0.1c0,0,0,0,0.1,0c0.1,0,0.1,0,0.2,0.1s0.2,0.1,0.3,0.2c0.1,0.1,0.3,0.2,0.5,0.2
			c0.2,0.1,0.5,0.1,0.8,0.1s0.6,0,0.8-0.1c0.2-0.1,0.4-0.2,0.5-0.3c0.1-0.1,0.2-0.3,0.3-0.4s0.1-0.3,0.1-0.5c0-0.2-0.1-0.4-0.2-0.5
			s-0.3-0.3-0.5-0.4s-0.4-0.2-0.6-0.3c-0.2-0.1-0.4-0.2-0.6-0.4c-0.2-0.1-0.4-0.3-0.5-0.5c-0.1-0.2-0.2-0.5-0.2-0.8
			c0-0.3,0.1-0.6,0.2-0.9s0.3-0.5,0.5-0.7s0.5-0.3,0.8-0.4c0.3-0.1,0.6-0.2,1-0.2c0.2,0,0.3,0,0.5,0c0.2,0,0.3,0.1,0.5,0.1
			c0.1,0,0.3,0.1,0.4,0.2c0.1,0.1,0.2,0.1,0.2,0.2C315.3,115.6,315.3,115.7,315.3,115.7z"/>
		<path class="st6" d="M321.5,122C321.5,122,321.5,122,321.5,122c-0.1,0.1-0.1,0.1-0.1,0.1c0,0-0.1,0-0.1,0s-0.1,0-0.2,0
			s-0.1,0-0.2,0s-0.1,0-0.1,0c0,0,0,0-0.1-0.1c0,0,0-0.1,0-0.1l0.3-1.3c-0.1,0.2-0.2,0.3-0.3,0.5c-0.2,0.2-0.4,0.4-0.6,0.5
			c-0.2,0.2-0.5,0.3-0.8,0.4c-0.3,0.1-0.6,0.2-0.8,0.2c-0.3,0-0.6,0-0.8-0.1c-0.2-0.1-0.4-0.2-0.5-0.4c-0.1-0.2-0.2-0.3-0.3-0.5
			c-0.1-0.2-0.1-0.4-0.1-0.7c0-0.2,0-0.3,0-0.5s0-0.3,0.1-0.5l0.8-4.2c0,0,0-0.1,0-0.1s0,0,0.1-0.1c0,0,0.1,0,0.1,0
			c0.1,0,0.1,0,0.2,0s0.2,0,0.2,0c0.1,0,0.1,0,0.1,0c0,0,0,0,0.1,0.1s0,0.1,0,0.1l-0.8,4.2c0,0.1-0.1,0.3-0.1,0.4c0,0.1,0,0.3,0,0.5
			c0,0.2,0,0.3,0,0.4c0,0.1,0.1,0.3,0.2,0.4c0.1,0.1,0.2,0.2,0.3,0.2c0.1,0.1,0.3,0.1,0.4,0.1c0.3,0,0.6-0.1,0.9-0.2
			c0.3-0.2,0.6-0.4,0.8-0.7c0.3-0.3,0.5-0.6,0.7-1c0.2-0.4,0.3-0.8,0.4-1.3l0.6-3c0,0,0-0.1,0-0.1s0,0,0.1-0.1c0,0,0.1,0,0.1,0
			c0.1,0,0.1,0,0.2,0c0.1,0,0.2,0,0.2,0c0.1,0,0.1,0,0.1,0c0,0,0,0,0.1,0.1c0,0,0,0.1,0,0.1L321.5,122z"/>
		<path class="st6" d="M329.6,116c0,0.1,0,0.1,0,0.2c0,0.1,0,0.1-0.1,0.2c0,0.1-0.1,0.1-0.1,0.1s-0.1,0.1-0.1,0.1
			c-0.1,0-0.1,0-0.2-0.1c-0.1-0.1-0.2-0.2-0.3-0.3c-0.1-0.1-0.3-0.2-0.5-0.3s-0.5-0.1-0.8-0.1c-0.3,0-0.6,0.1-0.9,0.2
			c-0.3,0.1-0.5,0.3-0.7,0.5c-0.2,0.2-0.4,0.5-0.5,0.8c-0.1,0.3-0.2,0.6-0.3,0.9c-0.1,0.3-0.1,0.6-0.2,0.8c0,0.3-0.1,0.5-0.1,0.7
			c0,0.6,0.1,1,0.4,1.3s0.6,0.4,1.1,0.4c0.3,0,0.6,0,0.9-0.1c0.2-0.1,0.5-0.2,0.6-0.3c0.2-0.1,0.3-0.2,0.4-0.3
			c0.1-0.1,0.2-0.1,0.3-0.1c0,0,0.1,0,0.1,0c0,0,0,0.1,0,0.1c0,0,0,0.1,0,0.2c0,0.1,0,0.1,0,0.2c0,0.1,0,0.1-0.1,0.2
			s-0.1,0.1-0.1,0.2s-0.2,0.1-0.3,0.2c-0.1,0.1-0.3,0.2-0.5,0.3c-0.2,0.1-0.4,0.1-0.6,0.2s-0.5,0.1-0.7,0.1c-0.8,0-1.3-0.2-1.7-0.6
			c-0.4-0.4-0.6-1-0.6-1.7c0-0.3,0-0.6,0.1-1c0.1-0.4,0.1-0.7,0.3-1.1c0.1-0.4,0.3-0.7,0.5-1s0.4-0.6,0.7-0.9
			c0.3-0.3,0.6-0.5,0.9-0.6s0.8-0.2,1.2-0.2c0.2,0,0.4,0,0.6,0c0.2,0,0.3,0.1,0.5,0.1c0.2,0.1,0.3,0.1,0.4,0.2
			c0.1,0.1,0.2,0.2,0.3,0.2c0.1,0.1,0.1,0.1,0.1,0.2C329.6,115.9,329.6,116,329.6,116z"/>
		<path class="st6" d="M335.8,116c0,0.1,0,0.1,0,0.2c0,0.1,0,0.1-0.1,0.2c0,0.1-0.1,0.1-0.1,0.1s-0.1,0.1-0.1,0.1
			c-0.1,0-0.1,0-0.2-0.1c-0.1-0.1-0.2-0.2-0.3-0.3c-0.1-0.1-0.3-0.2-0.5-0.3s-0.5-0.1-0.8-0.1c-0.3,0-0.6,0.1-0.9,0.2
			c-0.3,0.1-0.5,0.3-0.7,0.5c-0.2,0.2-0.4,0.5-0.5,0.8c-0.1,0.3-0.2,0.6-0.3,0.9c-0.1,0.3-0.1,0.6-0.2,0.8c0,0.3-0.1,0.5-0.1,0.7
			c0,0.6,0.1,1,0.4,1.3s0.6,0.4,1.1,0.4c0.3,0,0.6,0,0.9-0.1c0.2-0.1,0.5-0.2,0.6-0.3c0.2-0.1,0.3-0.2,0.4-0.3
			c0.1-0.1,0.2-0.1,0.3-0.1c0,0,0.1,0,0.1,0c0,0,0,0.1,0,0.1c0,0,0,0.1,0,0.2c0,0.1,0,0.1,0,0.2c0,0.1,0,0.1-0.1,0.2
			s-0.1,0.1-0.1,0.2s-0.2,0.1-0.3,0.2c-0.1,0.1-0.3,0.2-0.5,0.3c-0.2,0.1-0.4,0.1-0.6,0.2s-0.5,0.1-0.7,0.1c-0.8,0-1.3-0.2-1.7-0.6
			c-0.4-0.4-0.6-1-0.6-1.7c0-0.3,0-0.6,0.1-1c0.1-0.4,0.1-0.7,0.3-1.1c0.1-0.4,0.3-0.7,0.5-1s0.4-0.6,0.7-0.9
			c0.3-0.3,0.6-0.5,0.9-0.6s0.8-0.2,1.2-0.2c0.2,0,0.4,0,0.6,0c0.2,0,0.3,0.1,0.5,0.1c0.2,0.1,0.3,0.1,0.4,0.2
			c0.1,0.1,0.2,0.2,0.3,0.2c0.1,0.1,0.1,0.1,0.1,0.2C335.8,115.9,335.8,116,335.8,116z"/>
		<path class="st6" d="M341.5,122C341.5,122,341.5,122,341.5,122c0,0.1-0.1,0.1-0.1,0.1c0,0-0.1,0-0.1,0s-0.1,0-0.2,0s-0.1,0-0.2,0
			s-0.1,0-0.1,0c0,0,0,0-0.1-0.1c0,0,0-0.1,0-0.1l0.3-1.3c-0.1,0.2-0.2,0.3-0.3,0.5c-0.2,0.2-0.4,0.4-0.6,0.5
			c-0.2,0.2-0.5,0.3-0.8,0.4c-0.3,0.1-0.6,0.2-0.8,0.2c-0.3,0-0.6,0-0.8-0.1c-0.2-0.1-0.4-0.2-0.5-0.4c-0.1-0.2-0.2-0.3-0.3-0.5
			c-0.1-0.2-0.1-0.4-0.1-0.7c0-0.2,0-0.3,0-0.5s0-0.3,0.1-0.5l0.8-4.2c0,0,0-0.1,0-0.1s0,0,0.1-0.1c0,0,0.1,0,0.1,0
			c0.1,0,0.1,0,0.2,0s0.2,0,0.2,0c0.1,0,0.1,0,0.1,0c0,0,0,0,0.1,0.1s0,0.1,0,0.1l-0.8,4.2c0,0.1-0.1,0.3-0.1,0.4c0,0.1,0,0.3,0,0.5
			c0,0.2,0,0.3,0,0.4c0,0.1,0.1,0.3,0.2,0.4c0.1,0.1,0.2,0.2,0.3,0.2c0.1,0.1,0.3,0.1,0.4,0.1c0.3,0,0.6-0.1,0.9-0.2
			c0.3-0.2,0.6-0.4,0.8-0.7c0.3-0.3,0.5-0.6,0.7-1c0.2-0.4,0.3-0.8,0.4-1.3l0.6-3c0,0,0-0.1,0-0.1s0,0,0.1-0.1c0,0,0.1,0,0.1,0
			c0.1,0,0.1,0,0.2,0c0.1,0,0.2,0,0.2,0c0.1,0,0.1,0,0.1,0c0,0,0,0,0.1,0.1c0,0,0,0.1,0,0.1L341.5,122z"/>
		<path class="st6" d="M344.9,122C344.8,122,344.8,122,344.9,122c-0.1,0.1-0.1,0.1-0.1,0.1c0,0-0.1,0-0.1,0s-0.1,0-0.2,0
			c-0.1,0-0.2,0-0.2,0s-0.1,0-0.1,0c0,0,0,0-0.1-0.1c0,0,0-0.1,0-0.1l2-9.9c0,0,0-0.1,0-0.1c0,0,0,0,0.1-0.1c0,0,0.1,0,0.1,0
			c0.1,0,0.1,0,0.2,0c0.1,0,0.2,0,0.2,0c0.1,0,0.1,0,0.1,0c0,0,0,0,0.1,0.1c0,0,0,0.1,0,0.1L344.9,122z"/>
		<path class="st6" d="M353.3,116.6c0,0.3-0.1,0.6-0.2,0.9c-0.2,0.3-0.4,0.5-0.7,0.7s-0.8,0.3-1.3,0.4c-0.5,0.1-1.1,0.2-1.9,0.2
			h-0.8c0,0.2-0.1,0.4-0.1,0.5s0,0.3,0,0.5c0,0.5,0.1,1,0.4,1.2c0.3,0.3,0.7,0.4,1.3,0.4c0.3,0,0.6,0,0.8-0.1c0.2,0,0.5-0.1,0.6-0.1
			c0.2-0.1,0.3-0.1,0.4-0.2c0.1,0,0.2-0.1,0.2-0.1s0.1,0,0.1,0c0,0,0,0.1,0,0.1c0,0,0,0.1,0,0.1c0,0,0,0.1,0,0.1
			c0,0.1,0,0.1-0.1,0.2c0,0.1-0.1,0.1-0.1,0.1c-0.1,0.1-0.2,0.1-0.3,0.2c-0.1,0.1-0.3,0.1-0.5,0.2s-0.4,0.1-0.6,0.1s-0.5,0-0.7,0
			c-0.4,0-0.8-0.1-1.1-0.2c-0.3-0.1-0.6-0.2-0.8-0.5c-0.2-0.2-0.4-0.5-0.5-0.8c-0.1-0.3-0.2-0.7-0.2-1.1c0-0.3,0-0.6,0.1-1
			c0.1-0.4,0.2-0.7,0.3-1.1c0.1-0.4,0.3-0.7,0.5-1c0.2-0.3,0.4-0.6,0.7-0.9c0.3-0.2,0.6-0.4,1-0.6c0.4-0.1,0.8-0.2,1.3-0.2
			c0.4,0,0.7,0,1,0.2c0.3,0.1,0.5,0.2,0.7,0.4c0.2,0.2,0.3,0.3,0.4,0.5C353.3,116.3,353.3,116.5,353.3,116.6z M352.4,116.7
			c0-0.3-0.1-0.5-0.3-0.7c-0.2-0.2-0.5-0.3-0.9-0.3c-0.4,0-0.7,0.1-0.9,0.2c-0.3,0.1-0.5,0.3-0.7,0.5s-0.4,0.4-0.5,0.7
			c-0.1,0.3-0.3,0.6-0.4,0.9h0.8c0.6,0,1.1,0,1.5-0.1c0.4-0.1,0.7-0.2,0.9-0.3c0.2-0.1,0.4-0.3,0.5-0.4
			C352.3,117.1,352.4,116.9,352.4,116.7z"/>
		<path class="st6" d="M360.5,116.8c0,0.2,0,0.3,0,0.5c0,0.2,0,0.3-0.1,0.5l-0.8,4.2c0,0,0,0.1,0,0.1c0,0,0,0-0.1,0.1
			c0,0-0.1,0-0.1,0c-0.1,0-0.1,0-0.2,0c-0.1,0-0.2,0-0.2,0s-0.1,0-0.1,0c0,0,0,0-0.1-0.1c0,0,0-0.1,0-0.1l0.8-4.2
			c0-0.2,0.1-0.3,0.1-0.5s0-0.3,0-0.4c0-0.3-0.1-0.6-0.2-0.8s-0.4-0.3-0.7-0.3c-0.3,0-0.6,0.1-0.9,0.2c-0.3,0.2-0.6,0.4-0.8,0.7
			c-0.3,0.3-0.5,0.6-0.7,1s-0.3,0.8-0.4,1.3l-0.6,2.9c0,0,0,0.1,0,0.1c0,0,0,0-0.1,0.1c0,0-0.1,0-0.1,0s-0.1,0-0.2,0
			c-0.1,0-0.2,0-0.2,0s-0.1,0-0.1,0c0,0,0,0-0.1-0.1c0,0,0-0.1,0-0.1l1.3-6.6c0,0,0-0.1,0-0.1c0,0,0,0,0.1-0.1c0,0,0.1,0,0.1,0
			c0.1,0,0.1,0,0.2,0s0.1,0,0.2,0c0,0,0.1,0,0.1,0c0,0,0,0,0.1,0.1c0,0,0,0.1,0,0.1l-0.3,1.4c0.1-0.2,0.2-0.3,0.3-0.5
			c0.2-0.2,0.4-0.4,0.6-0.5c0.2-0.2,0.5-0.3,0.8-0.4s0.6-0.2,0.9-0.2c0.3,0,0.6,0,0.8,0.1s0.4,0.2,0.5,0.4c0.1,0.2,0.2,0.3,0.3,0.6
			C360.4,116.4,360.5,116.6,360.5,116.8z"/>
		<path class="st6" d="M366.3,115.4c0,0,0,0.1,0,0.1s0,0.1,0,0.1c0,0,0,0.1,0,0.1s0,0.1-0.1,0.1c0,0,0,0-0.1,0.1s-0.1,0-0.1,0h-1.8
			l-0.8,4c0,0.1,0,0.2-0.1,0.4c0,0.1,0,0.3,0,0.4c0,0.3,0.1,0.5,0.2,0.6c0.1,0.1,0.3,0.2,0.6,0.2c0.1,0,0.3,0,0.4,0
			c0.1,0,0.2-0.1,0.3-0.1s0.1-0.1,0.2-0.1c0.1,0,0.1,0,0.1,0s0.1,0,0.1,0c0,0,0,0.1,0,0.1c0,0,0,0.1,0,0.2s0,0.1,0,0.2
			c0,0.1,0,0.1-0.1,0.1c0,0,0,0.1-0.1,0.1c0,0-0.1,0.1-0.2,0.1s-0.2,0.1-0.3,0.1c-0.1,0-0.2,0-0.3,0.1s-0.2,0-0.3,0
			c-0.3,0-0.5,0-0.7-0.1c-0.2-0.1-0.3-0.1-0.5-0.3c-0.1-0.1-0.2-0.3-0.3-0.5c-0.1-0.2-0.1-0.4-0.1-0.6c0-0.1,0-0.1,0-0.2
			c0-0.1,0-0.1,0-0.2c0-0.1,0-0.2,0-0.2c0-0.1,0-0.2,0-0.2l0.8-4h-1c0,0-0.1,0-0.1,0c0,0,0-0.1,0-0.2c0-0.1,0-0.1,0-0.2
			s0-0.1,0.1-0.2c0-0.1,0.1-0.1,0.1-0.1c0,0,0.1,0,0.1,0h1l0.3-1.6c0,0,0-0.1,0-0.1s0,0,0.1-0.1c0,0,0.1,0,0.1,0c0.1,0,0.1,0,0.2,0
			c0.1,0,0.2,0,0.2,0c0.1,0,0.1,0,0.1,0c0,0,0,0,0.1,0.1c0,0,0,0.1,0,0.1l-0.3,1.6h1.8c0.1,0,0.1,0,0.1,0.1
			C366.3,115.3,366.3,115.4,366.3,115.4z"/>
		<path class="st6" d="M376.2,116.8c0,0.2,0,0.3,0,0.5c0,0.2,0,0.3-0.1,0.5l-0.8,4.2c0,0,0,0.1,0,0.1c0,0,0,0-0.1,0.1
			c0,0-0.1,0-0.1,0c-0.1,0-0.1,0-0.2,0c-0.1,0-0.2,0-0.2,0s-0.1,0-0.1,0c0,0,0,0-0.1-0.1c0,0,0-0.1,0-0.1l0.8-4.2
			c0-0.2,0.1-0.3,0.1-0.5s0-0.3,0-0.4c0-0.3-0.1-0.6-0.2-0.8s-0.4-0.3-0.7-0.3c-0.3,0-0.6,0.1-0.9,0.2c-0.3,0.2-0.6,0.4-0.8,0.7
			c-0.3,0.3-0.5,0.6-0.7,1s-0.3,0.8-0.4,1.3L371,122c0,0,0,0.1,0,0.1c0,0,0,0-0.1,0.1c0,0-0.1,0-0.1,0s-0.1,0-0.2,0
			c-0.1,0-0.2,0-0.2,0s-0.1,0-0.1,0c0,0,0,0-0.1-0.1c0,0,0-0.1,0-0.1l1.3-6.6c0,0,0-0.1,0-0.1c0,0,0,0,0.1-0.1c0,0,0.1,0,0.1,0
			c0.1,0,0.1,0,0.2,0s0.1,0,0.2,0c0,0,0.1,0,0.1,0c0,0,0,0,0.1,0.1c0,0,0,0.1,0,0.1l-0.3,1.4c0.1-0.2,0.2-0.3,0.3-0.5
			c0.2-0.2,0.4-0.4,0.6-0.5c0.2-0.2,0.5-0.3,0.8-0.4s0.6-0.2,0.9-0.2c0.3,0,0.6,0,0.8,0.1s0.4,0.2,0.5,0.4c0.1,0.2,0.2,0.3,0.3,0.6
			C376.2,116.4,376.2,116.6,376.2,116.8z"/>
		<path class="st6" d="M383.7,116.6c0,0.3-0.1,0.6-0.2,0.9c-0.2,0.3-0.4,0.5-0.7,0.7s-0.8,0.3-1.3,0.4c-0.5,0.1-1.1,0.2-1.9,0.2
			h-0.8c0,0.2-0.1,0.4-0.1,0.5s0,0.3,0,0.5c0,0.5,0.1,1,0.4,1.2c0.3,0.3,0.7,0.4,1.3,0.4c0.3,0,0.6,0,0.8-0.1c0.2,0,0.5-0.1,0.6-0.1
			c0.2-0.1,0.3-0.1,0.4-0.2c0.1,0,0.2-0.1,0.2-0.1s0.1,0,0.1,0c0,0,0,0.1,0,0.1c0,0,0,0.1,0,0.1c0,0,0,0.1,0,0.1
			c0,0.1,0,0.1-0.1,0.2c0,0.1-0.1,0.1-0.1,0.1c-0.1,0.1-0.2,0.1-0.3,0.2c-0.1,0.1-0.3,0.1-0.5,0.2s-0.4,0.1-0.6,0.1s-0.5,0-0.7,0
			c-0.4,0-0.8-0.1-1.1-0.2c-0.3-0.1-0.6-0.2-0.8-0.5c-0.2-0.2-0.4-0.5-0.5-0.8c-0.1-0.3-0.2-0.7-0.2-1.1c0-0.3,0-0.6,0.1-1
			c0.1-0.4,0.2-0.7,0.3-1.1c0.1-0.4,0.3-0.7,0.5-1c0.2-0.3,0.4-0.6,0.7-0.9c0.3-0.2,0.6-0.4,1-0.6c0.4-0.1,0.8-0.2,1.3-0.2
			c0.4,0,0.7,0,1,0.2c0.3,0.1,0.5,0.2,0.7,0.4c0.2,0.2,0.3,0.3,0.4,0.5C383.7,116.3,383.7,116.5,383.7,116.6z M382.8,116.7
			c0-0.3-0.1-0.5-0.3-0.7c-0.2-0.2-0.5-0.3-0.9-0.3c-0.4,0-0.7,0.1-0.9,0.2c-0.3,0.1-0.5,0.3-0.7,0.5s-0.4,0.4-0.5,0.7
			c-0.1,0.3-0.3,0.6-0.4,0.9h0.8c0.6,0,1.1,0,1.5-0.1c0.4-0.1,0.7-0.2,0.9-0.3c0.2-0.1,0.4-0.3,0.5-0.4
			C382.8,117.1,382.8,116.9,382.8,116.7z"/>
		<path class="st6" d="M390.8,116.6c0,0.3-0.1,0.6-0.2,0.9c-0.2,0.3-0.4,0.5-0.7,0.7s-0.8,0.3-1.3,0.4c-0.5,0.1-1.1,0.2-1.9,0.2
			h-0.8c0,0.2-0.1,0.4-0.1,0.5s0,0.3,0,0.5c0,0.5,0.1,1,0.4,1.2c0.3,0.3,0.7,0.4,1.3,0.4c0.3,0,0.6,0,0.8-0.1c0.2,0,0.5-0.1,0.6-0.1
			c0.2-0.1,0.3-0.1,0.4-0.2c0.1,0,0.2-0.1,0.2-0.1s0.1,0,0.1,0c0,0,0,0.1,0,0.1c0,0,0,0.1,0,0.1c0,0,0,0.1,0,0.1
			c0,0.1,0,0.1-0.1,0.2c0,0.1-0.1,0.1-0.1,0.1c-0.1,0.1-0.2,0.1-0.3,0.2c-0.1,0.1-0.3,0.1-0.5,0.2s-0.4,0.1-0.6,0.1s-0.5,0-0.7,0
			c-0.4,0-0.8-0.1-1.1-0.2c-0.3-0.1-0.6-0.2-0.8-0.5c-0.2-0.2-0.4-0.5-0.5-0.8c-0.1-0.3-0.2-0.7-0.2-1.1c0-0.3,0-0.6,0.1-1
			c0.1-0.4,0.2-0.7,0.3-1.1c0.1-0.4,0.3-0.7,0.5-1c0.2-0.3,0.4-0.6,0.7-0.9c0.3-0.2,0.6-0.4,1-0.6c0.4-0.1,0.8-0.2,1.3-0.2
			c0.4,0,0.7,0,1,0.2c0.3,0.1,0.5,0.2,0.7,0.4c0.2,0.2,0.3,0.3,0.4,0.5C390.8,116.3,390.8,116.5,390.8,116.6z M389.9,116.7
			c0-0.3-0.1-0.5-0.3-0.7c-0.2-0.2-0.5-0.3-0.9-0.3c-0.4,0-0.7,0.1-0.9,0.2c-0.3,0.1-0.5,0.3-0.7,0.5s-0.4,0.4-0.5,0.7
			c-0.1,0.3-0.3,0.6-0.4,0.9h0.8c0.6,0,1.1,0,1.5-0.1c0.4-0.1,0.7-0.2,0.9-0.3c0.2-0.1,0.4-0.3,0.5-0.4
			C389.8,117.1,389.9,116.9,389.9,116.7z"/>
		<path class="st6" d="M397,122c0,0.1,0,0.1-0.1,0.1s-0.2,0-0.3,0c-0.1,0-0.1,0-0.2,0c0,0-0.1,0-0.1,0s0,0-0.1-0.1s0-0.1,0-0.1
			l0.3-1.3c-0.1,0.2-0.2,0.3-0.3,0.5c-0.2,0.2-0.4,0.4-0.6,0.5c-0.2,0.2-0.5,0.3-0.8,0.4c-0.3,0.1-0.6,0.2-0.9,0.2
			c-0.3,0-0.6,0-0.8-0.1c-0.2-0.1-0.4-0.2-0.5-0.3c-0.1-0.1-0.3-0.3-0.3-0.4c-0.1-0.2-0.2-0.3-0.2-0.5c0-0.2-0.1-0.3-0.1-0.5
			c0-0.2,0-0.3,0-0.5c0-0.3,0-0.6,0.1-0.9c0.1-0.3,0.1-0.7,0.2-1c0.1-0.4,0.3-0.7,0.4-1c0.2-0.3,0.4-0.6,0.7-0.9
			c0.3-0.3,0.6-0.5,0.9-0.6c0.3-0.2,0.7-0.2,1.1-0.2c0.2,0,0.4,0,0.6,0.1s0.4,0.1,0.5,0.2c0.2,0.1,0.3,0.2,0.4,0.3s0.3,0.2,0.4,0.4
			l0.8-3.9c0,0,0-0.1,0-0.1c0,0,0,0,0.1-0.1s0.1,0,0.1,0c0.1,0,0.1,0,0.2,0c0.1,0,0.2,0,0.2,0c0.1,0,0.1,0,0.1,0c0,0,0.1,0,0.1,0.1
			c0,0,0,0.1,0,0.1L397,122z M397.1,117c-0.3-0.4-0.5-0.7-0.8-0.9c-0.3-0.2-0.6-0.3-1-0.3c-0.3,0-0.5,0.1-0.8,0.2
			c-0.2,0.1-0.4,0.3-0.6,0.5c-0.2,0.2-0.3,0.5-0.5,0.8c-0.1,0.3-0.2,0.6-0.3,0.9c-0.1,0.3-0.1,0.6-0.2,0.9c0,0.3-0.1,0.5-0.1,0.8
			c0,0.5,0.1,0.9,0.3,1.2c0.2,0.3,0.5,0.4,0.9,0.4c0.3,0,0.6-0.1,0.9-0.2c0.3-0.2,0.6-0.4,0.8-0.7c0.3-0.3,0.5-0.6,0.7-1
			c0.2-0.4,0.3-0.8,0.4-1.3L397.1,117z"/>
		<path class="st6" d="M404.2,115.7c0,0,0,0.1,0,0.2c0,0.1,0,0.1-0.1,0.2c0,0.1-0.1,0.1-0.1,0.1c0,0-0.1,0.1-0.1,0.1
			c-0.1,0-0.1,0-0.2-0.1c-0.1,0-0.2-0.1-0.3-0.2c-0.1-0.1-0.3-0.1-0.4-0.2c-0.2,0-0.4-0.1-0.6-0.1c-0.2,0-0.5,0-0.6,0.1
			c-0.2,0.1-0.3,0.2-0.5,0.3c-0.1,0.1-0.2,0.3-0.3,0.4c-0.1,0.2-0.1,0.3-0.1,0.5c0,0.2,0.1,0.4,0.2,0.5c0.1,0.1,0.3,0.3,0.5,0.4
			c0.2,0.1,0.4,0.2,0.6,0.3c0.2,0.1,0.4,0.2,0.6,0.4c0.2,0.1,0.4,0.3,0.5,0.5c0.1,0.2,0.2,0.4,0.2,0.8c0,0.3-0.1,0.6-0.2,0.9
			c-0.1,0.3-0.3,0.5-0.6,0.7c-0.2,0.2-0.5,0.4-0.9,0.5c-0.3,0.1-0.7,0.2-1.1,0.2c-0.2,0-0.4,0-0.6-0.1c-0.2,0-0.4-0.1-0.5-0.1
			c-0.2-0.1-0.3-0.1-0.4-0.2s-0.2-0.1-0.3-0.2c0,0-0.1-0.1-0.1-0.1c0,0,0-0.1,0-0.1c0,0,0-0.1,0-0.1c0,0,0-0.1,0-0.1
			c0,0,0-0.1,0-0.1s0-0.1,0.1-0.1c0,0,0-0.1,0.1-0.1c0,0,0,0,0.1,0c0.1,0,0.1,0,0.2,0.1s0.2,0.1,0.3,0.2c0.1,0.1,0.3,0.2,0.5,0.2
			c0.2,0.1,0.5,0.1,0.8,0.1s0.6,0,0.8-0.1c0.2-0.1,0.4-0.2,0.5-0.3c0.1-0.1,0.2-0.3,0.3-0.4s0.1-0.3,0.1-0.5c0-0.2-0.1-0.4-0.2-0.5
			s-0.3-0.3-0.5-0.4s-0.4-0.2-0.6-0.3c-0.2-0.1-0.4-0.2-0.6-0.4c-0.2-0.1-0.4-0.3-0.5-0.5c-0.1-0.2-0.2-0.5-0.2-0.8
			c0-0.3,0.1-0.6,0.2-0.9s0.3-0.5,0.5-0.7s0.5-0.3,0.8-0.4c0.3-0.1,0.6-0.2,1-0.2c0.2,0,0.3,0,0.5,0c0.2,0,0.3,0.1,0.5,0.1
			c0.1,0,0.3,0.1,0.4,0.2c0.1,0.1,0.2,0.1,0.2,0.2C404.2,115.6,404.2,115.7,404.2,115.7z"/>
	</g>
	<g class="st5">
		<path class="st7" d="M164.3,94.5c0,1.6-0.3,3-0.9,4.2s-1.4,2.2-2.4,3s-2.2,1.4-3.6,1.8s-2.8,0.6-4.4,0.6c-1,0-2-0.1-2.9-0.3
			s-1.7-0.4-2.4-0.6s-1.3-0.5-1.7-0.8s-0.8-0.5-1-0.7s-0.3-0.5-0.4-0.9s-0.1-0.9-0.1-1.7c0-0.5,0-0.9,0-1.2s0.1-0.6,0.2-0.8
			s0.2-0.3,0.3-0.4s0.3-0.1,0.4-0.1c0.2,0,0.5,0.1,0.9,0.4s0.9,0.5,1.5,0.9s1.4,0.6,2.2,0.9s1.9,0.4,3,0.4c0.8,0,1.4-0.1,2-0.3
			s1.1-0.4,1.5-0.8s0.7-0.7,0.9-1.2s0.3-1,0.3-1.6c0-0.7-0.2-1.3-0.6-1.8s-0.9-0.9-1.5-1.3s-1.3-0.7-2.1-1.1s-1.6-0.7-2.4-1.1
			s-1.6-0.8-2.4-1.3s-1.4-1-2.1-1.7s-1.1-1.4-1.5-2.4s-0.6-2-0.6-3.3c0-1.5,0.3-2.7,0.8-3.8s1.3-2,2.2-2.7s2-1.3,3.2-1.6
			s2.6-0.5,3.9-0.5c0.7,0,1.4,0.1,2.2,0.2s1.4,0.3,2,0.4s1.2,0.4,1.7,0.6s0.8,0.4,1,0.6s0.3,0.3,0.3,0.4s0.1,0.3,0.1,0.4
			s0.1,0.4,0.1,0.7s0,0.6,0,1c0,0.5,0,0.8,0,1.1s-0.1,0.6-0.1,0.8s-0.1,0.4-0.2,0.4s-0.2,0.1-0.4,0.1s-0.4-0.1-0.8-0.3
			s-0.8-0.5-1.4-0.7s-1.2-0.5-1.9-0.7s-1.5-0.3-2.4-0.3c-0.7,0-1.3,0.1-1.8,0.2s-0.9,0.4-1.3,0.7s-0.6,0.6-0.8,1s-0.2,0.8-0.2,1.3
			c0,0.7,0.2,1.3,0.6,1.7s0.9,0.9,1.5,1.3s1.3,0.7,2.1,1.1s1.6,0.7,2.4,1.1s1.6,0.8,2.4,1.3s1.5,1,2.1,1.7s1.1,1.4,1.5,2.3
			S164.3,93.2,164.3,94.5z"/>
		<path class="st7" d="M188.5,102.7c0,0.2,0,0.3-0.1,0.4s-0.2,0.2-0.4,0.3s-0.5,0.1-0.8,0.2s-0.7,0.1-1.2,0.1c-0.5,0-0.9,0-1.3-0.1
			s-0.6-0.1-0.8-0.2s-0.3-0.2-0.4-0.3s-0.1-0.3-0.1-0.4v-2.4c-1.2,1.2-2.3,2.2-3.5,2.8s-2.4,0.9-3.7,0.9c-1.4,0-2.6-0.2-3.6-0.7
			s-1.8-1.1-2.4-1.9s-1-1.8-1.3-2.8s-0.4-2.4-0.4-4V81.8c0-0.2,0-0.3,0.1-0.4s0.2-0.2,0.5-0.3s0.5-0.1,0.9-0.2s0.9-0.1,1.4-0.1
			c0.6,0,1.1,0,1.4,0.1s0.7,0.1,0.9,0.2s0.4,0.2,0.5,0.3s0.1,0.3,0.1,0.4v11.8c0,1.1,0.1,1.9,0.2,2.5s0.4,1.1,0.6,1.5s0.7,0.7,1.1,1
			s1,0.3,1.6,0.3c0.8,0,1.5-0.3,2.3-0.8s1.6-1.3,2.4-2.4V81.8c0-0.2,0-0.3,0.1-0.4s0.2-0.2,0.5-0.3s0.5-0.1,0.9-0.2s0.9-0.1,1.4-0.1
			s1.1,0,1.4,0.1s0.7,0.1,0.9,0.2s0.4,0.2,0.5,0.3s0.1,0.3,0.1,0.4V102.7z"/>
		<path class="st7" d="M210.3,99.4c0,0.4,0,0.7,0,1s-0.1,0.5-0.1,0.7s-0.1,0.3-0.1,0.5s-0.2,0.3-0.4,0.4s-0.5,0.4-1,0.7
			s-1,0.5-1.5,0.7s-1.2,0.4-1.9,0.5s-1.4,0.2-2.1,0.2c-1.6,0-3-0.2-4.3-0.8s-2.3-1.2-3.1-2.2s-1.5-2.2-1.9-3.6s-0.6-3-0.6-4.8
			c0-2.1,0.3-3.9,0.8-5.4s1.3-2.8,2.2-3.8s2-1.7,3.3-2.2s2.7-0.7,4.2-0.7c0.6,0,1.2,0.1,1.8,0.2s1.2,0.3,1.7,0.4s1,0.4,1.4,0.6
			s0.7,0.4,0.9,0.6s0.3,0.3,0.4,0.4s0.1,0.3,0.2,0.5s0.1,0.4,0.1,0.7s0,0.6,0,1c0,0.9-0.1,1.5-0.2,1.9s-0.4,0.6-0.6,0.6
			c-0.3,0-0.5-0.1-0.8-0.3s-0.6-0.5-1.1-0.7s-0.9-0.5-1.5-0.7s-1.2-0.3-2-0.3c-1.5,0-2.7,0.6-3.5,1.8s-1.2,2.9-1.2,5.2
			c0,1.1,0.1,2.1,0.3,3s0.5,1.6,0.9,2.2s0.9,1,1.5,1.3s1.3,0.4,2.1,0.4c0.8,0,1.5-0.1,2.1-0.4s1.1-0.5,1.5-0.8s0.8-0.6,1.1-0.8
			s0.5-0.4,0.8-0.4c0.1,0,0.3,0,0.4,0.1s0.2,0.2,0.2,0.4s0.1,0.5,0.1,0.8S210.3,98.9,210.3,99.4z"/>
		<path class="st7" d="M229.2,96.8c0,1.2-0.2,2.2-0.7,3.1s-1.1,1.7-1.9,2.3s-1.8,1.1-2.9,1.4s-2.3,0.5-3.6,0.5
			c-0.8,0-1.5-0.1-2.2-0.2s-1.3-0.3-1.9-0.4s-1-0.4-1.4-0.6s-0.6-0.4-0.8-0.5s-0.3-0.4-0.4-0.8s-0.1-0.9-0.1-1.6c0-0.5,0-0.8,0-1.1
			s0.1-0.5,0.1-0.7s0.1-0.3,0.2-0.3s0.2-0.1,0.4-0.1c0.2,0,0.4,0.1,0.8,0.3s0.8,0.4,1.3,0.6s1.1,0.5,1.7,0.7s1.4,0.3,2.3,0.3
			c0.5,0,1-0.1,1.4-0.2s0.8-0.3,1.1-0.5s0.5-0.5,0.7-0.8s0.2-0.7,0.2-1.1c0-0.5-0.1-0.9-0.4-1.2s-0.7-0.6-1.1-0.9s-1-0.5-1.6-0.7
			s-1.2-0.5-1.9-0.7c-0.6-0.3-1.2-0.6-1.9-0.9s-1.1-0.8-1.6-1.3s-0.9-1.1-1.1-1.8s-0.4-1.5-0.4-2.5c0-1,0.2-1.9,0.6-2.8
			s1-1.6,1.7-2.1s1.6-1.1,2.7-1.4c1.1-0.3,2.2-0.5,3.6-0.5c0.7,0,1.3,0,1.9,0.1s1.2,0.2,1.7,0.4s0.9,0.3,1.3,0.5s0.6,0.3,0.7,0.4
			s0.3,0.2,0.3,0.4s0.1,0.3,0.1,0.4s0.1,0.4,0.1,0.6s0,0.5,0,0.9c0,0.4,0,0.8,0,1s-0.1,0.5-0.1,0.6s-0.1,0.3-0.2,0.3
			s-0.2,0.1-0.3,0.1c-0.1,0-0.4-0.1-0.7-0.2s-0.7-0.3-1.1-0.5s-1-0.4-1.5-0.5s-1.3-0.2-2-0.2c-0.5,0-1,0.1-1.4,0.2s-0.7,0.3-1,0.5
			s-0.4,0.4-0.6,0.7s-0.2,0.6-0.2,0.9c0,0.5,0.1,0.9,0.4,1.2s0.7,0.6,1.2,0.9s1,0.5,1.7,0.7s1.2,0.5,1.9,0.7s1.3,0.6,1.9,0.9
			s1.2,0.8,1.7,1.3s0.9,1.1,1.2,1.8S229.2,95.9,229.2,96.8z"/>
		<path class="st7" d="M248.4,96.8c0,1.2-0.2,2.2-0.7,3.1s-1.1,1.7-1.9,2.3s-1.8,1.1-2.9,1.4s-2.3,0.5-3.6,0.5
			c-0.8,0-1.5-0.1-2.2-0.2s-1.3-0.3-1.9-0.4s-1-0.4-1.4-0.6s-0.6-0.4-0.8-0.5s-0.3-0.4-0.4-0.8s-0.1-0.9-0.1-1.6c0-0.5,0-0.8,0-1.1
			s0.1-0.5,0.1-0.7s0.1-0.3,0.2-0.3s0.2-0.1,0.4-0.1c0.2,0,0.4,0.1,0.8,0.3s0.8,0.4,1.3,0.6s1.1,0.5,1.7,0.7s1.4,0.3,2.3,0.3
			c0.5,0,1-0.1,1.4-0.2s0.8-0.3,1.1-0.5s0.5-0.5,0.7-0.8s0.2-0.7,0.2-1.1c0-0.5-0.1-0.9-0.4-1.2s-0.7-0.6-1.1-0.9s-1-0.5-1.6-0.7
			s-1.2-0.5-1.9-0.7s-1.2-0.6-1.9-0.9s-1.1-0.8-1.6-1.3s-0.9-1.1-1.1-1.8s-0.4-1.5-0.4-2.5c0-1,0.2-1.9,0.6-2.8s1-1.6,1.7-2.1
			s1.6-1.1,2.7-1.4s2.2-0.5,3.6-0.5c0.7,0,1.3,0,1.9,0.1s1.2,0.2,1.7,0.4s0.9,0.3,1.3,0.5s0.6,0.3,0.7,0.4s0.3,0.2,0.3,0.4
			s0.1,0.3,0.1,0.4s0.1,0.4,0.1,0.6s0,0.5,0,0.9c0,0.4,0,0.8,0,1s-0.1,0.5-0.1,0.6s-0.1,0.3-0.2,0.3s-0.2,0.1-0.3,0.1
			c-0.1,0-0.4-0.1-0.7-0.2s-0.7-0.3-1.1-0.5s-1-0.4-1.5-0.5s-1.3-0.2-2-0.2c-0.5,0-1,0.1-1.4,0.2s-0.7,0.3-1,0.5s-0.4,0.4-0.6,0.7
			s-0.2,0.6-0.2,0.9c0,0.5,0.1,0.9,0.4,1.2s0.7,0.6,1.2,0.9s1,0.5,1.7,0.7s1.2,0.5,1.9,0.7s1.3,0.6,1.9,0.9s1.2,0.8,1.7,1.3
			s0.9,1.1,1.2,1.8S248.4,95.9,248.4,96.8z"/>
		<path class="st7" d="M276.1,100.7c0,0.7,0,1.2-0.1,1.6s-0.2,0.6-0.3,0.8s-0.3,0.3-0.6,0.4s-0.6,0.2-1,0.3s-0.8,0.2-1.2,0.2
			s-0.9,0.1-1.3,0.1c-1.2,0-2.2-0.1-3-0.4s-1.6-0.8-2.1-1.4s-1-1.4-1.2-2.3s-0.4-2-0.4-3.3V85.8h-2.5c-0.3,0-0.5-0.2-0.7-0.6
			s-0.2-1-0.2-1.8c0-0.5,0-0.8,0.1-1.1s0.1-0.6,0.2-0.7s0.2-0.3,0.3-0.4s0.3-0.1,0.4-0.1h2.5v-4.7c0-0.2,0-0.3,0.1-0.4
			s0.2-0.2,0.5-0.3s0.5-0.1,0.9-0.2s0.9-0.1,1.4-0.1c0.6,0,1.1,0,1.4,0.1s0.7,0.1,0.9,0.2s0.4,0.2,0.5,0.3s0.1,0.3,0.1,0.4V81h4.5
			c0.2,0,0.3,0,0.4,0.1s0.2,0.2,0.3,0.4s0.1,0.4,0.2,0.7s0.1,0.7,0.1,1.1c0,0.9-0.1,1.5-0.2,1.8s-0.4,0.6-0.7,0.6h-4.6v9.8
			c0,1.1,0.2,2,0.5,2.6s1,0.9,1.9,0.9c0.3,0,0.6,0,0.8-0.1s0.5-0.1,0.7-0.2s0.4-0.1,0.5-0.2s0.3-0.1,0.4-0.1c0.1,0,0.2,0,0.3,0.1
			s0.2,0.2,0.2,0.3s0.1,0.4,0.1,0.7S276.1,100.2,276.1,100.7z"/>
		<path class="st7" d="M301,92.1c0,1.8-0.2,3.4-0.7,4.9s-1.2,2.7-2.1,3.8s-2.1,1.9-3.6,2.5s-3.1,0.9-5,0.9c-1.9,0-3.5-0.3-4.9-0.8
			s-2.5-1.3-3.4-2.2s-1.6-2.2-2-3.6s-0.7-3.1-0.7-4.9c0-1.8,0.2-3.4,0.7-4.9s1.2-2.7,2.1-3.8s2.1-1.9,3.6-2.4s3.1-0.9,5-0.9
			c1.9,0,3.5,0.3,4.9,0.8s2.5,1.3,3.4,2.2s1.6,2.2,2,3.6S301,90.2,301,92.1z M294.9,92.3c0-1-0.1-2-0.2-2.8s-0.4-1.6-0.8-2.3
			s-0.9-1.1-1.6-1.5s-1.5-0.5-2.4-0.5c-0.9,0-1.6,0.2-2.3,0.5s-1.2,0.8-1.6,1.4s-0.7,1.4-0.9,2.2s-0.3,1.9-0.3,3c0,1,0.1,2,0.3,2.8
			s0.4,1.6,0.8,2.3s0.9,1.1,1.6,1.5s1.5,0.5,2.4,0.5c0.9,0,1.7-0.2,2.3-0.5s1.2-0.8,1.6-1.4s0.7-1.3,0.9-2.2S294.9,93.4,294.9,92.3z
			"/>
		<path class="st7" d="M334.8,94.5c0,1.6-0.3,3-0.9,4.2s-1.4,2.2-2.4,3s-2.2,1.4-3.6,1.8s-2.8,0.6-4.4,0.6c-1,0-2-0.1-2.9-0.3
			s-1.7-0.4-2.4-0.6s-1.3-0.5-1.7-0.8s-0.8-0.5-1-0.7s-0.3-0.5-0.4-0.9s-0.1-0.9-0.1-1.7c0-0.5,0-0.9,0-1.2s0.1-0.6,0.2-0.8
			s0.2-0.3,0.3-0.4s0.3-0.1,0.4-0.1c0.2,0,0.5,0.1,0.9,0.4s0.9,0.5,1.5,0.9s1.4,0.6,2.2,0.9s1.9,0.4,3,0.4c0.8,0,1.4-0.1,2-0.3
			s1.1-0.4,1.5-0.8s0.7-0.7,0.9-1.2s0.3-1,0.3-1.6c0-0.7-0.2-1.3-0.6-1.8s-0.9-0.9-1.5-1.3s-1.3-0.7-2.1-1.1s-1.6-0.7-2.4-1.1
			s-1.6-0.8-2.4-1.3s-1.4-1-2.1-1.7s-1.1-1.4-1.5-2.4s-0.6-2-0.6-3.3c0-1.5,0.3-2.7,0.8-3.8s1.3-2,2.2-2.7s2-1.3,3.2-1.6
			s2.6-0.5,3.9-0.5c0.7,0,1.4,0.1,2.2,0.2s1.4,0.3,2,0.4s1.2,0.4,1.7,0.6s0.8,0.4,1,0.6s0.3,0.3,0.3,0.4s0.1,0.3,0.1,0.4
			s0.1,0.4,0.1,0.7s0,0.6,0,1c0,0.5,0,0.8,0,1.1s-0.1,0.6-0.1,0.8s-0.1,0.4-0.2,0.4s-0.2,0.1-0.4,0.1s-0.4-0.1-0.8-0.3
			s-0.8-0.5-1.4-0.7s-1.2-0.5-1.9-0.7s-1.5-0.3-2.4-0.3c-0.7,0-1.3,0.1-1.8,0.2s-0.9,0.4-1.3,0.7s-0.6,0.6-0.8,1s-0.2,0.8-0.2,1.3
			c0,0.7,0.2,1.3,0.6,1.7s0.9,0.9,1.5,1.3s1.3,0.7,2.1,1.1s1.6,0.7,2.4,1.1s1.6,0.8,2.4,1.3s1.5,1,2.1,1.7s1.1,1.4,1.5,2.3
			S334.8,93.2,334.8,94.5z"/>
		<path class="st7" d="M359,102.7c0,0.2,0,0.3-0.1,0.4s-0.2,0.2-0.4,0.3s-0.5,0.1-0.8,0.2s-0.7,0.1-1.2,0.1c-0.5,0-0.9,0-1.3-0.1
			s-0.6-0.1-0.8-0.2s-0.3-0.2-0.4-0.3s-0.1-0.3-0.1-0.4v-2.4c-1.2,1.2-2.3,2.2-3.5,2.8s-2.4,0.9-3.7,0.9c-1.4,0-2.6-0.2-3.6-0.7
			s-1.8-1.1-2.4-1.9s-1-1.8-1.3-2.8s-0.4-2.4-0.4-4V81.8c0-0.2,0-0.3,0.1-0.4s0.2-0.2,0.5-0.3s0.5-0.1,0.9-0.2s0.9-0.1,1.4-0.1
			c0.6,0,1.1,0,1.4,0.1s0.7,0.1,0.9,0.2s0.4,0.2,0.5,0.3s0.1,0.3,0.1,0.4v11.8c0,1.1,0.1,1.9,0.2,2.5s0.4,1.1,0.6,1.5s0.7,0.7,1.1,1
			s1,0.3,1.6,0.3c0.8,0,1.5-0.3,2.3-0.8s1.6-1.3,2.4-2.4V81.8c0-0.2,0-0.3,0.1-0.4s0.2-0.2,0.5-0.3s0.5-0.1,0.9-0.2s0.9-0.1,1.4-0.1
			s1.1,0,1.4,0.1s0.7,0.1,0.9,0.2s0.4,0.2,0.5,0.3s0.1,0.3,0.1,0.4V102.7z"/>
		<path class="st7" d="M380.8,99.4c0,0.4,0,0.7,0,1s-0.1,0.5-0.1,0.7s-0.1,0.3-0.1,0.5s-0.2,0.3-0.4,0.4s-0.5,0.4-1,0.7
			s-1,0.5-1.5,0.7s-1.2,0.4-1.9,0.5s-1.4,0.2-2.1,0.2c-1.6,0-3-0.2-4.3-0.8s-2.3-1.2-3.1-2.2s-1.5-2.2-1.9-3.6s-0.6-3-0.6-4.8
			c0-2.1,0.3-3.9,0.8-5.4s1.3-2.8,2.2-3.8s2-1.7,3.3-2.2s2.7-0.7,4.2-0.7c0.6,0,1.2,0.1,1.8,0.2s1.2,0.3,1.7,0.4s1,0.4,1.4,0.6
			s0.7,0.4,0.9,0.6s0.3,0.3,0.4,0.4s0.1,0.3,0.2,0.5s0.1,0.4,0.1,0.7s0,0.6,0,1c0,0.9-0.1,1.5-0.2,1.9s-0.4,0.6-0.6,0.6
			c-0.3,0-0.5-0.1-0.8-0.3s-0.6-0.5-1.1-0.7s-0.9-0.5-1.5-0.7s-1.2-0.3-2-0.3c-1.5,0-2.7,0.6-3.5,1.8s-1.2,2.9-1.2,5.2
			c0,1.1,0.1,2.1,0.3,3s0.5,1.6,0.9,2.2s0.9,1,1.5,1.3s1.3,0.4,2.1,0.4c0.8,0,1.5-0.1,2.1-0.4s1.1-0.5,1.5-0.8s0.8-0.6,1.1-0.8
			s0.5-0.4,0.8-0.4c0.1,0,0.3,0,0.4,0.1s0.2,0.2,0.2,0.4s0.1,0.5,0.1,0.8S380.8,98.9,380.8,99.4z"/>
		<path class="st7" d="M400.9,99.4c0,0.4,0,0.7,0,1s-0.1,0.5-0.1,0.7s-0.1,0.3-0.1,0.5s-0.2,0.3-0.4,0.4s-0.5,0.4-1,0.7
			s-1,0.5-1.5,0.7s-1.2,0.4-1.9,0.5s-1.4,0.2-2.1,0.2c-1.6,0-3-0.2-4.3-0.8s-2.3-1.2-3.1-2.2s-1.5-2.2-1.9-3.6s-0.6-3-0.6-4.8
			c0-2.1,0.3-3.9,0.8-5.4s1.3-2.8,2.2-3.8s2-1.7,3.3-2.2s2.7-0.7,4.2-0.7c0.6,0,1.2,0.1,1.8,0.2s1.2,0.3,1.7,0.4s1,0.4,1.4,0.6
			s0.7,0.4,0.9,0.6s0.3,0.3,0.4,0.4s0.1,0.3,0.2,0.5s0.1,0.4,0.1,0.7s0,0.6,0,1c0,0.9-0.1,1.5-0.2,1.9s-0.4,0.6-0.6,0.6
			c-0.3,0-0.5-0.1-0.8-0.3s-0.6-0.5-1.1-0.7s-0.9-0.5-1.5-0.7s-1.2-0.3-2-0.3c-1.5,0-2.7,0.6-3.5,1.8s-1.2,2.9-1.2,5.2
			c0,1.1,0.1,2.1,0.3,3s0.5,1.6,0.9,2.2s0.9,1,1.5,1.3s1.3,0.4,2.1,0.4c0.8,0,1.5-0.1,2.1-0.4s1.1-0.5,1.5-0.8s0.8-0.6,1.1-0.8
			s0.5-0.4,0.8-0.4c0.1,0,0.3,0,0.4,0.1s0.2,0.2,0.2,0.4s0.1,0.5,0.1,0.8S400.9,98.9,400.9,99.4z"/>
	</g>
</g>
</svg>
