<?xml version="1.0" encoding="utf-8"?>
<!-- Generator: Adobe Illustrator 25.4.1, SVG Export Plug-In . SVG Version: 6.00 Build 0)  -->
<svg version="1.1" id="Layer_1" xmlns="http://www.w3.org/2000/svg" xmlns:xlink="http://www.w3.org/1999/xlink" x="0px" y="0px"
	 viewBox="0 0 121 48.5" style="enable-background:new 0 0 121 48.5;" xml:space="preserve">
<style type="text/css">
	.st0{fill:#B3D4B0;}
	.st1{enable-background:new    ;}
	.st2{fill:#443633;}
	.st3{display:none;}
</style>
<g id="Layer_1_00000047050036327779796100000011175004126572901507_">
</g>
<g id="Layer_2_00000122718136807438274650000013495150811337417113_">
	<path class="st0" d="M99.7,15.1C90.2,20.3,76,32.3,70.3,44h5.5c1.5-3.8,4.7-8.5,7.2-11c15.7,7,32.1-5.2,32.1-21.2
		c0-2.9-0.6-5.8-1.7-8.9c-4.4,5.8-10.5,2-20.2,3C78.8,7.6,72.2,18.7,76.7,27.5C83.3,21.1,94.5,15.6,99.7,15.1z"/>
</g>
<g id="Layer_4">
	<g class="st1">
		<path class="st2" d="M30.4,32.7c0.1,0.4,0.2,0.6,0.2,0.8s0,0.4-0.1,0.5c-0.1,0.1-0.3,0.2-0.6,0.2s-0.6,0-1.1,0c-0.5,0-0.9,0-1.2,0
			c-0.3,0-0.5,0-0.6-0.1c-0.1,0-0.2-0.1-0.3-0.2s-0.1-0.2-0.1-0.3l-1.3-3.8h-7.1L17,33.5c0,0.1-0.1,0.3-0.2,0.3
			c-0.1,0.1-0.2,0.2-0.3,0.2c-0.1,0.1-0.3,0.1-0.6,0.1s-0.6,0-1,0c-0.4,0-0.8,0-1.1,0s-0.4-0.1-0.5-0.2s-0.1-0.3-0.1-0.5
			s0.1-0.5,0.2-0.8l5.8-16.8c0.1-0.2,0.1-0.3,0.2-0.4c0.1-0.1,0.2-0.2,0.4-0.2s0.4-0.1,0.7-0.1c0.3,0,0.7,0,1.2,0c0.6,0,1,0,1.4,0
			c0.3,0,0.6,0,0.8,0.1s0.3,0.1,0.4,0.2s0.2,0.3,0.2,0.4L30.4,32.7z M21.7,18.8L21.7,18.8L19,26.9h5.4L21.7,18.8z"/>
		<path class="st2" d="M46,26.9c0,1.2-0.1,2.2-0.4,3.1s-0.6,1.7-1.1,2.4s-1.1,1.2-1.8,1.5s-1.5,0.5-2.4,0.5c-0.4,0-0.8,0-1.2-0.1
			c-0.4-0.1-0.7-0.2-1.1-0.4s-0.7-0.4-1-0.7s-0.7-0.6-1-1v1.4c0,0.1,0,0.2-0.1,0.3c-0.1,0.1-0.1,0.1-0.3,0.2s-0.3,0.1-0.5,0.1
			s-0.5,0-0.7,0c-0.3,0-0.6,0-0.8,0s-0.4-0.1-0.5-0.1S33,34,32.9,33.9c0-0.1-0.1-0.2-0.1-0.3V14.4c0-0.1,0-0.2,0.1-0.3
			s0.2-0.1,0.3-0.2c0.1-0.1,0.3-0.1,0.6-0.1s0.5,0,0.9,0s0.7,0,0.9,0s0.4,0.1,0.6,0.1c0.1,0.1,0.2,0.1,0.3,0.2s0.1,0.2,0.1,0.3v7.2
			c0.3-0.3,0.7-0.6,1-0.8s0.7-0.4,1-0.6s0.7-0.3,1-0.3s0.7-0.1,1.1-0.1c1,0,1.8,0.2,2.5,0.6s1.2,0.9,1.6,1.6s0.7,1.4,0.9,2.3
			C45.9,25.1,46,26,46,26.9z M42.2,27.2c0-0.6,0-1.1-0.1-1.6s-0.2-1-0.4-1.4s-0.5-0.7-0.8-1s-0.7-0.4-1.2-0.4c-0.2,0-0.5,0-0.7,0.1
			s-0.5,0.2-0.7,0.4s-0.5,0.4-0.8,0.6s-0.5,0.6-0.8,1v4.3c0.5,0.7,1,1.2,1.5,1.5c0.5,0.3,1,0.5,1.5,0.5c0.5,0,0.9-0.1,1.2-0.4
			s0.6-0.6,0.8-1s0.4-0.8,0.5-1.3S42.2,27.7,42.2,27.2z"/>
		<path class="st2" d="M62.2,27c0,1.1-0.1,2.1-0.4,3s-0.7,1.7-1.3,2.4s-1.3,1.2-2.2,1.5s-1.9,0.5-3.1,0.5c-1.2,0-2.2-0.2-3-0.5
			s-1.6-0.8-2.1-1.4s-1-1.4-1.3-2.3s-0.4-1.9-0.4-3.1c0-1.1,0.1-2.1,0.4-3.1c0.3-0.9,0.7-1.7,1.3-2.4c0.6-0.7,1.3-1.2,2.2-1.5
			s1.9-0.5,3.1-0.5c1.2,0,2.2,0.2,3,0.5c0.9,0.3,1.6,0.8,2.1,1.4c0.6,0.6,1,1.4,1.3,2.3S62.2,25.8,62.2,27z M58.4,27.1
			c0-0.6-0.1-1.2-0.2-1.8c-0.1-0.5-0.3-1-0.5-1.4s-0.6-0.7-1-0.9s-0.9-0.3-1.5-0.3c-0.5,0-1,0.1-1.4,0.3s-0.7,0.5-1,0.9
			s-0.5,0.8-0.6,1.4C52,25.8,52,26.4,52,27.1c0,0.6,0.1,1.2,0.2,1.8c0.1,0.5,0.3,1,0.5,1.4s0.6,0.7,1,0.9c0.4,0.2,0.9,0.3,1.5,0.3
			c0.6,0,1-0.1,1.5-0.3c0.4-0.2,0.7-0.5,1-0.9s0.5-0.8,0.6-1.4C58.3,28.4,58.4,27.8,58.4,27.1z"/>
		<path class="st2" d="M77.5,33.6c0,0.1,0,0.2-0.1,0.3c0,0.1-0.1,0.1-0.3,0.2s-0.3,0.1-0.5,0.1s-0.5,0-0.8,0c-0.3,0-0.6,0-0.8,0
			s-0.4-0.1-0.5-0.1s-0.2-0.1-0.2-0.2c0-0.1-0.1-0.2-0.1-0.3v-1.5c-0.7,0.8-1.5,1.4-2.2,1.8s-1.5,0.6-2.3,0.6
			c-0.9,0-1.7-0.1-2.3-0.4s-1.1-0.7-1.5-1.2s-0.6-1.1-0.8-1.8S65,29.6,65,28.6v-8c0-0.1,0-0.2,0.1-0.3c0.1-0.1,0.2-0.1,0.3-0.2
			s0.3-0.1,0.6-0.1s0.5,0,0.9,0c0.4,0,0.7,0,0.9,0s0.4,0.1,0.6,0.1s0.2,0.1,0.3,0.2c0.1,0.1,0.1,0.2,0.1,0.3V28c0,0.7,0,1.2,0.1,1.6
			s0.2,0.7,0.4,0.9s0.4,0.5,0.7,0.6c0.3,0.1,0.6,0.2,1,0.2c0.5,0,0.9-0.2,1.4-0.5s1-0.8,1.5-1.5v-8.7c0-0.1,0-0.2,0.1-0.3
			c0.1-0.1,0.2-0.1,0.3-0.2s0.3-0.1,0.6-0.1s0.5,0,0.9,0s0.7,0,0.9,0s0.4,0.1,0.6,0.1s0.2,0.1,0.3,0.2c0.1,0.1,0.1,0.2,0.1,0.3V33.6
			z"/>
		<path class="st2" d="M88.9,32.4c0,0.4,0,0.8-0.1,1c-0.1,0.2-0.1,0.4-0.2,0.5s-0.2,0.2-0.4,0.2c-0.2,0.1-0.4,0.1-0.6,0.2
			c-0.2,0.1-0.5,0.1-0.7,0.1s-0.5,0-0.8,0c-0.7,0-1.4-0.1-1.9-0.3s-1-0.5-1.3-0.9s-0.6-0.9-0.8-1.5s-0.2-1.3-0.2-2.1v-6.7h-1.6
			c-0.2,0-0.3-0.1-0.4-0.3s-0.1-0.6-0.1-1.2c0-0.3,0-0.5,0-0.7s0.1-0.3,0.1-0.5c0-0.1,0.1-0.2,0.2-0.2s0.2-0.1,0.3-0.1h1.6v-2.9
			c0-0.1,0-0.2,0.1-0.3s0.2-0.1,0.3-0.2c0.1-0.1,0.3-0.1,0.6-0.1c0.2,0,0.5,0,0.9,0c0.4,0,0.7,0,0.9,0c0.2,0,0.4,0.1,0.6,0.1
			c0.1,0.1,0.2,0.1,0.3,0.2s0.1,0.2,0.1,0.3v2.9h2.8c0.1,0,0.2,0,0.3,0.1s0.1,0.1,0.2,0.2c0,0.1,0.1,0.3,0.1,0.5s0,0.4,0,0.7
			c0,0.5,0,0.9-0.1,1.2s-0.2,0.3-0.4,0.3h-2.9v6.1c0,0.7,0.1,1.2,0.3,1.6s0.6,0.5,1.2,0.5c0.2,0,0.4,0,0.5-0.1
			c0.2,0,0.3-0.1,0.4-0.1c0.1,0,0.2-0.1,0.3-0.1c0.1,0,0.2-0.1,0.2-0.1c0.1,0,0.1,0,0.2,0.1c0.1,0,0.1,0.1,0.1,0.2
			c0,0.1,0.1,0.2,0.1,0.4S88.9,32.1,88.9,32.4z"/>
	</g>
</g>
<g id="Layer_3" class="st3">
	
		<image style="display:inline;overflow:visible;enable-background:new    ;" width="284" height="173" xlink:href="8E61ED6F.jpeg"  transform="matrix(0.2553 0 0 0.2553 -10.593 26.8944)">
	</image>
</g>
</svg>
