<?xml version="1.0" encoding="utf-8"?>
<!-- Generator: Adobe Illustrator 25.4.1, SVG Export Plug-In . SVG Version: 6.00 Build 0)  -->
<svg version="1.1" id="Layer_1" xmlns="http://www.w3.org/2000/svg" xmlns:xlink="http://www.w3.org/1999/xlink" x="0px" y="0px"
	 viewBox="0 0 241 48.5" style="enable-background:new 0 0 241 48.5;" xml:space="preserve">
<style type="text/css">
	.st0{fill:#B3D4B0;}
	.st1{enable-background:new    ;}
	.st2{fill:#443633;}
	.st3{display:none;}
</style>
<g id="Layer_1_00000045616510198382105660000002300962569680532617_">
</g>
<g id="Layer_2_00000124162297894212070090000004772425364229592213_">
	<path class="st0" d="M218.5,15.9C209,21.1,194.8,33,189,44.8h5.5c1.5-3.8,4.7-8.5,7.2-11c15.6,7,32.1-5.2,32.1-21.2
		c0-2.9-0.6-5.8-1.7-8.9c-4.4,5.8-10.5,2-20.2,3c-14.3,1.6-20.8,12.7-16.4,21.5C202.1,21.9,213.3,16.4,218.5,15.9z"/>
</g>
<g id="Layer_4">
	<g class="st1">
		<path class="st2" d="M25.2,32c0,0.2,0,0.5,0,0.6c0,0.2,0,0.3-0.1,0.4c0,0.1-0.1,0.2-0.1,0.3s-0.1,0.2-0.2,0.3
			c-0.1,0.1-0.3,0.3-0.6,0.4s-0.7,0.3-1.1,0.5c-0.4,0.2-1,0.3-1.5,0.4s-1.2,0.2-1.9,0.2c-1.3,0-2.5-0.2-3.5-0.6s-1.9-1-2.7-1.8
			c-0.7-0.8-1.3-1.8-1.7-3s-0.6-2.6-0.6-4.2c0-1.6,0.2-3,0.6-4.3s1-2.3,1.8-3.1s1.7-1.5,2.8-1.9s2.3-0.7,3.6-0.7c0.5,0,1,0,1.5,0.1
			s0.9,0.2,1.4,0.3c0.4,0.1,0.8,0.3,1.1,0.5s0.6,0.3,0.7,0.5c0.1,0.1,0.2,0.2,0.3,0.3s0.1,0.2,0.1,0.3s0.1,0.3,0.1,0.5s0,0.4,0,0.7
			c0,0.3,0,0.5,0,0.7S25,20.1,25,20.2s-0.1,0.2-0.2,0.3s-0.1,0.1-0.2,0.1c-0.1,0-0.3-0.1-0.6-0.3c-0.2-0.2-0.5-0.4-0.9-0.6
			s-0.8-0.4-1.3-0.6c-0.5-0.2-1.1-0.3-1.8-0.3c-0.8,0-1.4,0.2-2,0.5c-0.6,0.3-1.1,0.7-1.5,1.3c-0.4,0.6-0.7,1.3-0.9,2.1
			s-0.3,1.7-0.3,2.7c0,1.1,0.1,2.1,0.3,2.9c0.2,0.8,0.6,1.5,1,2s0.9,0.9,1.5,1.2c0.6,0.3,1.3,0.4,2,0.4c0.7,0,1.3-0.1,1.8-0.2
			c0.5-0.2,0.9-0.3,1.3-0.5s0.6-0.4,0.9-0.5s0.4-0.2,0.5-0.2c0.1,0,0.2,0,0.2,0.1s0.1,0.1,0.1,0.2s0.1,0.3,0.1,0.5
			C25.2,31.4,25.2,31.7,25.2,32z"/>
		<path class="st2" d="M38.9,34.5c0,0.1,0,0.2-0.1,0.3s-0.3,0.1-0.5,0.2C38,35,37.7,35,37.3,35c-0.4,0-0.8,0-1-0.1
			c-0.2,0-0.3-0.1-0.4-0.2s-0.1-0.2-0.1-0.3v-1c-0.5,0.6-1.1,1-1.8,1.3s-1.5,0.5-2.3,0.5c-0.7,0-1.3-0.1-1.9-0.3
			c-0.6-0.2-1.1-0.4-1.5-0.8c-0.4-0.4-0.8-0.8-1-1.3s-0.4-1.1-0.4-1.8c0-0.8,0.1-1.4,0.4-2c0.3-0.6,0.7-1,1.3-1.4
			c0.6-0.4,1.3-0.6,2.2-0.8s1.9-0.3,3.1-0.3h1.3v-0.8c0-0.4,0-0.8-0.1-1.1c-0.1-0.3-0.2-0.6-0.4-0.8s-0.4-0.4-0.8-0.5
			s-0.7-0.1-1.2-0.1c-0.6,0-1.2,0.1-1.6,0.2s-0.9,0.3-1.3,0.5s-0.7,0.3-0.9,0.5s-0.5,0.2-0.6,0.2c-0.1,0-0.2,0-0.3-0.1
			s-0.2-0.2-0.2-0.3s-0.1-0.3-0.1-0.5s0-0.4,0-0.6c0-0.3,0-0.5,0.1-0.7s0.1-0.3,0.3-0.5c0.1-0.1,0.4-0.3,0.7-0.5
			c0.3-0.2,0.7-0.3,1.2-0.5s1-0.3,1.5-0.4s1.1-0.1,1.7-0.1c1,0,1.9,0.1,2.6,0.3c0.7,0.2,1.3,0.5,1.8,0.9s0.8,0.9,1,1.6
			s0.3,1.4,0.3,2.3V34.5z M35.2,28.9h-1.4c-0.6,0-1.1,0-1.5,0.1s-0.8,0.2-1,0.4s-0.5,0.4-0.6,0.6c-0.1,0.2-0.2,0.5-0.2,0.9
			c0,0.5,0.2,1,0.5,1.3s0.8,0.5,1.4,0.5c0.5,0,1-0.1,1.4-0.4s0.9-0.7,1.3-1.2V28.9z"/>
		<path class="st2" d="M50.9,22.6c0,0.4,0,0.6,0,0.9s0,0.4-0.1,0.5s-0.1,0.2-0.2,0.3s-0.1,0.1-0.2,0.1c-0.1,0-0.2,0-0.3-0.1
			c-0.1,0-0.2-0.1-0.3-0.1s-0.3-0.1-0.4-0.1S49.1,24,48.9,24c-0.2,0-0.4,0-0.6,0.1c-0.2,0.1-0.4,0.2-0.6,0.4s-0.4,0.4-0.7,0.7
			c-0.2,0.3-0.5,0.7-0.8,1.1v8.1c0,0.1,0,0.2-0.1,0.3c-0.1,0.1-0.2,0.1-0.3,0.2s-0.3,0.1-0.6,0.1c-0.2,0-0.5,0-0.9,0s-0.7,0-0.9,0
			c-0.2,0-0.4-0.1-0.6-0.1s-0.2-0.1-0.3-0.2c-0.1-0.1-0.1-0.2-0.1-0.3V21.4c0-0.1,0-0.2,0.1-0.3c0-0.1,0.1-0.1,0.3-0.2
			s0.3-0.1,0.5-0.1s0.5,0,0.8,0c0.3,0,0.6,0,0.8,0s0.4,0.1,0.5,0.1s0.2,0.1,0.2,0.2c0,0.1,0.1,0.2,0.1,0.3V23c0.3-0.5,0.7-0.9,1-1.2
			s0.6-0.6,0.9-0.8s0.5-0.3,0.8-0.4c0.3-0.1,0.5-0.1,0.8-0.1c0.1,0,0.3,0,0.4,0c0.1,0,0.3,0,0.5,0.1c0.2,0,0.3,0.1,0.4,0.1
			c0.1,0,0.2,0.1,0.3,0.1s0.1,0.1,0.1,0.2s0,0.1,0.1,0.2c0,0.1,0,0.3,0,0.5S50.9,22.2,50.9,22.6z"/>
		<path class="st2" d="M60.9,33.1c0,0.4,0,0.8-0.1,1c-0.1,0.2-0.1,0.4-0.2,0.5c-0.1,0.1-0.2,0.2-0.4,0.2c-0.2,0.1-0.4,0.1-0.6,0.2
			c-0.2,0.1-0.5,0.1-0.7,0.1s-0.5,0-0.8,0c-0.7,0-1.4-0.1-1.9-0.3s-1-0.5-1.3-0.9c-0.4-0.4-0.6-0.9-0.8-1.5s-0.2-1.3-0.2-2.1v-6.7
			h-1.6c-0.2,0-0.3-0.1-0.4-0.3s-0.1-0.6-0.1-1.2c0-0.3,0-0.5,0-0.7s0.1-0.3,0.1-0.5c0-0.1,0.1-0.2,0.2-0.2s0.2-0.1,0.3-0.1h1.6
			v-2.9c0-0.1,0-0.2,0.1-0.3s0.2-0.1,0.3-0.2c0.1-0.1,0.3-0.1,0.6-0.1c0.2,0,0.5,0,0.9,0c0.4,0,0.7,0,0.9,0c0.2,0,0.4,0.1,0.6,0.1
			c0.1,0.1,0.2,0.1,0.3,0.2s0.1,0.2,0.1,0.3v2.9h2.8c0.1,0,0.2,0,0.3,0.1s0.1,0.1,0.2,0.2c0,0.1,0.1,0.3,0.1,0.5s0,0.4,0,0.7
			c0,0.5,0,0.9-0.1,1.2s-0.2,0.3-0.4,0.3h-2.9V30c0,0.7,0.1,1.2,0.3,1.6c0.2,0.4,0.6,0.5,1.2,0.5c0.2,0,0.4,0,0.5-0.1
			c0.2,0,0.3-0.1,0.4-0.1c0.1,0,0.2-0.1,0.3-0.1c0.1,0,0.2-0.1,0.2-0.1c0.1,0,0.1,0,0.2,0.1c0.1,0,0.1,0.1,0.1,0.2
			c0,0.1,0.1,0.2,0.1,0.4S60.9,32.9,60.9,33.1z"/>
		<path class="st2" d="M69.7,29.6c0-0.5,0.1-1.1,0.2-1.5c0.2-0.5,0.4-0.9,0.7-1.4s0.7-0.8,1.2-1.2s1-0.8,1.6-1.1
			c-0.4-0.4-0.7-0.9-0.9-1.3c-0.3-0.4-0.5-0.8-0.6-1.1s-0.3-0.7-0.4-1c-0.1-0.3-0.1-0.7-0.1-1c0-0.7,0.1-1.3,0.4-1.9
			c0.2-0.6,0.6-1.1,1.1-1.6s1.2-0.8,2-1c0.8-0.3,1.8-0.4,2.9-0.4c1,0,1.9,0.1,2.7,0.3s1.4,0.5,1.8,0.8c0.5,0.4,0.8,0.8,1.1,1.3
			c0.2,0.5,0.4,1.1,0.4,1.8c0,0.6-0.1,1.1-0.3,1.6s-0.5,1-0.9,1.4s-0.9,0.9-1.5,1.3s-1.3,0.8-2.1,1.3c0.3,0.3,0.6,0.6,0.9,1
			c0.3,0.3,0.7,0.7,1,1c0.3,0.3,0.7,0.7,1,1s0.7,0.6,1,0.9c0.1-0.2,0.2-0.4,0.3-0.7s0.2-0.5,0.3-0.8s0.1-0.6,0.2-0.9
			s0.1-0.6,0.1-0.9V25c0-0.1,0-0.2,0.1-0.3s0.1-0.1,0.2-0.2s0.3-0.1,0.5-0.1s0.5,0,0.9,0c0.3,0,0.6,0,0.8,0c0.2,0,0.4,0,0.5,0.1
			s0.2,0.1,0.3,0.2c0.1,0.1,0.1,0.2,0.1,0.3v0.5c0,0.5,0,0.9-0.1,1.4s-0.2,0.9-0.3,1.4c-0.1,0.5-0.3,0.9-0.5,1.3
			c-0.2,0.4-0.4,0.8-0.6,1.2c0.3,0.3,0.6,0.5,0.9,0.7s0.5,0.3,0.6,0.4c0.2,0.1,0.3,0.2,0.4,0.2s0.2,0.1,0.3,0.1c0.1,0,0.2,0,0.3,0
			s0.2,0,0.2,0.1s0.1,0.2,0.1,0.4s0,0.4,0,0.8c0,0.4,0,0.6,0,0.8s0,0.4-0.1,0.5s-0.1,0.2-0.2,0.2c-0.1,0.1-0.2,0.1-0.4,0.2
			c-0.2,0.1-0.4,0.1-0.7,0.1c-0.2,0-0.4,0-0.7-0.1c-0.2-0.1-0.5-0.2-0.8-0.3s-0.7-0.4-1.1-0.6c-0.4-0.2-0.9-0.6-1.4-1
			c-0.5,0.3-0.9,0.6-1.4,0.8c-0.5,0.2-1,0.5-1.5,0.6s-1.1,0.3-1.6,0.4s-1.2,0.1-1.8,0.1c-0.6,0-1.3,0-1.9-0.1s-1.2-0.2-1.7-0.4
			c-0.5-0.2-1-0.5-1.5-0.8s-0.8-0.7-1.1-1.1c-0.3-0.4-0.6-0.9-0.7-1.4C69.8,30.9,69.7,30.3,69.7,29.6z M73.7,29.4
			c0,0.4,0.1,0.8,0.2,1.2s0.4,0.7,0.7,0.9s0.7,0.5,1.1,0.6c0.4,0.1,0.9,0.2,1.5,0.2c0.3,0,0.6,0,0.9-0.1c0.3-0.1,0.6-0.1,0.8-0.2
			c0.3-0.1,0.5-0.2,0.8-0.3c0.2-0.1,0.5-0.3,0.7-0.4c-0.4-0.4-0.9-0.7-1.3-1.1c-0.4-0.4-0.9-0.8-1.3-1.2s-0.8-0.8-1.2-1.2
			c-0.4-0.4-0.7-0.8-1-1.1c-0.3,0.2-0.6,0.4-0.9,0.7c-0.2,0.2-0.4,0.5-0.6,0.7s-0.3,0.5-0.3,0.7S73.7,29.2,73.7,29.4z M75.4,19.7
			c0,0.2,0,0.4,0.1,0.6c0.1,0.2,0.2,0.5,0.3,0.7s0.3,0.5,0.5,0.8s0.4,0.6,0.6,0.9c0.6-0.3,1.1-0.6,1.4-0.9s0.7-0.5,0.9-0.8
			c0.2-0.2,0.4-0.5,0.5-0.7c0.1-0.2,0.1-0.5,0.1-0.8c0-0.2,0-0.5-0.1-0.7s-0.2-0.4-0.4-0.5c-0.2-0.2-0.4-0.3-0.7-0.4s-0.6-0.1-1-0.1
			c-0.4,0-0.8,0-1,0.1c-0.3,0.1-0.5,0.2-0.7,0.4s-0.3,0.4-0.4,0.6C75.4,19.2,75.4,19.5,75.4,19.7z"/>
		<path class="st2" d="M111.6,32c0,0.2,0,0.5,0,0.6c0,0.2,0,0.3-0.1,0.4c0,0.1-0.1,0.2-0.1,0.3s-0.1,0.2-0.2,0.3
			c-0.1,0.1-0.3,0.3-0.6,0.4s-0.7,0.3-1.1,0.5c-0.4,0.2-1,0.3-1.5,0.4s-1.2,0.2-1.9,0.2c-1.3,0-2.5-0.2-3.5-0.6s-1.9-1-2.7-1.8
			c-0.7-0.8-1.3-1.8-1.7-3s-0.6-2.6-0.6-4.2c0-1.6,0.2-3,0.6-4.3s1-2.3,1.8-3.1s1.7-1.5,2.8-1.9s2.3-0.7,3.6-0.7c0.5,0,1,0,1.5,0.1
			s0.9,0.2,1.4,0.3c0.4,0.1,0.8,0.3,1.1,0.5s0.6,0.3,0.7,0.5c0.1,0.1,0.2,0.2,0.3,0.3s0.1,0.2,0.1,0.3s0.1,0.3,0.1,0.5s0,0.4,0,0.7
			c0,0.3,0,0.5,0,0.7s-0.1,0.4-0.1,0.5s-0.1,0.2-0.2,0.3s-0.1,0.1-0.2,0.1c-0.1,0-0.3-0.1-0.6-0.3c-0.2-0.2-0.5-0.4-0.9-0.6
			s-0.8-0.4-1.3-0.6c-0.5-0.2-1.1-0.3-1.8-0.3c-0.8,0-1.4,0.2-2,0.5c-0.6,0.3-1.1,0.7-1.5,1.3c-0.4,0.6-0.7,1.3-0.9,2.1
			s-0.3,1.7-0.3,2.7c0,1.1,0.1,2.1,0.3,2.9c0.2,0.8,0.6,1.5,1,2s0.9,0.9,1.5,1.2c0.6,0.3,1.3,0.4,2,0.4c0.7,0,1.3-0.1,1.8-0.2
			c0.5-0.2,0.9-0.3,1.3-0.5s0.6-0.4,0.9-0.5s0.4-0.2,0.5-0.2c0.1,0,0.2,0,0.2,0.1s0.1,0.1,0.1,0.2s0.1,0.3,0.1,0.5
			C111.6,31.4,111.6,31.7,111.6,32z"/>
		<path class="st2" d="M126.7,34.4c0,0.1,0,0.2-0.1,0.3c-0.1,0.1-0.2,0.1-0.3,0.2s-0.3,0.1-0.6,0.1c-0.2,0-0.5,0-0.9,0
			c-0.4,0-0.7,0-0.9,0c-0.2,0-0.4-0.1-0.6-0.1s-0.2-0.1-0.3-0.2c-0.1-0.1-0.1-0.2-0.1-0.3V27c0-0.6,0-1.1-0.1-1.5s-0.2-0.7-0.4-0.9
			c-0.2-0.3-0.4-0.5-0.7-0.6s-0.6-0.2-1-0.2c-0.5,0-0.9,0.2-1.4,0.5s-1,0.8-1.5,1.5v8.7c0,0.1,0,0.2-0.1,0.3
			c-0.1,0.1-0.2,0.1-0.3,0.2s-0.3,0.1-0.6,0.1c-0.2,0-0.5,0-0.9,0s-0.7,0-0.9,0c-0.2,0-0.4-0.1-0.6-0.1s-0.2-0.1-0.3-0.2
			c-0.1-0.1-0.1-0.2-0.1-0.3V15.2c0-0.1,0-0.2,0.1-0.3s0.2-0.1,0.3-0.2c0.1-0.1,0.3-0.1,0.6-0.1s0.5,0,0.9,0s0.7,0,0.9,0
			s0.4,0.1,0.6,0.1c0.1,0.1,0.2,0.1,0.3,0.2s0.1,0.2,0.1,0.3v7.2c0.6-0.6,1.3-1.1,1.9-1.4c0.7-0.3,1.3-0.5,2.1-0.5
			c0.9,0,1.6,0.1,2.2,0.4s1.1,0.7,1.5,1.2s0.6,1.1,0.8,1.8s0.2,1.5,0.2,2.5V34.4z"/>
		<path class="st2" d="M142.4,27.5c0,0.4-0.1,0.8-0.3,1s-0.5,0.3-0.8,0.3h-8c0,0.6,0.1,1.1,0.2,1.5c0.1,0.5,0.3,0.8,0.6,1.2
			c0.3,0.3,0.7,0.6,1.1,0.7s1,0.2,1.6,0.2c0.6,0,1.2,0,1.7-0.1c0.5-0.1,0.9-0.2,1.3-0.3c0.4-0.1,0.7-0.2,0.9-0.3
			c0.2-0.1,0.4-0.1,0.6-0.1c0.1,0,0.2,0,0.2,0.1c0.1,0,0.1,0.1,0.1,0.2s0.1,0.2,0.1,0.4c0,0.2,0,0.4,0,0.6c0,0.2,0,0.4,0,0.6
			c0,0.2,0,0.3,0,0.4s0,0.2-0.1,0.3c0,0.1-0.1,0.1-0.2,0.2s-0.2,0.2-0.5,0.3s-0.6,0.2-1.1,0.3c-0.4,0.1-0.9,0.2-1.5,0.3
			c-0.6,0.1-1.2,0.1-1.8,0.1c-1.2,0-2.2-0.1-3.1-0.4s-1.6-0.7-2.2-1.3s-1-1.3-1.3-2.3s-0.4-2-0.4-3.2c0-1.2,0.2-2.2,0.5-3.1
			c0.3-0.9,0.7-1.7,1.3-2.4c0.6-0.6,1.3-1.1,2.1-1.5s1.8-0.5,2.8-0.5c1.1,0,2,0.2,2.8,0.5s1.4,0.8,1.9,1.3c0.5,0.6,0.9,1.2,1.1,2
			c0.2,0.8,0.4,1.6,0.4,2.5V27.5z M138.8,26.5c0-1-0.2-1.8-0.6-2.4c-0.4-0.6-1.1-0.9-2.1-0.9c-0.5,0-0.9,0.1-1.2,0.3
			s-0.6,0.4-0.9,0.7c-0.2,0.3-0.4,0.7-0.5,1.1c-0.1,0.4-0.2,0.8-0.2,1.3H138.8z"/>
		<path class="st2" d="M155.3,32.3c0,0.3,0,0.5,0,0.6c0,0.2,0,0.3-0.1,0.4s-0.1,0.2-0.1,0.3c0,0.1-0.1,0.2-0.2,0.3
			c-0.1,0.1-0.3,0.2-0.6,0.4c-0.3,0.2-0.6,0.3-1,0.4s-0.8,0.2-1.2,0.3s-0.9,0.1-1.3,0.1c-1,0-1.9-0.2-2.7-0.5s-1.4-0.8-2-1.4
			c-0.5-0.6-0.9-1.4-1.2-2.2s-0.4-1.9-0.4-3c0-1.3,0.2-2.4,0.5-3.4c0.3-1,0.8-1.7,1.4-2.4s1.3-1.1,2.1-1.4s1.7-0.5,2.6-0.5
			c0.4,0,0.8,0,1.1,0.1s0.7,0.2,1.1,0.3s0.6,0.2,0.9,0.4s0.4,0.3,0.5,0.4s0.2,0.2,0.2,0.3c0,0.1,0.1,0.2,0.1,0.3s0,0.3,0.1,0.4
			s0,0.4,0,0.6c0,0.6,0,1-0.1,1.2s-0.2,0.3-0.4,0.3c-0.2,0-0.3-0.1-0.5-0.2s-0.4-0.3-0.7-0.5s-0.6-0.3-0.9-0.5s-0.8-0.2-1.3-0.2
			c-1,0-1.7,0.4-2.2,1.1c-0.5,0.7-0.8,1.8-0.8,3.2c0,0.7,0.1,1.3,0.2,1.9s0.3,1,0.6,1.3s0.6,0.6,0.9,0.8c0.4,0.2,0.8,0.3,1.3,0.3
			c0.5,0,0.9-0.1,1.3-0.2c0.4-0.2,0.7-0.3,1-0.5s0.5-0.4,0.7-0.5c0.2-0.2,0.3-0.2,0.5-0.2c0.1,0,0.2,0,0.2,0.1s0.1,0.1,0.1,0.3
			c0,0.1,0.1,0.3,0.1,0.5S155.3,32,155.3,32.3z"/>
		<path class="st2" d="M170.1,34.4c0,0.1,0,0.2-0.1,0.3c-0.1,0.1-0.2,0.1-0.3,0.2c-0.1,0-0.3,0.1-0.6,0.1c-0.2,0-0.6,0-1,0
			c-0.4,0-0.7,0-1,0s-0.5-0.1-0.6-0.1c-0.2,0-0.3-0.1-0.4-0.2s-0.2-0.2-0.2-0.3l-4.4-6.9v6.9c0,0.1,0,0.2-0.1,0.3
			c-0.1,0.1-0.2,0.1-0.3,0.2s-0.3,0.1-0.6,0.1c-0.2,0-0.5,0-0.9,0s-0.7,0-0.9,0c-0.2,0-0.4-0.1-0.6-0.1s-0.2-0.1-0.3-0.2
			c-0.1-0.1-0.1-0.2-0.1-0.3V15.2c0-0.1,0-0.2,0.1-0.3s0.2-0.1,0.3-0.2c0.1-0.1,0.3-0.1,0.6-0.1s0.5,0,0.9,0s0.7,0,0.9,0
			s0.4,0.1,0.6,0.1c0.1,0.1,0.2,0.1,0.3,0.2s0.1,0.2,0.1,0.3v11.5l3.9-5.2c0.1-0.1,0.2-0.2,0.3-0.3s0.2-0.2,0.4-0.2s0.4-0.1,0.6-0.1
			s0.5,0,0.9,0c0.4,0,0.7,0,0.9,0s0.4,0.1,0.6,0.1s0.3,0.1,0.3,0.2c0.1,0.1,0.1,0.2,0.1,0.3c0,0.1,0,0.3-0.1,0.5s-0.2,0.3-0.3,0.5
			l-3.8,4.3l4.4,6.8c0.1,0.2,0.2,0.4,0.3,0.5C170.1,34.2,170.1,34.3,170.1,34.4z"/>
		<path class="st2" d="M184.7,27.8c0,1.1-0.1,2.1-0.4,3s-0.7,1.7-1.3,2.4s-1.3,1.2-2.2,1.5s-1.9,0.5-3.1,0.5c-1.2,0-2.2-0.2-3-0.5
			s-1.6-0.8-2.1-1.4s-1-1.4-1.3-2.3s-0.4-1.9-0.4-3.1c0-1.1,0.1-2.1,0.4-3.1c0.3-0.9,0.7-1.7,1.3-2.4c0.6-0.7,1.3-1.2,2.2-1.5
			s1.9-0.5,3.1-0.5c1.2,0,2.2,0.2,3,0.5c0.9,0.3,1.6,0.8,2.1,1.4s1,1.4,1.3,2.3C184.6,25.6,184.7,26.6,184.7,27.8z M180.9,27.9
			c0-0.6-0.1-1.2-0.2-1.8c-0.1-0.5-0.3-1-0.5-1.4c-0.2-0.4-0.6-0.7-1-0.9s-0.9-0.3-1.5-0.3c-0.5,0-1,0.1-1.4,0.3s-0.7,0.5-1,0.9
			c-0.3,0.4-0.5,0.9-0.6,1.4c-0.1,0.5-0.2,1.2-0.2,1.9c0,0.6,0.1,1.2,0.2,1.8c0.1,0.5,0.3,1,0.5,1.4s0.6,0.7,1,0.9
			c0.4,0.2,0.9,0.3,1.5,0.3c0.6,0,1-0.1,1.5-0.3c0.4-0.2,0.7-0.5,1-0.9s0.5-0.8,0.6-1.4C180.8,29.2,180.9,28.6,180.9,27.9z"/>
		<path class="st2" d="M200,34.4c0,0.1,0,0.2-0.1,0.3c0,0.1-0.1,0.1-0.3,0.2s-0.3,0.1-0.5,0.1c-0.2,0-0.5,0-0.8,0
			c-0.3,0-0.6,0-0.8,0c-0.2,0-0.4-0.1-0.5-0.1s-0.2-0.1-0.2-0.2c0-0.1-0.1-0.2-0.1-0.3v-1.5c-0.7,0.8-1.5,1.4-2.2,1.8
			s-1.5,0.6-2.3,0.6c-0.9,0-1.7-0.1-2.3-0.4s-1.1-0.7-1.5-1.2s-0.6-1.1-0.8-1.8c-0.2-0.7-0.2-1.5-0.2-2.5v-8c0-0.1,0-0.2,0.1-0.3
			c0.1-0.1,0.2-0.1,0.3-0.2s0.3-0.1,0.6-0.1s0.5,0,0.9,0c0.4,0,0.7,0,0.9,0s0.4,0.1,0.6,0.1s0.2,0.1,0.3,0.2
			c0.1,0.1,0.1,0.2,0.1,0.3v7.4c0,0.7,0,1.2,0.1,1.6s0.2,0.7,0.4,0.9c0.2,0.3,0.4,0.5,0.7,0.6c0.3,0.1,0.6,0.2,1,0.2
			c0.5,0,0.9-0.2,1.4-0.5s1-0.8,1.5-1.5v-8.7c0-0.1,0-0.2,0.1-0.3c0.1-0.1,0.2-0.1,0.3-0.2s0.3-0.1,0.6-0.1s0.5,0,0.9,0s0.7,0,0.9,0
			s0.4,0.1,0.6,0.1s0.2,0.1,0.3,0.2c0.1,0.1,0.1,0.2,0.1,0.3V34.4z"/>
		<path class="st2" d="M211.5,33.1c0,0.4,0,0.8-0.1,1c-0.1,0.2-0.1,0.4-0.2,0.5c-0.1,0.1-0.2,0.2-0.4,0.2c-0.2,0.1-0.4,0.1-0.6,0.2
			c-0.2,0.1-0.5,0.1-0.7,0.1s-0.5,0-0.8,0c-0.7,0-1.4-0.1-1.9-0.3s-1-0.5-1.3-0.9c-0.4-0.4-0.6-0.9-0.8-1.5s-0.2-1.3-0.2-2.1v-6.7
			h-1.6c-0.2,0-0.3-0.1-0.4-0.3s-0.1-0.6-0.1-1.2c0-0.3,0-0.5,0-0.7s0.1-0.3,0.1-0.5c0-0.1,0.1-0.2,0.2-0.2s0.2-0.1,0.3-0.1h1.6
			v-2.9c0-0.1,0-0.2,0.1-0.3s0.2-0.1,0.3-0.2c0.1-0.1,0.3-0.1,0.6-0.1c0.2,0,0.5,0,0.9,0c0.4,0,0.7,0,0.9,0c0.2,0,0.4,0.1,0.6,0.1
			c0.1,0.1,0.2,0.1,0.3,0.2s0.1,0.2,0.1,0.3v2.9h2.8c0.1,0,0.2,0,0.3,0.1s0.1,0.1,0.2,0.2c0,0.1,0.1,0.3,0.1,0.5s0,0.4,0,0.7
			c0,0.5,0,0.9-0.1,1.2s-0.2,0.3-0.4,0.3H208V30c0,0.7,0.1,1.2,0.3,1.6c0.2,0.4,0.6,0.5,1.2,0.5c0.2,0,0.4,0,0.5-0.1
			c0.2,0,0.3-0.1,0.4-0.1c0.1,0,0.2-0.1,0.3-0.1c0.1,0,0.2-0.1,0.2-0.1c0.1,0,0.1,0,0.2,0.1c0.1,0,0.1,0.1,0.1,0.2
			c0,0.1,0.1,0.2,0.1,0.4S211.5,32.9,211.5,33.1z"/>
	</g>
</g>
<g id="Layer_3" class="st3">
</g>
</svg>
