<?xml version="1.0" encoding="utf-8"?>
<!-- Generator: Adobe Illustrator 25.4.1, SVG Export Plug-In . SVG Version: 6.00 Build 0)  -->
<svg version="1.1" id="Layer_1" xmlns="http://www.w3.org/2000/svg" xmlns:xlink="http://www.w3.org/1999/xlink" x="0px" y="0px"
	 viewBox="0 0 121 48.5" style="enable-background:new 0 0 121 48.5;" xml:space="preserve">
<style type="text/css">
	.st0{fill:#B3D4B0;}
	.st1{enable-background:new    ;}
	.st2{fill:#443633;}
	.st3{display:none;}
</style>
<g id="Layer_1_00000087394739529793147860000002675819173982189237_">
</g>
<g id="Layer_2_00000008832858595479380240000012383632933236211601_">
	<path class="st0" d="M99.7,15.1C90.2,20.3,76,32.3,70.3,44h5.5c1.5-3.8,4.7-8.5,7.2-11c15.7,7,32.1-5.2,32.1-21.2
		c0-2.9-0.6-5.8-1.7-8.9c-4.4,5.8-10.5,2-20.2,3c-14.4,1.7-21,12.8-16.5,21.6C83.3,21.1,94.5,15.6,99.7,15.1z"/>
</g>
<g id="Layer_4">
	<g class="st1">
		<path class="st2" d="M15.2,34.9c0,0.2,0,0.5,0,0.6s0,0.3-0.1,0.4S15,36.2,15,36.3s-0.1,0.2-0.2,0.3s-0.3,0.3-0.6,0.4
			s-0.7,0.3-1.1,0.5c-0.4,0.2-1,0.3-1.5,0.4s-1.2,0.2-1.9,0.2c-1.3,0-2.5-0.2-3.5-0.6s-1.9-1-2.7-1.8c-0.7-0.8-1.3-1.8-1.7-3
			s-0.6-2.6-0.6-4.2c0-1.6,0.2-3,0.6-4.3s1-2.3,1.8-3.1s1.7-1.5,2.8-1.9s2.3-0.7,3.6-0.7c0.5,0,1,0,1.5,0.1s0.9,0.2,1.4,0.3
			c0.4,0.1,0.8,0.3,1.1,0.5s0.6,0.3,0.7,0.5c0.1,0.1,0.2,0.2,0.3,0.3s0.1,0.2,0.1,0.3s0.1,0.3,0.1,0.5s0,0.4,0,0.7
			c0,0.3,0,0.5,0,0.7S15,22.9,15,23s-0.1,0.2-0.2,0.3s-0.1,0.1-0.2,0.1c-0.1,0-0.3-0.1-0.6-0.3c-0.2-0.2-0.5-0.4-0.9-0.6
			s-0.8-0.4-1.3-0.6c-0.5-0.2-1.1-0.3-1.8-0.3c-0.8,0-1.4,0.2-2,0.5c-0.6,0.3-1.1,0.7-1.5,1.3c-0.4,0.6-0.7,1.3-0.9,2.1
			s-0.3,1.7-0.3,2.7c0,1.1,0.1,2.1,0.3,2.9c0.2,0.8,0.6,1.5,1,2s0.9,0.9,1.5,1.2c0.6,0.3,1.3,0.4,2,0.4c0.7,0,1.3-0.1,1.8-0.2
			c0.5-0.2,0.9-0.3,1.3-0.5s0.6-0.4,0.9-0.5s0.4-0.2,0.5-0.2c0.1,0,0.2,0,0.2,0.1s0.1,0.1,0.1,0.2s0.1,0.3,0.1,0.5
			S15.2,34.5,15.2,34.9z"/>
		<path class="st2" d="M30.9,30.6c0,1.1-0.1,2.1-0.4,3s-0.7,1.7-1.3,2.4s-1.3,1.2-2.2,1.5s-1.9,0.5-3.1,0.5c-1.2,0-2.2-0.2-3-0.5
			s-1.6-0.8-2.1-1.4s-1-1.4-1.3-2.3s-0.4-1.9-0.4-3.1c0-1.1,0.1-2.1,0.4-3.1c0.3-0.9,0.7-1.7,1.3-2.4c0.6-0.7,1.3-1.2,2.2-1.5
			s1.9-0.5,3.1-0.5c1.2,0,2.2,0.2,3,0.5c0.9,0.3,1.6,0.8,2.1,1.4s1,1.4,1.3,2.3S30.9,29.4,30.9,30.6z M27.1,30.7
			c0-0.6-0.1-1.2-0.2-1.8c-0.1-0.5-0.3-1-0.5-1.4s-0.6-0.7-1-0.9s-0.9-0.3-1.5-0.3c-0.5,0-1,0.1-1.4,0.3s-0.7,0.5-1,0.9
			s-0.5,0.8-0.6,1.4c-0.1,0.5-0.2,1.2-0.2,1.9c0,0.6,0.1,1.2,0.2,1.8c0.1,0.5,0.3,1,0.5,1.4s0.6,0.7,1,0.9c0.4,0.2,0.9,0.3,1.5,0.3
			c0.6,0,1-0.1,1.5-0.3c0.4-0.2,0.7-0.5,1-0.9s0.5-0.8,0.6-1.4C27.1,32.1,27.1,31.4,27.1,30.7z"/>
		<path class="st2" d="M46.3,37.3c0,0.1,0,0.2-0.1,0.3c-0.1,0.1-0.2,0.1-0.3,0.2s-0.3,0.1-0.6,0.1s-0.5,0-0.9,0c-0.4,0-0.7,0-0.9,0
			s-0.4-0.1-0.6-0.1s-0.2-0.1-0.3-0.2c-0.1-0.1-0.1-0.2-0.1-0.3v-7.5c0-0.6,0-1.1-0.1-1.5s-0.2-0.7-0.4-0.9
			c-0.2-0.3-0.4-0.5-0.7-0.6s-0.6-0.2-1-0.2c-0.5,0-0.9,0.2-1.4,0.5s-1,0.8-1.5,1.5v8.7c0,0.1,0,0.2-0.1,0.3
			c-0.1,0.1-0.2,0.1-0.3,0.2s-0.3,0.1-0.6,0.1s-0.5,0-0.9,0s-0.7,0-0.9,0s-0.4-0.1-0.6-0.1s-0.2-0.1-0.3-0.2
			c-0.1-0.1-0.1-0.2-0.1-0.3V24.2c0-0.1,0-0.2,0.1-0.3c0-0.1,0.1-0.1,0.3-0.2s0.3-0.1,0.5-0.1s0.5,0,0.8,0c0.3,0,0.6,0,0.8,0
			s0.4,0.1,0.5,0.1s0.2,0.1,0.2,0.2c0,0.1,0.1,0.2,0.1,0.3v1.5c0.7-0.8,1.5-1.4,2.2-1.8s1.5-0.6,2.3-0.6c0.9,0,1.6,0.1,2.2,0.4
			s1.1,0.7,1.5,1.2s0.6,1.1,0.8,1.8s0.2,1.5,0.2,2.4V37.3z"/>
		<path class="st2" d="M57.4,36c0,0.4,0,0.8-0.1,1c-0.1,0.2-0.1,0.4-0.2,0.5s-0.2,0.2-0.4,0.2c-0.2,0.1-0.4,0.1-0.6,0.2
			c-0.2,0.1-0.5,0.1-0.7,0.1s-0.5,0-0.8,0c-0.7,0-1.4-0.1-1.9-0.3s-1-0.5-1.3-0.9s-0.6-0.9-0.8-1.5s-0.2-1.3-0.2-2.1v-6.7h-1.6
			c-0.2,0-0.3-0.1-0.4-0.3s-0.1-0.6-0.1-1.2c0-0.3,0-0.5,0-0.7s0.1-0.3,0.1-0.5c0-0.1,0.1-0.2,0.2-0.2s0.2-0.1,0.3-0.1h1.6v-2.9
			c0-0.1,0-0.2,0.1-0.3s0.2-0.1,0.3-0.2c0.1-0.1,0.3-0.1,0.6-0.1c0.2,0,0.5,0,0.9,0c0.4,0,0.7,0,0.9,0c0.2,0,0.4,0.1,0.6,0.1
			c0.1,0.1,0.2,0.1,0.3,0.2s0.1,0.2,0.1,0.3v2.9h2.8c0.1,0,0.2,0,0.3,0.1s0.1,0.1,0.2,0.2c0,0.1,0.1,0.3,0.1,0.5s0,0.4,0,0.7
			c0,0.5,0,0.9-0.1,1.2s-0.2,0.3-0.4,0.3H54v6.1c0,0.7,0.1,1.2,0.3,1.6s0.6,0.5,1.2,0.5c0.2,0,0.4,0,0.5-0.1c0.2,0,0.3-0.1,0.4-0.1
			c0.1,0,0.2-0.1,0.3-0.1c0.1,0,0.2-0.1,0.2-0.1c0.1,0,0.1,0,0.2,0.1c0.1,0,0.1,0.1,0.1,0.2c0,0.1,0.1,0.2,0.1,0.4
			S57.4,35.7,57.4,36z"/>
		<path class="st2" d="M70.9,37.3c0,0.1,0,0.2-0.1,0.3s-0.3,0.1-0.5,0.2c-0.2,0-0.5,0.1-0.9,0.1c-0.4,0-0.8,0-1-0.1
			c-0.2,0-0.3-0.1-0.4-0.2s-0.1-0.2-0.1-0.3v-1c-0.5,0.6-1.1,1-1.8,1.3s-1.5,0.5-2.3,0.5c-0.7,0-1.3-0.1-1.9-0.3
			c-0.6-0.2-1.1-0.4-1.5-0.8c-0.4-0.4-0.8-0.8-1-1.3S59,34.6,59,33.9c0-0.8,0.1-1.4,0.4-2c0.3-0.6,0.7-1,1.3-1.4
			c0.6-0.4,1.3-0.6,2.2-0.8s1.9-0.3,3.1-0.3h1.3v-0.8c0-0.4,0-0.8-0.1-1.1c-0.1-0.3-0.2-0.6-0.4-0.8s-0.4-0.4-0.8-0.5
			s-0.7-0.1-1.2-0.1c-0.6,0-1.2,0.1-1.6,0.2s-0.9,0.3-1.3,0.5s-0.7,0.3-0.9,0.5c-0.2,0.1-0.5,0.2-0.6,0.2c-0.1,0-0.2,0-0.3-0.1
			s-0.2-0.2-0.2-0.3s-0.1-0.3-0.1-0.5s0-0.4,0-0.6c0-0.3,0-0.5,0.1-0.7s0.1-0.3,0.3-0.5c0.1-0.1,0.4-0.3,0.7-0.5
			c0.3-0.2,0.7-0.3,1.2-0.5s1-0.3,1.5-0.4s1.1-0.1,1.7-0.1c1,0,1.9,0.1,2.6,0.3c0.7,0.2,1.3,0.5,1.8,0.9s0.8,0.9,1,1.6
			s0.3,1.4,0.3,2.3V37.3z M67.3,31.7h-1.4c-0.6,0-1.1,0-1.5,0.1s-0.8,0.2-1,0.4s-0.5,0.4-0.6,0.6c-0.1,0.2-0.2,0.5-0.2,0.9
			c0,0.5,0.2,1,0.5,1.3s0.8,0.5,1.4,0.5c0.5,0,1-0.1,1.4-0.4s0.9-0.6,1.3-1.2V31.7z"/>
		<path class="st2" d="M84.5,35.2c0,0.3,0,0.5,0,0.6c0,0.2,0,0.3-0.1,0.4s-0.1,0.2-0.1,0.3c0,0.1-0.1,0.2-0.2,0.3
			c-0.1,0.1-0.3,0.2-0.6,0.4c-0.3,0.2-0.6,0.3-1,0.4s-0.8,0.2-1.2,0.3s-0.9,0.1-1.3,0.1c-1,0-1.9-0.2-2.7-0.5s-1.4-0.8-2-1.4
			c-0.5-0.6-0.9-1.4-1.2-2.2s-0.4-1.9-0.4-3c0-1.3,0.2-2.4,0.5-3.4c0.3-1,0.8-1.7,1.4-2.4s1.3-1.1,2.1-1.4s1.7-0.5,2.6-0.5
			c0.4,0,0.8,0,1.2,0.1s0.7,0.2,1.1,0.3s0.6,0.2,0.9,0.4s0.4,0.3,0.5,0.4s0.2,0.2,0.2,0.3c0,0.1,0.1,0.2,0.1,0.3s0,0.3,0.1,0.4
			s0,0.4,0,0.6c0,0.6,0,1-0.1,1.2s-0.2,0.3-0.4,0.3c-0.2,0-0.3-0.1-0.5-0.2S83,27.2,82.7,27s-0.6-0.3-0.9-0.5s-0.8-0.2-1.3-0.2
			c-1,0-1.7,0.4-2.2,1.1c-0.5,0.7-0.8,1.8-0.8,3.2c0,0.7,0.1,1.3,0.2,1.9s0.3,1,0.6,1.3s0.6,0.6,0.9,0.8c0.4,0.2,0.8,0.3,1.3,0.3
			c0.5,0,0.9-0.1,1.3-0.2s0.7-0.3,1-0.5s0.5-0.4,0.7-0.5c0.2-0.2,0.3-0.2,0.5-0.2c0.1,0,0.2,0,0.2,0.1s0.1,0.1,0.1,0.3
			c0,0.1,0.1,0.3,0.1,0.5S84.5,34.9,84.5,35.2z"/>
		<path class="st2" d="M94.9,36c0,0.4,0,0.8-0.1,1c-0.1,0.2-0.1,0.4-0.2,0.5s-0.2,0.2-0.4,0.2c-0.2,0.1-0.4,0.1-0.6,0.2
			c-0.2,0.1-0.5,0.1-0.7,0.1s-0.5,0-0.8,0c-0.7,0-1.4-0.1-1.9-0.3s-1-0.5-1.3-0.9s-0.6-0.9-0.8-1.5s-0.2-1.3-0.2-2.1v-6.7h-1.6
			c-0.2,0-0.3-0.1-0.4-0.3s-0.1-0.6-0.1-1.2c0-0.3,0-0.5,0-0.7s0.1-0.3,0.1-0.5c0-0.1,0.1-0.2,0.2-0.2s0.2-0.1,0.3-0.1h1.6v-2.9
			c0-0.1,0-0.2,0.1-0.3s0.2-0.1,0.3-0.2c0.1-0.1,0.3-0.1,0.6-0.1c0.2,0,0.5,0,0.9,0c0.4,0,0.7,0,0.9,0c0.2,0,0.4,0.1,0.6,0.1
			c0.1,0.1,0.2,0.1,0.3,0.2s0.1,0.2,0.1,0.3v2.9h2.8c0.1,0,0.2,0,0.3,0.1s0.1,0.1,0.2,0.2c0,0.1,0.1,0.3,0.1,0.5s0,0.4,0,0.7
			c0,0.5,0,0.9-0.1,1.2s-0.2,0.3-0.4,0.3h-2.9v6.1c0,0.7,0.1,1.2,0.3,1.6S92.4,35,93,35c0.2,0,0.4,0,0.5-0.1c0.2,0,0.3-0.1,0.4-0.1
			c0.1,0,0.2-0.1,0.3-0.1c0.1,0,0.2-0.1,0.2-0.1c0.1,0,0.1,0,0.2,0.1c0.1,0,0.1,0.1,0.1,0.2c0,0.1,0.1,0.2,0.1,0.4
			S94.9,35.7,94.9,36z"/>
	</g>
</g>
<g id="Layer_3" class="st3">
</g>
</svg>
