<?xml version="1.0" encoding="utf-8"?>
<!-- Generator: Adobe Illustrator 25.4.1, SVG Export Plug-In . SVG Version: 6.00 Build 0)  -->
<svg version="1.1" id="Layer_1" xmlns="http://www.w3.org/2000/svg" xmlns:xlink="http://www.w3.org/1999/xlink" x="0px" y="0px"
	 viewBox="0 0 178.2 48.5" style="enable-background:new 0 0 178.2 48.5;" xml:space="preserve">
<style type="text/css">
	.st0{fill:#B3D4B0;}
	.st1{enable-background:new    ;}
	.st2{fill:#443633;}
	.st3{display:none;}
</style>
<g id="Layer_1_00000127732663853266624700000012442437619397077391_">
</g>
<g id="Layer_2_00000080905028934429643470000006969468297817566336_">
	<path class="st0" d="M162.9,15.9c-9.5,5.2-23.7,17.1-29.5,28.9h5.5c1.5-3.8,4.7-8.5,7.2-11c15.6,7,32.1-5.2,32.1-21.2
		c0-2.9-0.6-5.8-1.7-8.9c-4.4,5.8-10.5,2-20.2,3c-14.3,1.6-20.8,12.7-16.4,21.5C146.4,21.9,157.6,16.4,162.9,15.9z"/>
</g>
<g id="Layer_4">
	<g class="st1">
		<path class="st2" d="M13.3,33.4c0,0.3,0,0.5,0,0.7c0,0.2-0.1,0.3-0.1,0.5S13,34.8,13,34.8c-0.1,0.1-0.2,0.1-0.2,0.1H3.2
			c-0.3,0-0.6-0.1-0.8-0.3c-0.2-0.2-0.3-0.5-0.3-0.9V17.2c0-0.4,0.1-0.7,0.3-0.9C2.6,16.1,2.9,16,3.2,16h9.5c0.1,0,0.2,0,0.2,0.1
			s0.1,0.1,0.2,0.3s0.1,0.3,0.1,0.5c0,0.2,0,0.4,0,0.7c0,0.3,0,0.5,0,0.7c0,0.2-0.1,0.3-0.1,0.5s-0.1,0.2-0.2,0.3S12.8,19,12.7,19
			H5.9v4.6h5.7c0.1,0,0.2,0,0.2,0.1c0.1,0.1,0.1,0.1,0.2,0.2s0.1,0.3,0.1,0.5c0,0.2,0,0.4,0,0.7c0,0.3,0,0.5,0,0.7s-0.1,0.3-0.1,0.4
			c0,0.1-0.1,0.2-0.2,0.2s-0.2,0.1-0.2,0.1H5.9v5.3h6.8c0.1,0,0.2,0,0.2,0.1c0.1,0.1,0.1,0.1,0.2,0.3s0.1,0.3,0.1,0.5
			C13.3,32.9,13.3,33.1,13.3,33.4z"/>
		<path class="st2" d="M27.7,21.3c0,0,0,0.1,0,0.2s0,0.1,0,0.2s0,0.2-0.1,0.3s-0.1,0.2-0.1,0.4l-3.9,11.8c0,0.2-0.1,0.3-0.2,0.4
			c-0.1,0.1-0.2,0.2-0.4,0.2S22.6,35,22.2,35s-0.8,0-1.3,0c-0.5,0-0.9,0-1.3,0c-0.3,0-0.6-0.1-0.8-0.1s-0.3-0.1-0.4-0.2
			c-0.1-0.1-0.1-0.2-0.2-0.4l-3.9-11.8c-0.1-0.2-0.1-0.4-0.1-0.5s-0.1-0.3-0.1-0.3s0-0.1,0-0.2c0-0.1,0-0.2,0.1-0.3
			c0.1-0.1,0.1-0.1,0.3-0.2s0.3-0.1,0.6-0.1s0.5,0,0.9,0c0.4,0,0.7,0,1,0s0.4,0.1,0.6,0.1c0.1,0,0.2,0.1,0.3,0.2s0.1,0.2,0.1,0.3
			l3,9.6l0.1,0.4l0.1-0.4l2.9-9.6c0-0.1,0.1-0.2,0.1-0.3s0.2-0.1,0.3-0.2c0.1,0,0.3-0.1,0.5-0.1s0.5,0,0.9,0c0.4,0,0.7,0,0.9,0
			s0.4,0.1,0.5,0.1s0.2,0.1,0.3,0.2C27.7,21.2,27.7,21.2,27.7,21.3z"/>
		<path class="st2" d="M41.7,27.5c0,0.4-0.1,0.8-0.3,1s-0.5,0.3-0.8,0.3h-8c0,0.6,0.1,1.1,0.2,1.5c0.1,0.5,0.3,0.8,0.6,1.2
			c0.3,0.3,0.7,0.6,1.1,0.7s1,0.2,1.6,0.2c0.6,0,1.2,0,1.7-0.1c0.5-0.1,0.9-0.2,1.3-0.3c0.4-0.1,0.7-0.2,0.9-0.3
			c0.2-0.1,0.4-0.1,0.6-0.1c0.1,0,0.2,0,0.2,0.1c0.1,0,0.1,0.1,0.1,0.2s0.1,0.2,0.1,0.4c0,0.2,0,0.4,0,0.6c0,0.2,0,0.4,0,0.6
			c0,0.2,0,0.3,0,0.4s0,0.2-0.1,0.3c0,0.1-0.1,0.1-0.2,0.2s-0.2,0.2-0.5,0.3s-0.6,0.2-1.1,0.3c-0.4,0.1-0.9,0.2-1.5,0.3
			c-0.6,0.1-1.2,0.1-1.8,0.1c-1.2,0-2.2-0.1-3.1-0.4s-1.6-0.7-2.2-1.3s-1-1.3-1.3-2.3s-0.4-2-0.4-3.2c0-1.2,0.2-2.2,0.5-3.1
			c0.3-0.9,0.7-1.7,1.3-2.4c0.6-0.6,1.3-1.1,2.1-1.5s1.8-0.5,2.8-0.5c1.1,0,2,0.2,2.8,0.5s1.4,0.8,1.9,1.3c0.5,0.6,0.9,1.2,1.1,2
			c0.2,0.8,0.4,1.6,0.4,2.5V27.5z M38.1,26.5c0-1-0.2-1.8-0.6-2.4c-0.4-0.6-1.1-0.9-2.1-0.9c-0.5,0-0.9,0.1-1.2,0.3
			s-0.6,0.4-0.9,0.7c-0.2,0.3-0.4,0.7-0.5,1.1c-0.1,0.4-0.2,0.8-0.2,1.3H38.1z"/>
		<path class="st2" d="M57.2,34.4c0,0.1,0,0.2-0.1,0.3c-0.1,0.1-0.2,0.1-0.3,0.2s-0.3,0.1-0.6,0.1c-0.2,0-0.5,0-0.9,0
			c-0.4,0-0.7,0-0.9,0c-0.2,0-0.4-0.1-0.6-0.1s-0.2-0.1-0.3-0.2c-0.1-0.1-0.1-0.2-0.1-0.3V27c0-0.6,0-1.1-0.1-1.5s-0.2-0.7-0.4-0.9
			c-0.2-0.3-0.4-0.5-0.7-0.6s-0.6-0.2-1-0.2c-0.5,0-0.9,0.2-1.4,0.5s-1,0.8-1.5,1.5v8.7c0,0.1,0,0.2-0.1,0.3
			c-0.1,0.1-0.2,0.1-0.3,0.2s-0.3,0.1-0.6,0.1c-0.2,0-0.5,0-0.9,0s-0.7,0-0.9,0c-0.2,0-0.4-0.1-0.6-0.1s-0.2-0.1-0.3-0.2
			c-0.1-0.1-0.1-0.2-0.1-0.3V21.4c0-0.1,0-0.2,0.1-0.3c0-0.1,0.1-0.1,0.3-0.2s0.3-0.1,0.5-0.1s0.5,0,0.8,0c0.3,0,0.6,0,0.8,0
			s0.4,0.1,0.5,0.1s0.2,0.1,0.2,0.2c0,0.1,0.1,0.2,0.1,0.3v1.5c0.7-0.8,1.5-1.4,2.2-1.8s1.5-0.6,2.3-0.6c0.9,0,1.6,0.1,2.2,0.4
			s1.1,0.7,1.5,1.2s0.6,1.1,0.8,1.8s0.2,1.5,0.2,2.4V34.4z"/>
		<path class="st2" d="M68.3,33.1c0,0.4,0,0.8-0.1,1c-0.1,0.2-0.1,0.4-0.2,0.5c-0.1,0.1-0.2,0.2-0.4,0.2C67.4,34.9,67.2,35,67,35
			c-0.2,0.1-0.5,0.1-0.7,0.1s-0.5,0-0.8,0c-0.7,0-1.4-0.1-1.9-0.3s-1-0.5-1.3-0.9c-0.4-0.4-0.6-0.9-0.8-1.5s-0.2-1.3-0.2-2.1v-6.7
			h-1.6c-0.2,0-0.3-0.1-0.4-0.3S59,22.9,59,22.4c0-0.3,0-0.5,0-0.7s0.1-0.3,0.1-0.5c0-0.1,0.1-0.2,0.2-0.2s0.2-0.1,0.3-0.1h1.6v-2.9
			c0-0.1,0-0.2,0.1-0.3s0.2-0.1,0.3-0.2c0.1-0.1,0.3-0.1,0.6-0.1c0.2,0,0.5,0,0.9,0c0.4,0,0.7,0,0.9,0c0.2,0,0.4,0.1,0.6,0.1
			c0.1,0.1,0.2,0.1,0.3,0.2s0.1,0.2,0.1,0.3v2.9h2.8c0.1,0,0.2,0,0.3,0.1s0.1,0.1,0.2,0.2c0,0.1,0.1,0.3,0.1,0.5s0,0.4,0,0.7
			c0,0.5,0,0.9-0.1,1.2s-0.2,0.3-0.4,0.3h-2.9V30c0,0.7,0.1,1.2,0.3,1.6c0.2,0.4,0.6,0.5,1.2,0.5c0.2,0,0.4,0,0.5-0.1
			c0.2,0,0.3-0.1,0.4-0.1c0.1,0,0.2-0.1,0.3-0.1c0.1,0,0.2-0.1,0.2-0.1c0.1,0,0.1,0,0.2,0.1c0.1,0,0.1,0.1,0.1,0.2
			c0,0.1,0.1,0.2,0.1,0.4S68.3,32.9,68.3,33.1z"/>
		<path class="st2" d="M80.1,30.7c0,0.7-0.1,1.4-0.4,2s-0.7,1-1.2,1.4s-1.1,0.7-1.8,0.9c-0.7,0.2-1.4,0.3-2.3,0.3
			c-0.5,0-1,0-1.4-0.1c-0.4-0.1-0.8-0.2-1.2-0.3c-0.4-0.1-0.6-0.2-0.9-0.3s-0.4-0.2-0.5-0.3c-0.1-0.1-0.2-0.3-0.2-0.5
			c-0.1-0.2-0.1-0.5-0.1-1c0-0.3,0-0.5,0-0.7c0-0.2,0-0.3,0.1-0.4c0-0.1,0.1-0.2,0.1-0.2c0.1,0,0.1-0.1,0.2-0.1
			c0.1,0,0.3,0.1,0.5,0.2c0.2,0.1,0.5,0.3,0.8,0.4s0.7,0.3,1.1,0.4s0.9,0.2,1.4,0.2c0.3,0,0.6,0,0.9-0.1s0.5-0.2,0.7-0.3
			s0.3-0.3,0.4-0.5s0.1-0.4,0.1-0.7c0-0.3-0.1-0.5-0.3-0.8c-0.2-0.2-0.4-0.4-0.7-0.6s-0.6-0.3-1-0.4s-0.8-0.3-1.2-0.5
			s-0.8-0.4-1.2-0.6s-0.7-0.5-1-0.8s-0.5-0.7-0.7-1.1s-0.3-1-0.3-1.6c0-0.6,0.1-1.2,0.4-1.7s0.6-1,1.1-1.3s1-0.7,1.7-0.9
			s1.4-0.3,2.2-0.3c0.4,0,0.8,0,1.2,0.1s0.7,0.1,1,0.2s0.6,0.2,0.8,0.3c0.2,0.1,0.4,0.2,0.5,0.3c0.1,0.1,0.2,0.1,0.2,0.2
			c0,0.1,0.1,0.2,0.1,0.3c0,0.1,0,0.2,0.1,0.4s0,0.3,0,0.6c0,0.3,0,0.5,0,0.6s0,0.3-0.1,0.4S79.2,24,79.2,24c-0.1,0-0.1,0.1-0.2,0.1
			c-0.1,0-0.2-0.1-0.4-0.2c-0.2-0.1-0.4-0.2-0.7-0.3s-0.6-0.2-1-0.3c-0.4-0.1-0.8-0.2-1.3-0.2c-0.3,0-0.6,0-0.9,0.1
			s-0.4,0.2-0.6,0.3s-0.3,0.3-0.4,0.4s-0.1,0.4-0.1,0.5c0,0.3,0.1,0.6,0.3,0.8s0.4,0.4,0.7,0.5s0.6,0.3,1,0.4s0.8,0.3,1.2,0.4
			c0.4,0.2,0.8,0.3,1.2,0.6s0.7,0.5,1,0.8s0.5,0.7,0.7,1.1C80,29.6,80.1,30.1,80.1,30.7z"/>
		<path class="st2" d="M89,29.6c0-0.5,0.1-1.1,0.2-1.5c0.2-0.5,0.4-0.9,0.7-1.4s0.7-0.8,1.2-1.2s1-0.8,1.6-1.1
			c-0.4-0.4-0.7-0.9-0.9-1.3c-0.3-0.4-0.5-0.8-0.6-1.1s-0.3-0.7-0.4-1c-0.1-0.3-0.1-0.7-0.1-1c0-0.7,0.1-1.3,0.4-1.9
			c0.2-0.6,0.6-1.1,1.1-1.6s1.2-0.8,2-1c0.8-0.3,1.8-0.4,2.9-0.4c1,0,1.9,0.1,2.7,0.3s1.4,0.5,1.8,0.8c0.5,0.4,0.8,0.8,1.1,1.3
			c0.2,0.5,0.4,1.1,0.4,1.8c0,0.6-0.1,1.1-0.3,1.6s-0.5,1-0.9,1.4s-0.9,0.9-1.5,1.3s-1.3,0.8-2.1,1.3c0.3,0.3,0.6,0.6,0.9,1
			c0.3,0.3,0.7,0.7,1,1c0.3,0.3,0.7,0.7,1,1s0.7,0.6,1,0.9c0.1-0.2,0.2-0.4,0.3-0.7s0.2-0.5,0.3-0.8s0.1-0.6,0.2-0.9
			s0.1-0.6,0.1-0.9V25c0-0.1,0-0.2,0.1-0.3s0.1-0.1,0.2-0.2s0.3-0.1,0.5-0.1s0.5,0,0.9,0c0.3,0,0.6,0,0.8,0c0.2,0,0.4,0,0.5,0.1
			s0.2,0.1,0.3,0.2c0.1,0.1,0.1,0.2,0.1,0.3v0.5c0,0.5,0,0.9-0.1,1.4s-0.2,0.9-0.3,1.4c-0.1,0.5-0.3,0.9-0.5,1.3
			c-0.2,0.4-0.4,0.8-0.6,1.2c0.3,0.3,0.6,0.5,0.9,0.7s0.5,0.3,0.6,0.4c0.2,0.1,0.3,0.2,0.4,0.2s0.2,0.1,0.3,0.1c0.1,0,0.2,0,0.3,0
			s0.2,0,0.2,0.1s0.1,0.2,0.1,0.4s0,0.4,0,0.8c0,0.4,0,0.6,0,0.8s0,0.4-0.1,0.5s-0.1,0.2-0.2,0.2c-0.1,0.1-0.2,0.1-0.4,0.2
			c-0.2,0.1-0.4,0.1-0.7,0.1c-0.2,0-0.4,0-0.7-0.1c-0.2-0.1-0.5-0.2-0.8-0.3s-0.7-0.4-1.1-0.6c-0.4-0.2-0.9-0.6-1.4-1
			c-0.5,0.3-0.9,0.6-1.4,0.8c-0.5,0.2-1,0.5-1.5,0.6S98.6,35,98,35.1s-1.2,0.1-1.8,0.1c-0.6,0-1.3,0-1.9-0.1s-1.2-0.2-1.7-0.4
			c-0.5-0.2-1-0.5-1.5-0.8s-0.8-0.7-1.1-1.1c-0.3-0.4-0.6-0.9-0.7-1.4C89.1,30.9,89,30.3,89,29.6z M93,29.4c0,0.4,0.1,0.8,0.2,1.2
			s0.4,0.7,0.7,0.9s0.7,0.5,1.1,0.6c0.4,0.1,0.9,0.2,1.5,0.2c0.3,0,0.6,0,0.9-0.1c0.3-0.1,0.6-0.1,0.8-0.2c0.3-0.1,0.5-0.2,0.8-0.3
			c0.2-0.1,0.5-0.3,0.7-0.4c-0.4-0.4-0.9-0.7-1.3-1.1c-0.4-0.4-0.9-0.8-1.3-1.2s-0.8-0.8-1.2-1.2c-0.4-0.4-0.7-0.8-1-1.1
			c-0.3,0.2-0.6,0.4-0.9,0.7c-0.2,0.2-0.4,0.5-0.6,0.7s-0.3,0.5-0.3,0.7S93,29.2,93,29.4z M94.7,19.7c0,0.2,0,0.4,0.1,0.6
			c0.1,0.2,0.2,0.5,0.3,0.7s0.3,0.5,0.5,0.8s0.4,0.6,0.6,0.9c0.6-0.3,1.1-0.6,1.4-0.9s0.7-0.5,0.9-0.8c0.2-0.2,0.4-0.5,0.5-0.7
			c0.1-0.2,0.1-0.5,0.1-0.8c0-0.2,0-0.5-0.1-0.7s-0.2-0.4-0.4-0.5c-0.2-0.2-0.4-0.3-0.7-0.4s-0.6-0.1-1-0.1c-0.4,0-0.8,0-1,0.1
			c-0.3,0.1-0.5,0.2-0.7,0.4s-0.3,0.4-0.4,0.6C94.7,19.2,94.7,19.5,94.7,19.7z"/>
		<path class="st2" d="M130.4,17.5c0,0.3,0,0.5,0,0.7c0,0.2-0.1,0.4-0.1,0.5s-0.1,0.2-0.2,0.3s-0.2,0.1-0.2,0.1h-4.7v15.3
			c0,0.1,0,0.2-0.1,0.3s-0.2,0.1-0.3,0.2s-0.3,0.1-0.6,0.1s-0.6,0-0.9,0s-0.7,0-0.9,0s-0.4-0.1-0.6-0.1s-0.3-0.1-0.3-0.2
			s-0.1-0.2-0.1-0.3V19.1h-4.7c-0.1,0-0.2,0-0.2-0.1s-0.1-0.1-0.2-0.3s-0.1-0.3-0.1-0.5c0-0.2,0-0.4,0-0.7c0-0.3,0-0.5,0-0.7
			s0.1-0.4,0.1-0.5c0-0.1,0.1-0.2,0.2-0.3c0.1-0.1,0.2-0.1,0.2-0.1h13.4c0.1,0,0.2,0,0.2,0.1c0.1,0.1,0.1,0.1,0.2,0.3
			c0,0.1,0.1,0.3,0.1,0.5S130.4,17.3,130.4,17.5z"/>
		<path class="st2" d="M136.4,16.9c0,0.7-0.2,1.3-0.5,1.5s-0.9,0.4-1.7,0.4c-0.8,0-1.4-0.1-1.7-0.4s-0.4-0.8-0.4-1.5
			c0-0.7,0.1-1.3,0.4-1.5c0.3-0.3,0.9-0.4,1.7-0.4c0.8,0,1.4,0.1,1.7,0.4C136.3,15.7,136.4,16.2,136.4,16.9z M136.2,34.4
			c0,0.1,0,0.2-0.1,0.3c-0.1,0.1-0.2,0.1-0.3,0.2s-0.3,0.1-0.6,0.1c-0.2,0-0.5,0-0.9,0s-0.7,0-0.9,0c-0.2,0-0.4-0.1-0.6-0.1
			s-0.2-0.1-0.3-0.2c-0.1-0.1-0.1-0.2-0.1-0.3v-13c0-0.1,0-0.2,0.1-0.3c0.1-0.1,0.2-0.1,0.3-0.2c0.1-0.1,0.3-0.1,0.6-0.1
			s0.5,0,0.9,0s0.7,0,0.9,0s0.4,0.1,0.6,0.1c0.1,0.1,0.2,0.1,0.3,0.2c0.1,0.1,0.1,0.2,0.1,0.3V34.4z"/>
		<path class="st2" d="M153,27.7c0,1.2-0.1,2.2-0.4,3.1c-0.2,0.9-0.6,1.7-1.1,2.4s-1.1,1.2-1.8,1.5s-1.5,0.5-2.4,0.5
			c-0.4,0-0.7,0-1-0.1c-0.3-0.1-0.6-0.2-0.9-0.3c-0.3-0.2-0.6-0.3-0.9-0.6s-0.6-0.5-0.9-0.8v6.2c0,0.1,0,0.2-0.1,0.3
			s-0.2,0.1-0.3,0.2c-0.1,0.1-0.3,0.1-0.6,0.1s-0.5,0-0.9,0s-0.7,0-0.9,0s-0.4-0.1-0.6-0.1c-0.1-0.1-0.2-0.1-0.3-0.2
			s-0.1-0.2-0.1-0.3V21.4c0-0.1,0-0.2,0.1-0.3c0-0.1,0.1-0.1,0.3-0.2s0.3-0.1,0.5-0.1s0.5,0,0.8,0c0.3,0,0.5,0,0.7,0
			s0.4,0.1,0.5,0.1s0.2,0.1,0.3,0.2c0,0.1,0.1,0.2,0.1,0.3v1.5c0.4-0.4,0.8-0.7,1.1-1s0.7-0.5,1.1-0.7c0.4-0.2,0.8-0.3,1.2-0.4
			s0.8-0.1,1.3-0.1c1,0,1.8,0.2,2.4,0.6c0.7,0.4,1.2,0.9,1.6,1.5s0.7,1.4,0.9,2.3C152.9,25.8,153,26.7,153,27.7z M149.2,28
			c0-0.6,0-1.1-0.1-1.6c-0.1-0.5-0.2-1-0.4-1.4c-0.2-0.4-0.5-0.7-0.8-1s-0.7-0.4-1.2-0.4c-0.2,0-0.5,0-0.7,0.1
			c-0.2,0.1-0.5,0.2-0.7,0.4s-0.5,0.4-0.8,0.6c-0.3,0.3-0.5,0.6-0.8,1v4.3c0.5,0.7,1,1.2,1.5,1.5c0.5,0.4,1,0.5,1.5,0.5
			c0.5,0,0.9-0.1,1.2-0.4s0.6-0.6,0.8-1c0.2-0.4,0.4-0.8,0.5-1.3S149.2,28.5,149.2,28z"/>
		<path class="st2" d="M165,30.7c0,0.7-0.1,1.4-0.4,2s-0.7,1-1.2,1.4s-1.1,0.7-1.8,0.9c-0.7,0.2-1.4,0.3-2.3,0.3c-0.5,0-1,0-1.4-0.1
			c-0.4-0.1-0.8-0.2-1.2-0.3c-0.4-0.1-0.6-0.2-0.9-0.3s-0.4-0.2-0.5-0.3c-0.1-0.1-0.2-0.3-0.2-0.5c-0.1-0.2-0.1-0.5-0.1-1
			c0-0.3,0-0.5,0-0.7c0-0.2,0-0.3,0.1-0.4c0-0.1,0.1-0.2,0.1-0.2c0.1,0,0.1-0.1,0.2-0.1c0.1,0,0.3,0.1,0.5,0.2
			c0.2,0.1,0.5,0.3,0.8,0.4s0.7,0.3,1.1,0.4s0.9,0.2,1.4,0.2c0.3,0,0.6,0,0.9-0.1s0.5-0.2,0.7-0.3s0.3-0.3,0.4-0.5s0.1-0.4,0.1-0.7
			c0-0.3-0.1-0.5-0.3-0.8c-0.2-0.2-0.4-0.4-0.7-0.6s-0.6-0.3-1-0.4s-0.8-0.3-1.2-0.5s-0.8-0.4-1.2-0.6s-0.7-0.5-1-0.8
			s-0.5-0.7-0.7-1.1s-0.3-1-0.3-1.6c0-0.6,0.1-1.2,0.4-1.7s0.6-1,1.1-1.3s1-0.7,1.7-0.9s1.4-0.3,2.2-0.3c0.4,0,0.8,0,1.2,0.1
			s0.7,0.1,1,0.2s0.6,0.2,0.8,0.3c0.2,0.1,0.4,0.2,0.5,0.3c0.1,0.1,0.2,0.1,0.2,0.2c0,0.1,0.1,0.2,0.1,0.3c0,0.1,0,0.2,0.1,0.4
			s0,0.3,0,0.6c0,0.3,0,0.5,0,0.6s0,0.3-0.1,0.4S164.1,24,164,24c-0.1,0-0.1,0.1-0.2,0.1c-0.1,0-0.2-0.1-0.4-0.2
			c-0.2-0.1-0.4-0.2-0.7-0.3s-0.6-0.2-1-0.3c-0.4-0.1-0.8-0.2-1.3-0.2c-0.3,0-0.6,0-0.9,0.1s-0.4,0.2-0.6,0.3s-0.3,0.3-0.4,0.4
			s-0.1,0.4-0.1,0.5c0,0.3,0.1,0.6,0.3,0.8s0.4,0.4,0.7,0.5s0.6,0.3,1,0.4s0.8,0.3,1.2,0.4c0.4,0.2,0.8,0.3,1.2,0.6s0.7,0.5,1,0.8
			s0.5,0.7,0.7,1.1C164.9,29.6,165,30.1,165,30.7z"/>
	</g>
</g>
<g id="Layer_3" class="st3">
	
		<image style="display:inline;overflow:visible;enable-background:new    ;" width="284" height="173" xlink:href="3C5807D3.jpeg"  transform="matrix(0.2553 0 0 0.2553 -10.593 26.8944)">
	</image>
</g>
</svg>
