<?xml version="1.0" encoding="utf-8"?>
<!-- Generator: Adobe Illustrator 25.4.1, SVG Export Plug-In . SVG Version: 6.00 Build 0)  -->
<svg version="1.1" id="Layer_1" xmlns="http://www.w3.org/2000/svg" xmlns:xlink="http://www.w3.org/1999/xlink" x="0px" y="0px"
	 viewBox="0 0 121 48.5" style="enable-background:new 0 0 121 48.5;" xml:space="preserve">
<style type="text/css">
	.st0{fill:#B3D4B0;}
	.st1{enable-background:new    ;}
	.st2{fill:#443633;}
	.st3{display:none;}
</style>
<g id="Layer_1_00000013885158878593429140000001260624650004424868_">
</g>
<g id="Layer_2_00000011012858382993763330000009066884554347727020_">
	<path class="st0" d="M99.7,15.1C90.2,20.3,76,32.3,70.3,44h5.5c1.5-3.8,4.7-8.5,7.2-11c15.7,7,32.1-5.2,32.1-21.2
		c0-2.9-0.6-5.8-1.7-8.9c-4.4,5.8-10.5,2-20.2,3C78.8,7.6,72.2,18.7,76.7,27.5C83.3,21.1,94.5,15.6,99.7,15.1z"/>
</g>
<g id="Layer_4">
	<g class="st1">
		<path class="st2" d="M29.7,33.6c0,0.1,0,0.2-0.1,0.3s-0.2,0.1-0.3,0.2s-0.3,0.1-0.6,0.1s-0.6,0-0.9,0c-0.4,0-0.7,0-0.9,0
			s-0.4-0.1-0.6-0.1S26,34,25.9,33.9s-0.1-0.2-0.1-0.3V26h-7.1v7.7c0,0.1,0,0.2-0.1,0.3s-0.2,0.1-0.3,0.2s-0.3,0.1-0.6,0.1
			s-0.6,0-0.9,0c-0.4,0-0.7,0-0.9,0s-0.4-0.1-0.6-0.1S15.1,34,15,33.9s-0.1-0.2-0.1-0.3V15.7c0-0.1,0-0.2,0.1-0.3s0.2-0.1,0.3-0.2
			s0.3-0.1,0.6-0.1s0.6,0,0.9,0c0.4,0,0.7,0,0.9,0s0.4,0.1,0.6,0.1s0.2,0.1,0.3,0.2s0.1,0.2,0.1,0.3v7h7.1v-7c0-0.1,0-0.2,0.1-0.3
			s0.2-0.1,0.3-0.2s0.3-0.1,0.6-0.1s0.6,0,0.9,0c0.4,0,0.7,0,0.9,0s0.4,0.1,0.6,0.1s0.3,0.1,0.3,0.2s0.1,0.2,0.1,0.3V33.6z"/>
		<path class="st2" d="M46.8,27c0,1.1-0.1,2.1-0.4,3s-0.7,1.7-1.3,2.4s-1.3,1.2-2.2,1.5s-1.9,0.5-3.1,0.5c-1.2,0-2.2-0.2-3-0.5
			s-1.6-0.8-2.1-1.4s-1-1.4-1.3-2.3s-0.4-1.9-0.4-3.1c0-1.1,0.1-2.1,0.4-3.1c0.3-0.9,0.7-1.7,1.3-2.4c0.6-0.7,1.3-1.2,2.2-1.5
			s1.9-0.5,3.1-0.5c1.2,0,2.2,0.2,3,0.5c0.9,0.3,1.6,0.8,2.1,1.4s1,1.4,1.3,2.3S46.8,25.8,46.8,27z M43,27.1c0-0.6-0.1-1.2-0.2-1.8
			c-0.1-0.5-0.3-1-0.5-1.4s-0.6-0.7-1-0.9s-0.9-0.3-1.5-0.3c-0.5,0-1,0.1-1.4,0.3s-0.7,0.5-1,0.9s-0.5,0.8-0.6,1.4
			c-0.1,0.5-0.2,1.2-0.2,1.9c0,0.6,0.1,1.2,0.2,1.8c0.1,0.5,0.3,1,0.5,1.4s0.6,0.7,1,0.9c0.4,0.2,0.9,0.3,1.5,0.3
			c0.6,0,1-0.1,1.5-0.3c0.4-0.2,0.7-0.5,1-0.9s0.5-0.8,0.6-1.4C43,28.4,43,27.8,43,27.1z"/>
		<path class="st2" d="M70.5,33.6c0,0.1,0,0.2-0.1,0.3c-0.1,0.1-0.2,0.1-0.3,0.2s-0.3,0.1-0.6,0.1s-0.5,0-0.9,0c-0.4,0-0.7,0-0.9,0
			s-0.4-0.1-0.6-0.1S67,34,66.9,33.9c-0.1-0.1-0.1-0.2-0.1-0.3v-7.7c0-0.4,0-0.8-0.1-1.2s-0.2-0.7-0.4-0.9c-0.2-0.3-0.4-0.5-0.6-0.6
			S65.1,23,64.8,23c-0.4,0-0.9,0.2-1.3,0.5S62.5,24.3,62,25v8.7c0,0.1,0,0.2-0.1,0.3c-0.1,0.1-0.2,0.1-0.3,0.2s-0.3,0.1-0.6,0.1
			s-0.5,0-0.9,0c-0.4,0-0.7,0-0.9,0s-0.4-0.1-0.6-0.1s-0.2-0.1-0.3-0.2c-0.1-0.1-0.1-0.2-0.1-0.3v-7.7c0-0.4,0-0.8-0.1-1.2
			S58,24,57.8,23.8c-0.2-0.3-0.4-0.5-0.6-0.6S56.6,23,56.2,23c-0.4,0-0.9,0.2-1.3,0.5s-0.9,0.8-1.5,1.5v8.7c0,0.1,0,0.2-0.1,0.3
			C53.3,34,53.2,34,53,34.1s-0.3,0.1-0.6,0.1s-0.5,0-0.9,0s-0.7,0-0.9,0s-0.4-0.1-0.6-0.1s-0.2-0.1-0.3-0.2
			c-0.1-0.1-0.1-0.2-0.1-0.3V20.6c0-0.1,0-0.2,0.1-0.3c0-0.1,0.1-0.1,0.3-0.2s0.3-0.1,0.5-0.1s0.5,0,0.8,0c0.3,0,0.6,0,0.8,0
			s0.4,0.1,0.5,0.1s0.2,0.1,0.2,0.2c0,0.1,0.1,0.2,0.1,0.3v1.5c0.7-0.8,1.4-1.4,2.2-1.8s1.5-0.6,2.2-0.6c0.5,0,1,0.1,1.5,0.2
			s0.8,0.3,1.1,0.5c0.3,0.2,0.6,0.5,0.9,0.8s0.4,0.6,0.6,1c0.4-0.4,0.8-0.8,1.2-1.1s0.7-0.5,1.1-0.7c0.4-0.2,0.7-0.3,1.1-0.4
			s0.7-0.1,1.1-0.1c0.9,0,1.6,0.1,2.2,0.4s1.1,0.7,1.4,1.2s0.6,1.1,0.8,1.8s0.2,1.4,0.2,2.1V33.6z"/>
		<path class="st2" d="M86.2,26.7c0,0.4-0.1,0.8-0.3,1s-0.5,0.3-0.8,0.3h-8c0,0.6,0.1,1.1,0.2,1.5c0.1,0.5,0.3,0.8,0.6,1.2
			s0.7,0.6,1.1,0.7s1,0.2,1.6,0.2c0.6,0,1.2,0,1.7-0.1c0.5-0.1,0.9-0.2,1.3-0.3s0.7-0.2,0.9-0.3c0.2-0.1,0.4-0.1,0.6-0.1
			c0.1,0,0.2,0,0.2,0.1c0.1,0,0.1,0.1,0.1,0.2s0.1,0.2,0.1,0.4c0,0.2,0,0.4,0,0.6c0,0.2,0,0.4,0,0.5s0,0.3,0,0.4s0,0.2-0.1,0.3
			c0,0.1-0.1,0.1-0.2,0.2s-0.2,0.2-0.5,0.3s-0.6,0.2-1.1,0.3c-0.4,0.1-0.9,0.2-1.5,0.3c-0.6,0.1-1.2,0.1-1.8,0.1
			c-1.2,0-2.2-0.1-3.1-0.4s-1.6-0.7-2.2-1.3s-1-1.3-1.3-2.3s-0.4-2-0.4-3.2c0-1.2,0.2-2.2,0.5-3.1c0.3-0.9,0.7-1.7,1.3-2.4
			c0.6-0.6,1.3-1.1,2.1-1.5s1.8-0.5,2.8-0.5c1.1,0,2,0.2,2.8,0.5s1.4,0.8,1.9,1.3c0.5,0.6,0.9,1.2,1.1,2s0.4,1.6,0.4,2.5V26.7z
			 M82.6,25.7c0-1-0.2-1.8-0.6-2.4c-0.4-0.6-1.1-0.9-2.1-0.9c-0.5,0-0.9,0.1-1.2,0.3s-0.6,0.4-0.9,0.7c-0.2,0.3-0.4,0.7-0.5,1.1
			c-0.1,0.4-0.2,0.8-0.2,1.3H82.6z"/>
	</g>
</g>
<g id="Layer_3" class="st3">
	
		<image style="display:inline;overflow:visible;enable-background:new    ;" width="284" height="173" xlink:href="7CCF0995.jpeg"  transform="matrix(0.2553 0 0 0.2553 -10.593 26.8944)">
	</image>
</g>
</svg>
