<?xml version="1.0" encoding="utf-8"?>
<!-- Generator: Adobe Illustrator 25.4.1, SVG Export Plug-In . SVG Version: 6.00 Build 0)  -->
<svg version="1.1" id="Layer_1" xmlns="http://www.w3.org/2000/svg" xmlns:xlink="http://www.w3.org/1999/xlink" x="0px" y="0px"
	 viewBox="0 0 193 48.5" style="enable-background:new 0 0 193 48.5;" xml:space="preserve">
<style type="text/css">
	.st0{fill:#B3D4B0;}
	.st1{enable-background:new    ;}
	.st2{fill:#443633;}
	.st3{display:none;}
</style>
<g id="Layer_1_00000036223593847207390680000014014160825868341669_">
</g>
<g id="Layer_2_00000066483674691849169320000014418589295484971170_">
	<path class="st0" d="M169.3,15.9c-9.5,5.2-23.7,17.1-29.5,28.9h5.5c1.5-3.8,4.7-8.5,7.2-11c15.6,7,32.1-5.2,32.1-21.2
		c0-2.9-0.6-5.8-1.7-8.9c-4.4,5.8-10.5,2-20.2,3c-14.3,1.6-20.8,12.7-16.4,21.5C152.8,21.9,164.1,16.4,169.3,15.9z"/>
</g>
<g id="Layer_4">
	<g class="st1">
		<path class="st2" d="M28.7,34.4c0,0.1,0,0.2-0.1,0.3s-0.2,0.1-0.3,0.2S28,34.9,27.8,35s-0.5,0-0.9,0c-0.4,0-0.6,0-0.9,0
			s-0.4-0.1-0.6-0.1s-0.2-0.1-0.3-0.2S25,34.5,25,34.4V19h0l-5.5,15.4c0,0.1-0.1,0.2-0.2,0.3c-0.1,0.1-0.2,0.1-0.4,0.2
			S18.6,35,18.4,35c-0.2,0-0.5,0-0.8,0s-0.6,0-0.8,0c-0.2,0-0.4-0.1-0.6-0.1c-0.2-0.1-0.3-0.1-0.4-0.2s-0.1-0.2-0.2-0.3L10.3,19h0
			v15.4c0,0.1,0,0.2-0.1,0.3s-0.2,0.1-0.3,0.2S9.5,34.9,9.3,35s-0.5,0-0.9,0c-0.4,0-0.6,0-0.9,0S7.1,34.9,7,34.8s-0.2-0.1-0.3-0.2
			s-0.1-0.2-0.1-0.3V17.5c0-0.5,0.1-0.9,0.4-1.1S7.6,16,8.1,16h2.5c0.4,0,0.8,0,1.2,0.1c0.3,0.1,0.6,0.2,0.8,0.4s0.4,0.4,0.6,0.7
			c0.2,0.3,0.3,0.6,0.4,1l4.1,11.3h0.1L22,18.2c0.1-0.4,0.3-0.8,0.4-1s0.3-0.5,0.5-0.7s0.4-0.3,0.7-0.4c0.3-0.1,0.6-0.1,1-0.1h2.6
			c0.3,0,0.5,0,0.7,0.1s0.3,0.2,0.5,0.3c0.1,0.1,0.2,0.3,0.3,0.5c0.1,0.2,0.1,0.4,0.1,0.7V34.4z"/>
		<path class="st2" d="M44.7,27.5c0,0.4-0.1,0.8-0.3,1s-0.5,0.3-0.8,0.3h-8c0,0.6,0.1,1.1,0.2,1.5c0.1,0.5,0.3,0.8,0.6,1.2
			c0.3,0.3,0.7,0.6,1.1,0.7s1,0.2,1.6,0.2c0.6,0,1.2,0,1.7-0.1c0.5-0.1,0.9-0.2,1.3-0.3c0.4-0.1,0.7-0.2,0.9-0.3
			c0.2-0.1,0.4-0.1,0.6-0.1c0.1,0,0.2,0,0.2,0.1c0.1,0,0.1,0.1,0.1,0.2S44,32,44,32.2c0,0.2,0,0.4,0,0.6c0,0.2,0,0.4,0,0.6
			c0,0.2,0,0.3,0,0.4s0,0.2-0.1,0.3c0,0.1-0.1,0.1-0.2,0.2s-0.2,0.2-0.5,0.3s-0.6,0.2-1.1,0.3c-0.4,0.1-0.9,0.2-1.5,0.3
			c-0.6,0.1-1.2,0.1-1.8,0.1c-1.2,0-2.2-0.1-3.1-0.4s-1.6-0.7-2.2-1.3s-1-1.3-1.3-2.3s-0.4-2-0.4-3.2c0-1.2,0.2-2.2,0.5-3.1
			c0.3-0.9,0.7-1.7,1.3-2.4c0.6-0.6,1.3-1.1,2.1-1.5s1.8-0.5,2.8-0.5c1.1,0,2,0.2,2.8,0.5s1.4,0.8,1.9,1.3c0.5,0.6,0.9,1.2,1.1,2
			c0.2,0.8,0.4,1.6,0.4,2.5V27.5z M41.1,26.5c0-1-0.2-1.8-0.6-2.4c-0.4-0.6-1.1-0.9-2.1-0.9c-0.5,0-0.9,0.1-1.2,0.3
			s-0.6,0.4-0.9,0.7c-0.2,0.3-0.4,0.7-0.5,1.1c-0.1,0.4-0.2,0.8-0.2,1.3H41.1z"/>
		<path class="st2" d="M68.5,34.4c0,0.1,0,0.2-0.1,0.3c-0.1,0.1-0.2,0.1-0.3,0.2s-0.3,0.1-0.6,0.1c-0.2,0-0.5,0-0.9,0
			c-0.4,0-0.7,0-0.9,0c-0.2,0-0.4-0.1-0.6-0.1s-0.2-0.1-0.3-0.2c-0.1-0.1-0.1-0.2-0.1-0.3v-7.8c0-0.4,0-0.8-0.1-1.2
			s-0.2-0.7-0.4-0.9c-0.2-0.3-0.4-0.5-0.6-0.6s-0.6-0.2-0.9-0.2c-0.4,0-0.9,0.2-1.3,0.5s-0.9,0.8-1.5,1.5v8.7c0,0.1,0,0.2-0.1,0.3
			c-0.1,0.1-0.2,0.1-0.3,0.2S59.2,34.9,59,35c-0.2,0-0.5,0-0.9,0c-0.4,0-0.7,0-0.9,0c-0.2,0-0.4-0.1-0.6-0.1s-0.2-0.1-0.3-0.2
			c-0.1-0.1-0.1-0.2-0.1-0.3v-7.8c0-0.4,0-0.8-0.1-1.2s-0.2-0.7-0.4-0.9c-0.2-0.3-0.4-0.5-0.6-0.6s-0.6-0.2-0.9-0.2
			c-0.4,0-0.9,0.2-1.3,0.5s-0.9,0.8-1.5,1.5v8.7c0,0.1,0,0.2-0.1,0.3c-0.1,0.1-0.2,0.1-0.3,0.2s-0.3,0.1-0.6,0.1c-0.2,0-0.5,0-0.9,0
			s-0.7,0-0.9,0c-0.2,0-0.4-0.1-0.6-0.1s-0.2-0.1-0.3-0.2c-0.1-0.1-0.1-0.2-0.1-0.3V21.4c0-0.1,0-0.2,0.1-0.3c0-0.1,0.1-0.1,0.3-0.2
			s0.3-0.1,0.5-0.1s0.5,0,0.8,0c0.3,0,0.6,0,0.8,0s0.4,0.1,0.5,0.1s0.2,0.1,0.2,0.2c0,0.1,0.1,0.2,0.1,0.3v1.5
			c0.7-0.8,1.4-1.4,2.2-1.8s1.5-0.6,2.2-0.6c0.5,0,1,0.1,1.5,0.2s0.8,0.3,1.1,0.5c0.3,0.2,0.6,0.5,0.9,0.8s0.4,0.6,0.6,1
			c0.4-0.4,0.8-0.8,1.1-1.1s0.7-0.5,1.1-0.7c0.4-0.2,0.7-0.3,1.1-0.4s0.7-0.1,1.1-0.1c0.9,0,1.6,0.1,2.2,0.4s1.1,0.7,1.4,1.2
			s0.6,1.1,0.8,1.8s0.2,1.4,0.2,2.1V34.4z"/>
		<path class="st2" d="M85.3,27.7c0,1.2-0.1,2.2-0.4,3.1s-0.6,1.7-1.1,2.4s-1.1,1.2-1.8,1.5s-1.5,0.5-2.4,0.5c-0.4,0-0.8,0-1.2-0.1
			c-0.4-0.1-0.7-0.2-1.1-0.4s-0.7-0.4-1-0.7s-0.7-0.6-1-1v1.4c0,0.1,0,0.2-0.1,0.3c-0.1,0.1-0.1,0.1-0.3,0.2S74.6,35,74.4,35
			s-0.5,0-0.7,0c-0.3,0-0.6,0-0.8,0s-0.4-0.1-0.5-0.1s-0.2-0.1-0.3-0.2c0-0.1-0.1-0.2-0.1-0.3V15.2c0-0.1,0-0.2,0.1-0.3
			s0.2-0.1,0.3-0.2c0.1-0.1,0.3-0.1,0.6-0.1s0.5,0,0.9,0s0.7,0,0.9,0s0.4,0.1,0.6,0.1c0.1,0.1,0.2,0.1,0.3,0.2s0.1,0.2,0.1,0.3v7.2
			c0.3-0.3,0.7-0.6,1-0.8s0.7-0.4,1-0.6s0.7-0.3,1-0.3s0.7-0.1,1.1-0.1c1,0,1.8,0.2,2.5,0.6s1.2,0.9,1.6,1.6s0.7,1.4,0.9,2.3
			C85.2,25.8,85.3,26.7,85.3,27.7z M81.4,28c0-0.6,0-1.1-0.1-1.6s-0.2-1-0.4-1.4c-0.2-0.4-0.5-0.7-0.8-1s-0.7-0.4-1.2-0.4
			c-0.2,0-0.5,0-0.7,0.1s-0.5,0.2-0.7,0.4s-0.5,0.4-0.8,0.6c-0.3,0.3-0.5,0.6-0.8,1v4.3c0.5,0.7,1,1.2,1.5,1.5
			c0.5,0.3,1,0.5,1.5,0.5c0.5,0,0.9-0.1,1.2-0.4s0.6-0.6,0.8-1s0.4-0.8,0.5-1.3S81.4,28.5,81.4,28z"/>
		<path class="st2" d="M100.3,27.5c0,0.4-0.1,0.8-0.3,1s-0.5,0.3-0.8,0.3h-8c0,0.6,0.1,1.1,0.2,1.5c0.1,0.5,0.3,0.8,0.6,1.2
			c0.3,0.3,0.7,0.6,1.1,0.7s1,0.2,1.6,0.2c0.6,0,1.2,0,1.7-0.1c0.5-0.1,0.9-0.2,1.3-0.3c0.4-0.1,0.7-0.2,0.9-0.3
			c0.2-0.1,0.4-0.1,0.6-0.1c0.1,0,0.2,0,0.2,0.1c0.1,0,0.1,0.1,0.1,0.2s0.1,0.2,0.1,0.4c0,0.2,0,0.4,0,0.6c0,0.2,0,0.4,0,0.6
			c0,0.2,0,0.3,0,0.4s0,0.2-0.1,0.3c0,0.1-0.1,0.1-0.2,0.2s-0.2,0.2-0.5,0.3s-0.6,0.2-1.1,0.3c-0.4,0.1-0.9,0.2-1.5,0.3
			c-0.6,0.1-1.2,0.1-1.8,0.1c-1.2,0-2.2-0.1-3.1-0.4s-1.6-0.7-2.2-1.3s-1-1.3-1.3-2.3s-0.4-2-0.4-3.2c0-1.2,0.2-2.2,0.5-3.1
			c0.3-0.9,0.7-1.7,1.3-2.4c0.6-0.6,1.3-1.1,2.1-1.5s1.8-0.5,2.8-0.5c1.1,0,2,0.2,2.8,0.5c0.8,0.3,1.4,0.8,1.9,1.3
			c0.5,0.6,0.9,1.2,1.1,2c0.2,0.8,0.4,1.6,0.4,2.5V27.5z M96.7,26.5c0-1-0.2-1.8-0.6-2.4c-0.4-0.6-1.1-0.9-2.1-0.9
			c-0.5,0-0.9,0.1-1.2,0.3s-0.6,0.4-0.9,0.7c-0.2,0.3-0.4,0.7-0.5,1.1c-0.1,0.4-0.2,0.8-0.2,1.3H96.7z"/>
		<path class="st2" d="M111.7,22.6c0,0.4,0,0.6,0,0.9s0,0.4-0.1,0.5s-0.1,0.2-0.2,0.3s-0.1,0.1-0.2,0.1c-0.1,0-0.2,0-0.3-0.1
			c-0.1,0-0.2-0.1-0.3-0.1s-0.3-0.1-0.4-0.1s-0.3-0.1-0.5-0.1c-0.2,0-0.4,0-0.6,0.1c-0.2,0.1-0.4,0.2-0.6,0.4s-0.4,0.4-0.7,0.7
			c-0.2,0.3-0.5,0.7-0.8,1.1v8.1c0,0.1,0,0.2-0.1,0.3c-0.1,0.1-0.2,0.1-0.3,0.2s-0.3,0.1-0.6,0.1c-0.2,0-0.5,0-0.9,0s-0.7,0-0.9,0
			c-0.2,0-0.4-0.1-0.6-0.1s-0.2-0.1-0.3-0.2c-0.1-0.1-0.1-0.2-0.1-0.3V21.4c0-0.1,0-0.2,0.1-0.3c0-0.1,0.1-0.1,0.3-0.2
			s0.3-0.1,0.5-0.1s0.5,0,0.8,0c0.3,0,0.6,0,0.8,0s0.4,0.1,0.5,0.1s0.2,0.1,0.2,0.2c0,0.1,0.1,0.2,0.1,0.3V23c0.3-0.5,0.7-0.9,1-1.2
			s0.6-0.6,0.9-0.8s0.5-0.3,0.8-0.4c0.3-0.1,0.5-0.1,0.8-0.1c0.1,0,0.3,0,0.4,0c0.1,0,0.3,0,0.5,0.1c0.2,0,0.3,0.1,0.4,0.1
			c0.1,0,0.2,0.1,0.3,0.1s0.1,0.1,0.1,0.2s0,0.1,0.1,0.2c0,0.1,0,0.3,0,0.5S111.7,22.2,111.7,22.6z"/>
		<path class="st2" d="M122.8,30.7c0,0.7-0.1,1.4-0.4,2s-0.7,1-1.2,1.4s-1.1,0.7-1.8,0.9c-0.7,0.2-1.4,0.3-2.3,0.3
			c-0.5,0-1,0-1.4-0.1c-0.4-0.1-0.8-0.2-1.2-0.3c-0.4-0.1-0.6-0.2-0.9-0.3s-0.4-0.2-0.5-0.3c-0.1-0.1-0.2-0.3-0.2-0.5
			c-0.1-0.2-0.1-0.5-0.1-1c0-0.3,0-0.5,0-0.7c0-0.2,0-0.3,0.1-0.4c0-0.1,0.1-0.2,0.1-0.2c0.1,0,0.1-0.1,0.2-0.1
			c0.1,0,0.3,0.1,0.5,0.2c0.2,0.1,0.5,0.3,0.8,0.4s0.7,0.3,1.1,0.4s0.9,0.2,1.4,0.2c0.3,0,0.6,0,0.9-0.1s0.5-0.2,0.7-0.3
			s0.3-0.3,0.4-0.5s0.1-0.4,0.1-0.7c0-0.3-0.1-0.5-0.3-0.8c-0.2-0.2-0.4-0.4-0.7-0.6s-0.6-0.3-1-0.4s-0.8-0.3-1.2-0.5
			s-0.8-0.4-1.2-0.6s-0.7-0.5-1-0.8s-0.5-0.7-0.7-1.1s-0.3-1-0.3-1.6c0-0.6,0.1-1.2,0.4-1.7s0.6-1,1.1-1.3s1-0.7,1.7-0.9
			s1.4-0.3,2.2-0.3c0.4,0,0.8,0,1.2,0.1s0.7,0.1,1,0.2s0.6,0.2,0.8,0.3c0.2,0.1,0.4,0.2,0.5,0.3c0.1,0.1,0.2,0.1,0.2,0.2
			c0,0.1,0.1,0.2,0.1,0.3c0,0.1,0,0.2,0.1,0.4s0,0.3,0,0.6c0,0.3,0,0.5,0,0.6s0,0.3-0.1,0.4s-0.1,0.2-0.1,0.2
			c-0.1,0-0.1,0.1-0.2,0.1c-0.1,0-0.2-0.1-0.4-0.2c-0.2-0.1-0.4-0.2-0.7-0.3s-0.6-0.2-1-0.3c-0.4-0.1-0.8-0.2-1.3-0.2
			c-0.3,0-0.6,0-0.9,0.1s-0.4,0.2-0.6,0.3s-0.3,0.3-0.4,0.4s-0.1,0.4-0.1,0.5c0,0.3,0.1,0.6,0.3,0.8s0.4,0.4,0.7,0.5s0.6,0.3,1,0.4
			s0.8,0.3,1.2,0.4c0.4,0.2,0.8,0.3,1.2,0.6s0.7,0.5,1,0.8s0.5,0.7,0.7,1.1C122.7,29.6,122.8,30.1,122.8,30.7z"/>
		<path class="st2" d="M138.1,34.4c0,0.1,0,0.2-0.1,0.3c-0.1,0.1-0.2,0.1-0.3,0.2s-0.3,0.1-0.6,0.1c-0.2,0-0.5,0-0.9,0
			c-0.4,0-0.7,0-0.9,0c-0.2,0-0.4-0.1-0.6-0.1s-0.2-0.1-0.3-0.2c-0.1-0.1-0.1-0.2-0.1-0.3V27c0-0.6,0-1.1-0.1-1.5s-0.2-0.7-0.4-0.9
			c-0.2-0.3-0.4-0.5-0.7-0.6s-0.6-0.2-1-0.2c-0.5,0-0.9,0.2-1.4,0.5s-1,0.8-1.5,1.5v8.7c0,0.1,0,0.2-0.1,0.3
			c-0.1,0.1-0.2,0.1-0.3,0.2s-0.3,0.1-0.6,0.1c-0.2,0-0.5,0-0.9,0s-0.7,0-0.9,0c-0.2,0-0.4-0.1-0.6-0.1s-0.2-0.1-0.3-0.2
			c-0.1-0.1-0.1-0.2-0.1-0.3V15.2c0-0.1,0-0.2,0.1-0.3s0.2-0.1,0.3-0.2c0.1-0.1,0.3-0.1,0.6-0.1s0.5,0,0.9,0s0.7,0,0.9,0
			s0.4,0.1,0.6,0.1c0.1,0.1,0.2,0.1,0.3,0.2s0.1,0.2,0.1,0.3v7.2c0.6-0.6,1.3-1.1,1.9-1.4c0.7-0.3,1.3-0.5,2.1-0.5
			c0.9,0,1.6,0.1,2.2,0.4s1.1,0.7,1.5,1.2s0.6,1.1,0.8,1.8s0.2,1.5,0.2,2.5V34.4z"/>
		<path class="st2" d="M145.7,16.9c0,0.7-0.2,1.3-0.5,1.5s-0.9,0.4-1.7,0.4c-0.8,0-1.4-0.1-1.7-0.4s-0.4-0.8-0.4-1.5
			c0-0.7,0.1-1.3,0.4-1.5c0.3-0.3,0.9-0.4,1.7-0.4c0.8,0,1.4,0.1,1.7,0.4C145.5,15.7,145.7,16.2,145.7,16.9z M145.4,34.4
			c0,0.1,0,0.2-0.1,0.3c-0.1,0.1-0.2,0.1-0.3,0.2s-0.3,0.1-0.6,0.1c-0.2,0-0.5,0-0.9,0s-0.7,0-0.9,0c-0.2,0-0.4-0.1-0.6-0.1
			s-0.2-0.1-0.3-0.2c-0.1-0.1-0.1-0.2-0.1-0.3v-13c0-0.1,0-0.2,0.1-0.3c0.1-0.1,0.2-0.1,0.3-0.2c0.1-0.1,0.3-0.1,0.6-0.1
			s0.5,0,0.9,0s0.7,0,0.9,0s0.4,0.1,0.6,0.1c0.1,0.1,0.2,0.1,0.3,0.2c0.1,0.1,0.1,0.2,0.1,0.3V34.4z"/>
		<path class="st2" d="M162.2,27.7c0,1.2-0.1,2.2-0.4,3.1c-0.2,0.9-0.6,1.7-1.1,2.4s-1.1,1.2-1.8,1.5s-1.5,0.5-2.4,0.5
			c-0.4,0-0.7,0-1-0.1c-0.3-0.1-0.6-0.2-0.9-0.3c-0.3-0.2-0.6-0.3-0.9-0.6s-0.6-0.5-0.9-0.8v6.2c0,0.1,0,0.2-0.1,0.3
			s-0.2,0.1-0.3,0.2c-0.1,0.1-0.3,0.1-0.6,0.1s-0.5,0-0.9,0s-0.7,0-0.9,0s-0.4-0.1-0.6-0.1c-0.1-0.1-0.2-0.1-0.3-0.2
			s-0.1-0.2-0.1-0.3V21.4c0-0.1,0-0.2,0.1-0.3c0-0.1,0.1-0.1,0.3-0.2s0.3-0.1,0.5-0.1s0.5,0,0.8,0c0.3,0,0.5,0,0.7,0
			s0.4,0.1,0.5,0.1s0.2,0.1,0.3,0.2c0,0.1,0.1,0.2,0.1,0.3v1.5c0.4-0.4,0.8-0.7,1.1-1s0.7-0.5,1.1-0.7c0.4-0.2,0.8-0.3,1.2-0.4
			s0.8-0.1,1.3-0.1c1,0,1.8,0.2,2.4,0.6c0.7,0.4,1.2,0.9,1.6,1.5s0.7,1.4,0.9,2.3C162.1,25.8,162.2,26.7,162.2,27.7z M158.4,28
			c0-0.6,0-1.1-0.1-1.6c-0.1-0.5-0.2-1-0.4-1.4c-0.2-0.4-0.5-0.7-0.8-1s-0.7-0.4-1.2-0.4c-0.2,0-0.5,0-0.7,0.1
			c-0.2,0.1-0.5,0.2-0.7,0.4s-0.5,0.4-0.8,0.6c-0.3,0.3-0.5,0.6-0.8,1v4.3c0.5,0.7,1,1.2,1.5,1.5c0.5,0.4,1,0.5,1.5,0.5
			c0.5,0,0.9-0.1,1.2-0.4s0.6-0.6,0.8-1c0.2-0.4,0.4-0.8,0.5-1.3S158.4,28.5,158.4,28z"/>
	</g>
</g>
<g id="Layer_3" class="st3">
</g>
</svg>
