<?xml version="1.0" encoding="utf-8"?>
<!-- Generator: Adobe Illustrator 25.4.1, SVG Export Plug-In . SVG Version: 6.00 Build 0)  -->
<svg version="1.1" id="Layer_1" xmlns="http://www.w3.org/2000/svg" xmlns:xlink="http://www.w3.org/1999/xlink" x="0px" y="0px"
	 viewBox="0 0 178.2 48.5" style="enable-background:new 0 0 178.2 48.5;" xml:space="preserve">
<style type="text/css">
	.st0{fill:#B3D4B0;}
	.st1{enable-background:new    ;}
	.st2{fill:#443633;}
	.st3{display:none;}
</style>
<g id="Layer_1_00000091711812133289603100000017894543333811746236_">
</g>
<g id="Layer_2_00000098928310814537997450000006719721268242690466_">
	<path class="st0" d="M152.9,15.9c-9.5,5.2-23.7,17.1-29.5,28.9h5.5c1.5-3.8,4.7-8.5,7.2-11c15.6,7,32.1-5.2,32.1-21.2
		c0-2.9-0.6-5.8-1.7-8.9c-4.4,5.8-10.5,2-20.2,3c-14.3,1.6-20.8,12.7-16.4,21.5C136.4,21.9,147.6,16.4,152.9,15.9z"/>
</g>
<g id="Layer_4">
	<g class="st1">
		<path class="st2" d="M27.7,33.6c0,0.2,0,0.4-0.1,0.6s-0.2,0.3-0.3,0.4s-0.3,0.2-0.5,0.3c-0.2,0.1-0.4,0.1-0.5,0.1h-1.6
			c-0.3,0-0.6,0-0.9-0.1s-0.5-0.2-0.7-0.4c-0.2-0.2-0.4-0.4-0.6-0.7c-0.2-0.3-0.4-0.7-0.7-1.2l-4.7-8.9c-0.3-0.5-0.6-1.1-0.8-1.7
			s-0.5-1.2-0.8-1.8h0c0,0.7,0.1,1.4,0.1,2.1s0,1.4,0,2.2v9.9c0,0.1,0,0.2-0.1,0.3s-0.1,0.1-0.3,0.2c-0.1,0.1-0.3,0.1-0.5,0.1
			s-0.5,0-0.9,0c-0.3,0-0.6,0-0.8,0s-0.4-0.1-0.5-0.1c-0.1-0.1-0.2-0.1-0.3-0.2s-0.1-0.2-0.1-0.3v-17c0-0.5,0.1-0.8,0.4-1
			c0.3-0.2,0.6-0.3,1-0.3h2.1c0.4,0,0.7,0,0.9,0.1s0.5,0.2,0.7,0.3s0.4,0.3,0.6,0.6c0.2,0.3,0.4,0.6,0.5,1l3.7,6.9
			c0.2,0.4,0.4,0.8,0.6,1.2c0.2,0.4,0.4,0.8,0.6,1.2c0.2,0.4,0.4,0.8,0.6,1.2s0.4,0.8,0.5,1.2h0c0-0.7-0.1-1.4-0.1-2.1s0-1.4,0-2.1
			v-8.9c0-0.1,0-0.2,0.1-0.3s0.2-0.1,0.3-0.2s0.3-0.1,0.5-0.1s0.5,0,0.9,0c0.3,0,0.6,0,0.8,0s0.4,0.1,0.5,0.1s0.2,0.1,0.3,0.2
			s0.1,0.2,0.1,0.3V33.6z"/>
		<path class="st2" d="M43.7,27.5c0,0.4-0.1,0.8-0.3,1s-0.5,0.3-0.8,0.3h-8c0,0.6,0.1,1.1,0.2,1.5c0.1,0.5,0.3,0.8,0.6,1.2
			c0.3,0.3,0.7,0.6,1.1,0.7s1,0.2,1.6,0.2c0.6,0,1.2,0,1.7-0.1c0.5-0.1,0.9-0.2,1.3-0.3c0.4-0.1,0.7-0.2,0.9-0.3
			c0.2-0.1,0.4-0.1,0.6-0.1c0.1,0,0.2,0,0.2,0.1c0.1,0,0.1,0.1,0.1,0.2S43,32,43,32.2c0,0.2,0,0.4,0,0.6c0,0.2,0,0.4,0,0.6
			c0,0.2,0,0.3,0,0.4s0,0.2-0.1,0.3c0,0.1-0.1,0.1-0.2,0.2s-0.2,0.2-0.5,0.3s-0.6,0.2-1.1,0.3c-0.4,0.1-0.9,0.2-1.5,0.3
			c-0.6,0.1-1.2,0.1-1.8,0.1c-1.2,0-2.2-0.1-3.1-0.4s-1.6-0.7-2.2-1.3s-1-1.3-1.3-2.3s-0.4-2-0.4-3.2c0-1.2,0.2-2.2,0.5-3.1
			c0.3-0.9,0.7-1.7,1.3-2.4c0.6-0.6,1.3-1.1,2.1-1.5s1.8-0.5,2.8-0.5c1.1,0,2,0.2,2.8,0.5s1.4,0.8,1.9,1.3c0.5,0.6,0.9,1.2,1.1,2
			c0.2,0.8,0.4,1.6,0.4,2.5V27.5z M40.1,26.5c0-1-0.2-1.8-0.6-2.4c-0.4-0.6-1.1-0.9-2.1-0.9c-0.5,0-0.9,0.1-1.2,0.3
			s-0.6,0.4-0.9,0.7c-0.2,0.3-0.4,0.7-0.5,1.1c-0.1,0.4-0.2,0.8-0.2,1.3H40.1z"/>
		<path class="st2" d="M66.6,21.3c0,0.1,0,0.2,0,0.4s-0.1,0.4-0.2,0.7l-3.5,11.8c0,0.2-0.1,0.3-0.2,0.4c-0.1,0.1-0.2,0.2-0.4,0.2
			S61.9,35,61.6,35s-0.7,0-1.2,0s-0.9,0-1.2,0c-0.3,0-0.5-0.1-0.7-0.1s-0.3-0.1-0.4-0.2c-0.1-0.1-0.1-0.2-0.2-0.4l-2.2-7.9l0-0.1
			l0,0.1l-2,7.9c0,0.2-0.1,0.3-0.2,0.4c-0.1,0.1-0.2,0.2-0.4,0.2S52.8,35,52.5,35s-0.7,0-1.2,0c-0.5,0-0.9,0-1.2,0
			c-0.3,0-0.5-0.1-0.7-0.1s-0.3-0.1-0.4-0.2c-0.1-0.1-0.1-0.2-0.2-0.4l-3.5-11.8c-0.1-0.3-0.1-0.5-0.2-0.7c0-0.2,0-0.3,0-0.4
			c0-0.1,0-0.2,0.1-0.3c0.1-0.1,0.2-0.1,0.3-0.2c0.1,0,0.3-0.1,0.6-0.1s0.5,0,0.9,0c0.4,0,0.7,0,1,0s0.4,0.1,0.6,0.1
			s0.2,0.1,0.3,0.2s0.1,0.2,0.1,0.3l2.6,9.6l0,0.2l0-0.2l2.4-9.6c0-0.1,0.1-0.2,0.1-0.3s0.2-0.1,0.3-0.2s0.3-0.1,0.5-0.1
			s0.5,0,0.9,0s0.7,0,0.9,0s0.4,0.1,0.5,0.1c0.1,0,0.2,0.1,0.3,0.2c0.1,0.1,0.1,0.2,0.1,0.3l2.6,9.7l0,0.2l0-0.2l2.5-9.6
			c0-0.1,0.1-0.2,0.1-0.3s0.2-0.1,0.3-0.2s0.3-0.1,0.6-0.1s0.5,0,0.9,0s0.7,0,0.9,0s0.4,0.1,0.5,0.1c0.1,0,0.2,0.1,0.3,0.2
			C66.5,21.1,66.6,21.2,66.6,21.3z"/>
		<path class="st2" d="M77.9,30.7c0,0.7-0.1,1.4-0.4,2s-0.7,1-1.2,1.4s-1.1,0.7-1.8,0.9c-0.7,0.2-1.4,0.3-2.3,0.3
			c-0.5,0-1,0-1.4-0.1c-0.4-0.1-0.8-0.2-1.2-0.3c-0.4-0.1-0.6-0.2-0.9-0.3s-0.4-0.2-0.5-0.3c-0.1-0.1-0.2-0.3-0.2-0.5
			c-0.1-0.2-0.1-0.5-0.1-1c0-0.3,0-0.5,0-0.7c0-0.2,0-0.3,0.1-0.4c0-0.1,0.1-0.2,0.1-0.2c0.1,0,0.1-0.1,0.2-0.1
			c0.1,0,0.3,0.1,0.5,0.2c0.2,0.1,0.5,0.3,0.8,0.4s0.7,0.3,1.1,0.4s0.9,0.2,1.4,0.2c0.3,0,0.6,0,0.9-0.1s0.5-0.2,0.7-0.3
			s0.3-0.3,0.4-0.5s0.1-0.4,0.1-0.7c0-0.3-0.1-0.5-0.3-0.8c-0.2-0.2-0.4-0.4-0.7-0.6s-0.6-0.3-1-0.4s-0.8-0.3-1.2-0.5
			s-0.8-0.4-1.2-0.6s-0.7-0.5-1-0.8s-0.5-0.7-0.7-1.1s-0.3-1-0.3-1.6c0-0.6,0.1-1.2,0.4-1.7s0.6-1,1.1-1.3s1-0.7,1.7-0.9
			s1.4-0.3,2.2-0.3c0.4,0,0.8,0,1.2,0.1s0.7,0.1,1,0.2s0.6,0.2,0.8,0.3c0.2,0.1,0.4,0.2,0.5,0.3c0.1,0.1,0.2,0.1,0.2,0.2
			c0,0.1,0.1,0.2,0.1,0.3c0,0.1,0,0.2,0.1,0.4s0,0.3,0,0.6c0,0.3,0,0.5,0,0.6s0,0.3-0.1,0.4S77,24,77,24c-0.1,0-0.1,0.1-0.2,0.1
			c-0.1,0-0.2-0.1-0.4-0.2c-0.2-0.1-0.4-0.2-0.7-0.3s-0.6-0.2-1-0.3c-0.4-0.1-0.8-0.2-1.3-0.2c-0.3,0-0.6,0-0.9,0.1
			s-0.4,0.2-0.6,0.3s-0.3,0.3-0.4,0.4s-0.1,0.4-0.1,0.5c0,0.3,0.1,0.6,0.3,0.8s0.4,0.4,0.7,0.5s0.6,0.3,1,0.4s0.8,0.3,1.2,0.4
			c0.4,0.2,0.8,0.3,1.2,0.6s0.7,0.5,1,0.8s0.5,0.7,0.7,1.1C77.8,29.6,77.9,30.1,77.9,30.7z"/>
		<path class="st2" d="M84.4,34.4c0,0.1,0,0.2-0.1,0.3c-0.1,0.1-0.2,0.1-0.3,0.2s-0.3,0.1-0.6,0.1c-0.2,0-0.5,0-0.9,0s-0.7,0-0.9,0
			c-0.2,0-0.4-0.1-0.6-0.1s-0.2-0.1-0.3-0.2c-0.1-0.1-0.1-0.2-0.1-0.3V15.2c0-0.1,0-0.2,0.1-0.3s0.2-0.1,0.3-0.2
			c0.1-0.1,0.3-0.1,0.6-0.1s0.5,0,0.9,0s0.7,0,0.9,0s0.4,0.1,0.6,0.1c0.1,0.1,0.2,0.1,0.3,0.2s0.1,0.2,0.1,0.3V34.4z"/>
		<path class="st2" d="M100.1,27.5c0,0.4-0.1,0.8-0.3,1s-0.5,0.3-0.8,0.3h-8c0,0.6,0.1,1.1,0.2,1.5c0.1,0.5,0.3,0.8,0.6,1.2
			c0.3,0.3,0.7,0.6,1.1,0.7s1,0.2,1.6,0.2c0.6,0,1.2,0,1.7-0.1c0.5-0.1,0.9-0.2,1.3-0.3c0.4-0.1,0.7-0.2,0.9-0.3
			c0.2-0.1,0.4-0.1,0.6-0.1c0.1,0,0.2,0,0.2,0.1c0.1,0,0.1,0.1,0.1,0.2s0.1,0.2,0.1,0.4c0,0.2,0,0.4,0,0.6c0,0.2,0,0.4,0,0.6
			c0,0.2,0,0.3,0,0.4s0,0.2-0.1,0.3c0,0.1-0.1,0.1-0.2,0.2s-0.2,0.2-0.5,0.3s-0.6,0.2-1.1,0.3c-0.4,0.1-0.9,0.2-1.5,0.3
			c-0.6,0.1-1.2,0.1-1.8,0.1c-1.2,0-2.2-0.1-3.1-0.4s-1.6-0.7-2.2-1.3s-1-1.3-1.3-2.3s-0.4-2-0.4-3.2c0-1.2,0.2-2.2,0.5-3.1
			c0.3-0.9,0.7-1.7,1.3-2.4c0.6-0.6,1.3-1.1,2.1-1.5s1.8-0.5,2.8-0.5c1.1,0,2,0.2,2.8,0.5s1.4,0.8,1.9,1.3c0.5,0.6,0.9,1.2,1.1,2
			c0.2,0.8,0.4,1.6,0.4,2.5V27.5z M96.6,26.5c0-1-0.2-1.8-0.6-2.4c-0.4-0.6-1.1-0.9-2.1-0.9c-0.5,0-0.9,0.1-1.2,0.3
			s-0.6,0.4-0.9,0.7c-0.2,0.3-0.4,0.7-0.5,1.1c-0.1,0.4-0.2,0.8-0.2,1.3H96.6z"/>
		<path class="st2" d="M120,33.1c0,0.4,0,0.8-0.1,1s-0.1,0.4-0.2,0.5s-0.2,0.2-0.4,0.2s-0.4,0.1-0.6,0.2s-0.5,0.1-0.7,0.1
			s-0.5,0-0.8,0c-0.7,0-1.4-0.1-1.9-0.3s-1-0.5-1.3-0.9c-0.4-0.4-0.6-0.9-0.8-1.5s-0.2-1.3-0.2-2.1v-6.7h-5.6V30
			c0,0.7,0.1,1.2,0.3,1.6c0.2,0.4,0.6,0.5,1.2,0.5c0.2,0,0.4,0,0.5-0.1c0.2,0,0.3-0.1,0.4-0.1c0.1,0,0.2-0.1,0.3-0.1
			c0.1,0,0.2-0.1,0.2-0.1c0.1,0,0.1,0,0.2,0.1c0.1,0,0.1,0.1,0.1,0.2c0,0.1,0.1,0.2,0.1,0.4s0,0.4,0,0.7s0,0.5,0,0.7
			c0,0.2,0,0.3-0.1,0.4s-0.1,0.2-0.1,0.3c0,0.1-0.1,0.1-0.2,0.2c-0.1,0.1-0.2,0.1-0.4,0.2s-0.4,0.1-0.6,0.2
			c-0.2,0.1-0.5,0.1-0.7,0.1s-0.5,0-0.8,0c-0.7,0-1.4-0.1-1.9-0.3s-1-0.5-1.3-0.9c-0.4-0.4-0.6-0.9-0.8-1.5s-0.2-1.3-0.2-2.1v-6.7
			H102c-0.2,0-0.3-0.1-0.4-0.3s-0.1-0.6-0.1-1.2c0-0.3,0-0.5,0-0.7s0.1-0.3,0.1-0.5c0-0.1,0.1-0.2,0.2-0.2s0.2-0.1,0.3-0.1h1.6v-2.9
			c0-0.1,0-0.2,0.1-0.3s0.2-0.1,0.3-0.2c0.1-0.1,0.3-0.1,0.6-0.1c0.2,0,0.5,0,0.9,0c0.4,0,0.7,0,0.9,0c0.2,0,0.4,0.1,0.6,0.1
			c0.1,0.1,0.2,0.1,0.3,0.2s0.1,0.2,0.1,0.3v2.9h5.6v-3.6c0-0.1,0-0.2,0.1-0.3s0.2-0.1,0.3-0.2s0.3-0.1,0.6-0.1s0.5,0,0.9,0
			c0.4,0,0.7,0,0.9,0s0.4,0.1,0.6,0.1s0.2,0.1,0.3,0.2s0.1,0.2,0.1,0.3v3.6h2.8c0.1,0,0.2,0,0.2,0.1s0.1,0.1,0.2,0.2
			c0.1,0.1,0.1,0.3,0.1,0.5s0,0.4,0,0.7c0,0.5-0.1,0.9-0.2,1.2s-0.2,0.3-0.4,0.3h-2.9V30c0,0.7,0.1,1.2,0.3,1.6
			c0.2,0.4,0.6,0.5,1.2,0.5c0.2,0,0.4,0,0.5-0.1c0.2,0,0.3-0.1,0.4-0.1c0.1,0,0.2-0.1,0.3-0.1c0.1,0,0.2-0.1,0.2-0.1
			c0.1,0,0.1,0,0.2,0.1c0,0,0.1,0.1,0.1,0.2c0,0.1,0.1,0.2,0.1,0.4S120,32.9,120,33.1z"/>
		<path class="st2" d="M134.4,27.5c0,0.4-0.1,0.8-0.3,1s-0.5,0.3-0.8,0.3h-8c0,0.6,0.1,1.1,0.2,1.5c0.1,0.5,0.3,0.8,0.6,1.2
			c0.3,0.3,0.7,0.6,1.1,0.7s1,0.2,1.6,0.2c0.6,0,1.2,0,1.7-0.1c0.5-0.1,0.9-0.2,1.3-0.3c0.4-0.1,0.7-0.2,0.9-0.3
			c0.2-0.1,0.4-0.1,0.6-0.1c0.1,0,0.2,0,0.2,0.1c0.1,0,0.1,0.1,0.1,0.2s0.1,0.2,0.1,0.4c0,0.2,0,0.4,0,0.6c0,0.2,0,0.4,0,0.6
			c0,0.2,0,0.3,0,0.4s0,0.2-0.1,0.3c0,0.1-0.1,0.1-0.2,0.2s-0.2,0.2-0.5,0.3s-0.6,0.2-1.1,0.3c-0.4,0.1-0.9,0.2-1.5,0.3
			c-0.6,0.1-1.2,0.1-1.8,0.1c-1.2,0-2.2-0.1-3.1-0.4s-1.6-0.7-2.2-1.3s-1-1.3-1.3-2.3s-0.4-2-0.4-3.2c0-1.2,0.2-2.2,0.5-3.1
			c0.3-0.9,0.7-1.7,1.3-2.4c0.6-0.6,1.3-1.1,2.1-1.5s1.8-0.5,2.8-0.5c1.1,0,2,0.2,2.8,0.5s1.4,0.8,1.9,1.3c0.5,0.6,0.9,1.2,1.1,2
			c0.2,0.8,0.4,1.6,0.4,2.5V27.5z M130.8,26.5c0-1-0.2-1.8-0.6-2.4c-0.4-0.6-1.1-0.9-2.1-0.9c-0.5,0-0.9,0.1-1.2,0.3
			s-0.6,0.4-0.9,0.7c-0.2,0.3-0.4,0.7-0.5,1.1c-0.1,0.4-0.2,0.8-0.2,1.3H130.8z"/>
		<path class="st2" d="M145.8,22.6c0,0.4,0,0.6,0,0.9s0,0.4-0.1,0.5s-0.1,0.2-0.2,0.3s-0.1,0.1-0.2,0.1c-0.1,0-0.2,0-0.3-0.1
			c-0.1,0-0.2-0.1-0.3-0.1s-0.3-0.1-0.4-0.1S144,24,143.8,24c-0.2,0-0.4,0-0.6,0.1c-0.2,0.1-0.4,0.2-0.6,0.4s-0.4,0.4-0.7,0.7
			c-0.2,0.3-0.5,0.7-0.8,1.1v8.1c0,0.1,0,0.2-0.1,0.3c-0.1,0.1-0.2,0.1-0.3,0.2s-0.3,0.1-0.6,0.1c-0.2,0-0.5,0-0.9,0s-0.7,0-0.9,0
			c-0.2,0-0.4-0.1-0.6-0.1s-0.2-0.1-0.3-0.2c-0.1-0.1-0.1-0.2-0.1-0.3V21.4c0-0.1,0-0.2,0.1-0.3c0-0.1,0.1-0.1,0.3-0.2
			s0.3-0.1,0.5-0.1s0.5,0,0.8,0c0.3,0,0.6,0,0.8,0s0.4,0.1,0.5,0.1s0.2,0.1,0.2,0.2c0,0.1,0.1,0.2,0.1,0.3V23c0.3-0.5,0.7-0.9,1-1.2
			s0.6-0.6,0.9-0.8s0.5-0.3,0.8-0.4c0.3-0.1,0.5-0.1,0.8-0.1c0.1,0,0.3,0,0.4,0c0.1,0,0.3,0,0.5,0.1c0.2,0,0.3,0.1,0.4,0.1
			c0.1,0,0.2,0.1,0.3,0.1s0.1,0.1,0.1,0.2s0,0.1,0.1,0.2c0,0.1,0,0.3,0,0.5S145.8,22.2,145.8,22.6z"/>
	</g>
</g>
<g id="Layer_3" class="st3">
	
		<image style="display:inline;overflow:visible;enable-background:new    ;" width="284" height="173" xlink:href="D0A08981.jpeg"  transform="matrix(0.2553 0 0 0.2553 -10.593 26.8944)">
	</image>
</g>
</svg>
