<?xml version="1.0" encoding="utf-8"?>
<!-- Generator: Adobe Illustrator 25.4.1, SVG Export Plug-In . SVG Version: 6.00 Build 0)  -->
<svg version="1.1" id="Layer_1" xmlns="http://www.w3.org/2000/svg" xmlns:xlink="http://www.w3.org/1999/xlink" x="0px" y="0px"
	 viewBox="0 0 95 48.5" style="enable-background:new 0 0 95 48.5;" xml:space="preserve">
<style type="text/css">
	.st0{fill:#B3D4B0;}
	.st1{enable-background:new    ;}
	.st2{fill:#443633;}
	.st3{display:none;}
</style>
<g id="Layer_1_00000087394739529793147860000002675819173982189237_">
</g>
<g id="Layer_2_00000008832858595479380240000012383632933236211601_">
	<path class="st0" d="M73.7,15.1C64.2,20.3,50,32.3,44.3,44h5.5c1.5-3.8,4.7-8.5,7.2-11c15.6,7,32-5.2,32-21.2C89,9,88.5,6,87.3,3
		c-4.4,5.8-10.5,2-20.2,3C52.8,7.6,46.2,18.7,50.7,27.5C57.3,21.1,68.5,15.6,73.7,15.1z"/>
</g>
<g id="Layer_4">
	<g class="st1">
		<path class="st2" d="M21.1,28.5c0,1-0.2,1.9-0.6,2.6s-0.9,1.4-1.5,1.9c-0.6,0.5-1.4,0.9-2.2,1.1s-1.8,0.4-2.7,0.4
			c-0.7,0-1.3-0.1-1.8-0.2s-1.1-0.2-1.5-0.4c-0.4-0.2-0.8-0.3-1.1-0.5S9.2,33.1,9.1,33s-0.2-0.3-0.3-0.5c-0.1-0.2-0.1-0.6-0.1-1
			c0-0.3,0-0.6,0-0.8s0.1-0.4,0.1-0.5S9,30,9,29.9s0.2-0.1,0.3-0.1c0.1,0,0.3,0.1,0.6,0.2c0.2,0.2,0.6,0.3,1,0.5s0.9,0.4,1.4,0.5
			c0.5,0.2,1.2,0.2,1.9,0.2c0.5,0,0.9-0.1,1.3-0.2c0.4-0.1,0.7-0.3,0.9-0.5s0.5-0.5,0.6-0.8s0.2-0.6,0.2-1c0-0.4-0.1-0.8-0.4-1.1
			c-0.2-0.3-0.5-0.6-0.9-0.8s-0.8-0.5-1.3-0.7s-1-0.4-1.5-0.7s-1-0.5-1.5-0.8s-0.9-0.7-1.3-1.1c-0.4-0.4-0.7-0.9-0.9-1.5
			s-0.4-1.2-0.4-2c0-0.9,0.2-1.7,0.5-2.4c0.3-0.7,0.8-1.3,1.4-1.7c0.6-0.5,1.2-0.8,2-1s1.6-0.3,2.5-0.3c0.4,0,0.9,0,1.3,0.1
			s0.9,0.2,1.3,0.3s0.7,0.2,1,0.4s0.5,0.3,0.6,0.4s0.2,0.2,0.2,0.2s0.1,0.2,0.1,0.3s0,0.3,0.1,0.4c0,0.2,0,0.4,0,0.6
			c0,0.3,0,0.5,0,0.7s0,0.4-0.1,0.5s-0.1,0.2-0.1,0.3s-0.1,0.1-0.3,0.1s-0.3-0.1-0.5-0.2s-0.5-0.3-0.9-0.4c-0.3-0.2-0.7-0.3-1.2-0.4
			c-0.4-0.1-0.9-0.2-1.5-0.2c-0.4,0-0.8,0.1-1.1,0.2c-0.3,0.1-0.6,0.2-0.8,0.4c-0.2,0.2-0.4,0.4-0.5,0.7S13,19.6,13,19.9
			c0,0.4,0.1,0.8,0.3,1.1c0.2,0.3,0.5,0.6,0.9,0.8c0.4,0.2,0.8,0.5,1.3,0.7c0.5,0.2,1,0.4,1.5,0.7s1,0.5,1.5,0.8
			c0.5,0.3,0.9,0.7,1.3,1.1s0.7,0.9,0.9,1.5S21.1,27.7,21.1,28.5z"/>
		<path class="st2" d="M36.3,33.6c0,0.1,0,0.2-0.1,0.3C36.2,34,36.1,34,36,34.1s-0.3,0.1-0.6,0.1s-0.5,0-0.9,0c-0.4,0-0.7,0-0.9,0
			s-0.4-0.1-0.6-0.1s-0.2-0.1-0.3-0.2c-0.1-0.1-0.1-0.2-0.1-0.3v-7.5c0-0.6,0-1.1-0.1-1.5s-0.2-0.7-0.4-0.9
			c-0.2-0.3-0.4-0.5-0.7-0.6s-0.6-0.2-1-0.2c-0.5,0-0.9,0.2-1.4,0.5s-1,0.8-1.5,1.5v8.7c0,0.1,0,0.2-0.1,0.3
			c-0.1,0.1-0.2,0.1-0.3,0.2s-0.3,0.1-0.6,0.1s-0.5,0-0.9,0s-0.7,0-0.9,0s-0.4-0.1-0.6-0.1S24,34,23.9,33.9
			c-0.1-0.1-0.1-0.2-0.1-0.3V14.4c0-0.1,0-0.2,0.1-0.3s0.2-0.1,0.3-0.2c0.1-0.1,0.3-0.1,0.6-0.1s0.5,0,0.9,0s0.7,0,0.9,0
			s0.4,0.1,0.6,0.1c0.1,0.1,0.2,0.1,0.3,0.2s0.1,0.2,0.1,0.3v7.2c0.6-0.6,1.3-1.1,1.9-1.4c0.7-0.3,1.3-0.5,2.1-0.5
			c0.9,0,1.6,0.1,2.2,0.4s1.1,0.7,1.5,1.2s0.6,1.1,0.8,1.8s0.2,1.5,0.2,2.5V33.6z"/>
		<path class="st2" d="M53.2,27c0,1.1-0.1,2.1-0.4,3s-0.7,1.7-1.3,2.4s-1.3,1.2-2.2,1.5s-1.9,0.5-3.1,0.5c-1.2,0-2.2-0.2-3-0.5
			s-1.6-0.8-2.1-1.4s-1-1.4-1.3-2.3s-0.4-1.9-0.4-3.1c0-1.1,0.1-2.1,0.4-3.1c0.3-0.9,0.7-1.7,1.3-2.4c0.6-0.7,1.3-1.2,2.2-1.5
			s1.9-0.5,3.1-0.5c1.2,0,2.2,0.2,3,0.5c0.9,0.3,1.6,0.8,2.1,1.4s1,1.4,1.3,2.3S53.2,25.8,53.2,27z M49.4,27.1
			c0-0.6-0.1-1.2-0.2-1.8c-0.1-0.5-0.3-1-0.5-1.4s-0.6-0.7-1-0.9c-0.4-0.2-0.9-0.3-1.5-0.3c-0.5,0-1,0.1-1.4,0.3s-0.7,0.5-1,0.9
			s-0.5,0.8-0.6,1.4C43,25.8,43,26.4,43,27.1c0,0.6,0.1,1.2,0.2,1.8c0.1,0.5,0.3,1,0.5,1.4s0.6,0.7,1,0.9c0.4,0.2,0.9,0.3,1.5,0.3
			c0.6,0,1-0.1,1.5-0.3c0.4-0.2,0.7-0.5,1-0.9s0.5-0.8,0.6-1.4C49.3,28.4,49.4,27.8,49.4,27.1z"/>
		<path class="st2" d="M69.2,26.9c0,1.2-0.1,2.2-0.4,3.1c-0.2,0.9-0.6,1.7-1.1,2.4S66.7,33.6,66,34s-1.5,0.5-2.4,0.5
			c-0.4,0-0.7,0-1-0.1c-0.3-0.1-0.6-0.2-0.9-0.3c-0.3-0.2-0.6-0.3-0.9-0.6s-0.6-0.5-0.9-0.8v6.2c0,0.1,0,0.2-0.1,0.3
			s-0.2,0.1-0.3,0.2s-0.3,0.1-0.6,0.1s-0.5,0-0.9,0s-0.7,0-0.9,0s-0.4-0.1-0.6-0.1s-0.2-0.1-0.3-0.2s-0.1-0.2-0.1-0.3V20.6
			c0-0.1,0-0.2,0.1-0.3c0-0.1,0.1-0.1,0.3-0.2s0.3-0.1,0.5-0.1s0.5,0,0.8,0c0.3,0,0.5,0,0.7,0s0.4,0.1,0.5,0.1s0.2,0.1,0.3,0.2
			c0,0.1,0.1,0.2,0.1,0.3v1.5c0.4-0.4,0.8-0.7,1.1-1s0.7-0.5,1.1-0.7c0.4-0.2,0.8-0.3,1.2-0.4s0.8-0.1,1.3-0.1c1,0,1.8,0.2,2.4,0.6
			c0.7,0.4,1.2,0.9,1.6,1.5s0.7,1.4,0.9,2.3S69.2,25.9,69.2,26.9z M65.4,27.2c0-0.6,0-1.1-0.1-1.6c-0.1-0.5-0.2-1-0.4-1.4
			s-0.5-0.7-0.8-1s-0.7-0.4-1.2-0.4c-0.2,0-0.5,0-0.7,0.1c-0.2,0.1-0.5,0.2-0.7,0.4s-0.5,0.4-0.8,0.6s-0.5,0.6-0.8,1v4.3
			c0.5,0.7,1,1.2,1.5,1.5s1,0.5,1.5,0.5c0.5,0,0.9-0.1,1.2-0.4s0.6-0.6,0.8-1c0.2-0.4,0.4-0.8,0.5-1.3S65.4,27.7,65.4,27.2z"/>
	</g>
</g>
<g id="Layer_3" class="st3">
</g>
</svg>
